solid OpenSCAD_Model
  facet normal -0.793273 -0.608866 -0
    outer loop
      vertex -29.4771 11.3526 0
      vertex -28.3121 9.8347 0
      vertex -29.4771 11.3526 10.6
    endloop
  endfacet
  facet normal -0.793273 -0.608866 0
    outer loop
      vertex -29.4771 11.3526 10.6
      vertex -28.3121 9.8347 0
      vertex -28.3121 9.8347 10.6
    endloop
  endfacet
  facet normal -0 0 -1
    outer loop
      vertex -29.4771 11.3526 0
      vertex -29.2272 13.2497 0
      vertex -28.3121 9.8347 0
    endloop
  endfacet
  facet normal 0 -0 -1
    outer loop
      vertex -28.3121 9.8347 0
      vertex -29.2272 13.2497 0
      vertex -27.7093 14.4147 0
    endloop
  endfacet
  facet normal 0 0 -1
    outer loop
      vertex -28.3121 9.8347 0
      vertex -27.7093 14.4147 0
      vertex -25.8122 14.1648 0
    endloop
  endfacet
  facet normal 0 0 -1
    outer loop
      vertex -28.3121 9.8347 0
      vertex -25.8122 14.1648 0
      vertex -20.3302 10.9997 0
    endloop
  endfacet
  facet normal 0 0 -1
    outer loop
      vertex -28.3121 9.8347 0
      vertex -20.3302 10.9997 0
      vertex 14.0001 10.9999 0
    endloop
  endfacet
  facet normal 0 0 -1
    outer loop
      vertex -28.3121 9.8347 0
      vertex 14.0001 10.9999 0
      vertex 13.9998 10.9143 0
    endloop
  endfacet
  facet normal 0 0 -1
    outer loop
      vertex -28.3121 9.8347 0
      vertex 13.9998 10.9143 0
      vertex 15.2943 10.8303 0
    endloop
  endfacet
  facet normal 0 0 -1
    outer loop
      vertex -28.3121 9.8347 0
      vertex 15.2943 10.8303 0
      vertex 17.0437 9.96621 0
    endloop
  endfacet
  facet normal -0 0 -1
    outer loop
      vertex -28.3121 9.8347 0
      vertex 17.0437 9.96621 0
      vertex 18.3301 8.5 0
    endloop
  endfacet
  facet normal -0 0 -1
    outer loop
      vertex 15.5158 5.12461 0
      vertex 18.3301 8.5 0
      vertex 27.5801 -7.52147 0
    endloop
  endfacet
  facet normal 0 0 -1
    outer loop
      vertex 23.3898 -6.34157 0
      vertex 27.5801 -7.52147 0
      vertex 28.2067 -9.36868 0
    endloop
  endfacet
  facet normal 0 0 -1
    outer loop
      vertex 23.6629 -8.07065 0
      vertex 28.2067 -9.36868 0
      vertex 28.0803 -11.3157 0
    endloop
  endfacet
  facet normal 0 0 -1
    outer loop
      vertex 22.3034 -9.17195 0
      vertex 28.0803 -11.3157 0
      vertex 27.2162 -13.0651 0
    endloop
  endfacet
  facet normal 0 0 -1
    outer loop
      vertex 18.9199 -12.5215 0
      vertex 25.75 -14.3516 0
      vertex 23.9028 -14.9781 0
    endloop
  endfacet
  facet normal 0 0 -1
    outer loop
      vertex 20.2063 -13.9877 0
      vertex 23.9028 -14.9781 0
      vertex 21.9557 -14.8517 0
    endloop
  endfacet
  facet normal 0 0 -1
    outer loop
      vertex 10.3399 2.33953 0
      vertex 27.5801 -7.52147 0
      vertex 21.7549 -5.71391 0
    endloop
  endfacet
  facet normal 0 -0 -1
    outer loop
      vertex -21.0001 5.99994 0
      vertex -28.3121 9.8347 0
      vertex 4.00022 6.00013 0
    endloop
  endfacet
  facet normal 0 0 -1
    outer loop
      vertex 23.6629 -8.07065 0
      vertex 28.0803 -11.3157 0
      vertex 22.3034 -9.17195 0
    endloop
  endfacet
  facet normal 0 0 -1
    outer loop
      vertex 12.4845 5.125 0
      vertex 4.00022 6.00013 0
      vertex 12.4842 6.87539 0
    endloop
  endfacet
  facet normal 0 0 -1
    outer loop
      vertex -28.3121 9.8347 0
      vertex -21.0001 5.99994 0
      vertex -22.1652 6.48197 0
    endloop
  endfacet
  facet normal 0 0 -1
    outer loop
      vertex -22.1652 6.48197 0
      vertex -22.25 6.33486 0
      vertex -28.3121 9.8347 0
    endloop
  endfacet
  facet normal 0 0 -1
    outer loop
      vertex 14.0002 4.24961 0
      vertex 10.3399 2.33953 0
      vertex 12.4845 5.125 0
    endloop
  endfacet
  facet normal 0 0 -1
    outer loop
      vertex 4.00022 6.00013 0
      vertex 12.4845 5.125 0
      vertex 10.3399 2.33953 0
    endloop
  endfacet
  facet normal -0 0 -1
    outer loop
      vertex 15.5155 6.875 0
      vertex 18.3301 8.5 0
      vertex 15.5158 5.12461 0
    endloop
  endfacet
  facet normal -0 0 -1
    outer loop
      vertex 10.3399 2.33953 0
      vertex 14.0002 4.24961 0
      vertex 27.5801 -7.52147 0
    endloop
  endfacet
  facet normal 0 -0 -1
    outer loop
      vertex 12.4842 6.87539 0
      vertex 4.00022 6.00013 0
      vertex 13.9998 7.75039 0
    endloop
  endfacet
  facet normal -0 0 -1
    outer loop
      vertex 14.0002 4.24961 0
      vertex 15.5158 5.12461 0
      vertex 27.5801 -7.52147 0
    endloop
  endfacet
  facet normal 0 0 -1
    outer loop
      vertex -28.3121 9.8347 0
      vertex 18.3301 8.5 0
      vertex 13.9998 7.75039 0
    endloop
  endfacet
  facet normal 0 0 -1
    outer loop
      vertex -28.3121 9.8347 0
      vertex 13.9998 7.75039 0
      vertex 4.00022 6.00013 0
    endloop
  endfacet
  facet normal -0 0 -1
    outer loop
      vertex 13.9998 7.75039 0
      vertex 18.3301 8.5 0
      vertex 15.5155 6.875 0
    endloop
  endfacet
  facet normal 0 0 -1
    outer loop
      vertex 20.6694 -8.54378 0
      vertex 22.3034 -9.17195 0
      vertex 27.2162 -13.0651 0
    endloop
  endfacet
  facet normal 0 0 -1
    outer loop
      vertex 23.3898 -6.34157 0
      vertex 28.2067 -9.36868 0
      vertex 23.6629 -8.07065 0
    endloop
  endfacet
  facet normal 0 0 -1
    outer loop
      vertex 21.7549 -5.71391 0
      vertex 27.5801 -7.52147 0
      vertex 23.3898 -6.34157 0
    endloop
  endfacet
  facet normal 0 0 -1
    outer loop
      vertex 18.9199 -12.5215 0
      vertex 23.9028 -14.9781 0
      vertex 20.2063 -13.9877 0
    endloop
  endfacet
  facet normal 0 0 -1
    outer loop
      vertex 10.3399 2.33953 0
      vertex 21.7549 -5.71391 0
      vertex 20.3954 -6.8152 0
    endloop
  endfacet
  facet normal 0 0 -1
    outer loop
      vertex 10.3399 2.33953 0
      vertex 20.3954 -6.8152 0
      vertex 20.6694 -8.54378 0
    endloop
  endfacet
  facet normal 0 0 -1
    outer loop
      vertex 20.6694 -8.54378 0
      vertex 27.2162 -13.0651 0
      vertex 25.75 -14.3516 0
    endloop
  endfacet
  facet normal 0 0 -1
    outer loop
      vertex 10.3399 2.33953 0
      vertex 20.6694 -8.54378 0
      vertex 25.75 -14.3516 0
    endloop
  endfacet
  facet normal 0 0 -1
    outer loop
      vertex 10.3399 2.33953 0
      vertex 25.75 -14.3516 0
      vertex 18.9199 -12.5215 0
    endloop
  endfacet
  facet normal -0.991434 0.130607 0
    outer loop
      vertex -29.4771 11.3526 0
      vertex -29.4771 11.3526 10.6
      vertex -29.2272 13.2497 0
    endloop
  endfacet
  facet normal -0.991434 0.130607 0
    outer loop
      vertex -29.2272 13.2497 0
      vertex -29.4771 11.3526 10.6
      vertex -29.2272 13.2497 10.6
    endloop
  endfacet
  facet normal 0 -0 1
    outer loop
      vertex -29.2272 13.2497 10.6
      vertex -29.4771 11.3526 10.6
      vertex -28.3121 9.8347 10.6
    endloop
  endfacet
  facet normal -0 0 1
    outer loop
      vertex -22.1652 6.48197 10.6
      vertex -29.2272 13.2497 10.6
      vertex -22.25 6.33486 10.6
    endloop
  endfacet
  facet normal 0 0 1
    outer loop
      vertex -22.25 6.33486 10.6
      vertex -29.2272 13.2497 10.6
      vertex -28.3121 9.8347 10.6
    endloop
  endfacet
  facet normal 0 0 1
    outer loop
      vertex -21.0001 5.99994 10.6
      vertex -29.2272 13.2497 10.6
      vertex -22.1652 6.48197 10.6
    endloop
  endfacet
  facet normal -0 0 1
    outer loop
      vertex -20.3302 10.9997 10.6
      vertex -29.2272 13.2497 10.6
      vertex -21.0001 5.99994 10.6
    endloop
  endfacet
  facet normal 0 0 1
    outer loop
      vertex -20.3302 10.9997 10.6
      vertex -25.8122 14.1648 10.6
      vertex -29.2272 13.2497 10.6
    endloop
  endfacet
  facet normal 0 0 1
    outer loop
      vertex 27.5801 -7.52147 10.6
      vertex 4.00022 6.00013 10.6
      vertex 10.3399 2.33953 10.6
    endloop
  endfacet
  facet normal 0 0 1
    outer loop
      vertex 20.2063 -13.9877 10.6
      vertex 10.3399 2.33953 10.6
      vertex 18.9199 -12.5215 10.6
    endloop
  endfacet
  facet normal 0 0 1
    outer loop
      vertex 21.9557 -14.8517 10.6
      vertex 10.3399 2.33953 10.6
      vertex 20.2063 -13.9877 10.6
    endloop
  endfacet
  facet normal 0 0 1
    outer loop
      vertex 23.9028 -14.9781 10.6
      vertex 10.3399 2.33953 10.6
      vertex 21.9557 -14.8517 10.6
    endloop
  endfacet
  facet normal -0 0 1
    outer loop
      vertex 25.75 -14.3516 10.6
      vertex 10.3399 2.33953 10.6
      vertex 23.9028 -14.9781 10.6
    endloop
  endfacet
  facet normal -0 -0 1
    outer loop
      vertex 20.6694 -8.54378 10.6
      vertex 10.3399 2.33953 10.6
      vertex 25.75 -14.3516 10.6
    endloop
  endfacet
  facet normal -0 -0 1
    outer loop
      vertex 27.5801 -7.52147 10.6
      vertex 10.3399 2.33953 10.6
      vertex 28.2067 -9.36868 10.6
    endloop
  endfacet
  facet normal -0 -0 1
    outer loop
      vertex 14 2 10.6
      vertex 4.00022 6.00013 10.6
      vertex 27.5801 -7.52147 10.6
    endloop
  endfacet
  facet normal -0 0 1
    outer loop
      vertex 4.00022 6.00013 10.6
      vertex -20.3302 10.9997 10.6
      vertex -21.0001 5.99994 10.6
    endloop
  endfacet
  facet normal 0 -0 1
    outer loop
      vertex -27.7093 14.4147 10.6
      vertex -29.2272 13.2497 10.6
      vertex -25.8122 14.1648 10.6
    endloop
  endfacet
  facet normal 0 -0 1
    outer loop
      vertex 17.4641 4 10.6
      vertex 14 2 10.6
      vertex 27.5801 -7.52147 10.6
    endloop
  endfacet
  facet normal -0 -0 1
    outer loop
      vertex 10.5359 4 10.6
      vertex 4.00022 6.00013 10.6
      vertex 14 2 10.6
    endloop
  endfacet
  facet normal 0 0 1
    outer loop
      vertex 20.6694 -8.54378 10.6
      vertex 20.3954 -6.8152 10.6
      vertex 10.3399 2.33953 10.6
    endloop
  endfacet
  facet normal 0 0 1
    outer loop
      vertex 10.5359 4 10.6
      vertex 10.5359 8 10.6
      vertex 4.00022 6.00013 10.6
    endloop
  endfacet
  facet normal -0 -0 1
    outer loop
      vertex 17.0437 9.96621 10.6
      vertex 14 10 10.6
      vertex 18.3301 8.5 10.6
    endloop
  endfacet
  facet normal 0 0 1
    outer loop
      vertex 14 10 10.6
      vertex 17.4641 8 10.6
      vertex 18.3301 8.5 10.6
    endloop
  endfacet
  facet normal 0 -0 1
    outer loop
      vertex 18.3301 8.5 10.6
      vertex 17.4641 4 10.6
      vertex 27.5801 -7.52147 10.6
    endloop
  endfacet
  facet normal -0 0 1
    outer loop
      vertex 27.2162 -13.0651 10.6
      vertex 20.6694 -8.54378 10.6
      vertex 25.75 -14.3516 10.6
    endloop
  endfacet
  facet normal 0 0 1
    outer loop
      vertex 20.3954 -6.8152 10.6
      vertex 21.7549 -5.71391 10.6
      vertex 10.3399 2.33953 10.6
    endloop
  endfacet
  facet normal 0 0 1
    outer loop
      vertex 23.3898 -6.34157 10.6
      vertex 23.6629 -8.07065 10.6
      vertex 28.0803 -11.3157 10.6
    endloop
  endfacet
  facet normal 0 0 1
    outer loop
      vertex 23.6629 -8.07065 10.6
      vertex 27.2162 -13.0651 10.6
      vertex 28.0803 -11.3157 10.6
    endloop
  endfacet
  facet normal 0 0 1
    outer loop
      vertex 23.3898 -6.34157 10.6
      vertex 10.3399 2.33953 10.6
      vertex 21.7549 -5.71391 10.6
    endloop
  endfacet
  facet normal 0 -0 1
    outer loop
      vertex 23.6629 -8.07065 10.6
      vertex 22.3034 -9.17195 10.6
      vertex 27.2162 -13.0651 10.6
    endloop
  endfacet
  facet normal 0 0 1
    outer loop
      vertex 28.2067 -9.36868 10.6
      vertex 10.3399 2.33953 10.6
      vertex 23.3898 -6.34157 10.6
    endloop
  endfacet
  facet normal 0 0 1
    outer loop
      vertex 23.3898 -6.34157 10.6
      vertex 28.0803 -11.3157 10.6
      vertex 28.2067 -9.36868 10.6
    endloop
  endfacet
  facet normal 0 0 1
    outer loop
      vertex 27.2162 -13.0651 10.6
      vertex 22.3034 -9.17195 10.6
      vertex 20.6694 -8.54378 10.6
    endloop
  endfacet
  facet normal 0 0 1
    outer loop
      vertex 13.9998 10.9143 10.6
      vertex 17.0437 9.96621 10.6
      vertex 15.2943 10.8303 10.6
    endloop
  endfacet
  facet normal 0 0 1
    outer loop
      vertex 13.9998 10.9143 10.6
      vertex 14 10 10.6
      vertex 17.0437 9.96621 10.6
    endloop
  endfacet
  facet normal 0 -0 1
    outer loop
      vertex 17.4641 8 10.6
      vertex 17.4641 4 10.6
      vertex 18.3301 8.5 10.6
    endloop
  endfacet
  facet normal 0 -0 1
    outer loop
      vertex 13.9998 10.9143 10.6
      vertex 10.5359 8 10.6
      vertex 14 10 10.6
    endloop
  endfacet
  facet normal 0 0 1
    outer loop
      vertex 14.0001 10.9999 10.6
      vertex 10.5359 8 10.6
      vertex 13.9998 10.9143 10.6
    endloop
  endfacet
  facet normal 0 0 1
    outer loop
      vertex 14.0001 10.9999 10.6
      vertex 4.00022 6.00013 10.6
      vertex 10.5359 8 10.6
    endloop
  endfacet
  facet normal 0 0 1
    outer loop
      vertex 14.0001 10.9999 10.6
      vertex -20.3302 10.9997 10.6
      vertex 4.00022 6.00013 10.6
    endloop
  endfacet
  facet normal -0.499989 -0.866032 0
    outer loop
      vertex -28.3121 9.8347 10.6
      vertex -28.3121 9.8347 0
      vertex -22.25 6.33486 0
    endloop
  endfacet
  facet normal -0.499989 -0.866032 0
    outer loop
      vertex -22.25 6.33486 10.6
      vertex -28.3121 9.8347 10.6
      vertex -22.25 6.33486 0
    endloop
  endfacet
  facet normal 0.866355 -0.499428 0
    outer loop
      vertex -22.25 6.33486 10.6
      vertex -22.25 6.33486 0
      vertex -22.1652 6.48197 0
    endloop
  endfacet
  facet normal 0.866355 -0.499428 0
    outer loop
      vertex -22.1652 6.48197 10.6
      vertex -22.25 6.33486 10.6
      vertex -22.1652 6.48197 0
    endloop
  endfacet
  facet normal -0.382292 -0.924042 0
    outer loop
      vertex -22.1652 6.48197 10.6
      vertex -22.1652 6.48197 0
      vertex -21.0001 5.99994 0
    endloop
  endfacet
  facet normal -0.382292 -0.924042 0
    outer loop
      vertex -21.0001 5.99994 10.6
      vertex -22.1652 6.48197 10.6
      vertex -21.0001 5.99994 0
    endloop
  endfacet
  facet normal 7.29802e-06 -1 4.31088e-16
    outer loop
      vertex -13.3333 6 1.25855
      vertex -21.0001 5.99994 0
      vertex 4.00022 6.00013 0
    endloop
  endfacet
  facet normal 7.29802e-06 -1 -1.46053e-16
    outer loop
      vertex -6.33333 6.00005 5.3
      vertex -8.66667 6.00003 1.25855
      vertex 4.00022 6.00013 0
    endloop
  endfacet
  facet normal 7.29802e-06 -1 -3.97566e-16
    outer loop
      vertex -13.3333 6 9.34145
      vertex -8.66667 6.00003 9.34145
      vertex -21.0001 5.99994 10.6
    endloop
  endfacet
  facet normal 7.29802e-06 -1 0
    outer loop
      vertex 4.00022 6.00013 3.56795
      vertex 2.77624 6.00012 3.56795
      vertex 4.00022 6.00013 0
    endloop
  endfacet
  facet normal 7.29802e-06 -1 -1.19469e-16
    outer loop
      vertex 2.77624 6.00012 3.56795
      vertex 1.3852 6.00011 3.56795
      vertex 4.00022 6.00013 0
    endloop
  endfacet
  facet normal 7.29802e-06 -1 -1.85228e-15
    outer loop
      vertex -8.66667 6.00003 9.34145
      vertex 3.9587 6.00013 7.03205
      vertex 4.00022 6.00013 7.03205
    endloop
  endfacet
  facet normal 7.29802e-06 -1 -2.03083e-16
    outer loop
      vertex -8.66667 6.00003 9.34145
      vertex 1.3852 6.00011 3.56795
      vertex 0.0984479 6.0001 5.3
    endloop
  endfacet
  facet normal 7.29802e-06 -1 9.94518e-17
    outer loop
      vertex -8.66667 6.00003 9.34145
      vertex 0.0984479 6.0001 5.3
      vertex 1.3852 6.00011 7.03205
    endloop
  endfacet
  facet normal 7.29802e-06 -1 5.06803e-16
    outer loop
      vertex -8.66667 6.00003 1.25855
      vertex -13.3333 6 1.25855
      vertex 4.00022 6.00013 0
    endloop
  endfacet
  facet normal 7.29802e-06 -1 0
    outer loop
      vertex -21.0001 5.99994 10.6
      vertex -21.0001 5.99994 0
      vertex -13.3333 6 1.25855
    endloop
  endfacet
  facet normal 7.29802e-06 -1 4.78491e-18
    outer loop
      vertex -21.0001 5.99994 10.6
      vertex -13.3333 6 1.25855
      vertex -15.6667 5.99998 5.3
    endloop
  endfacet
  facet normal 7.29802e-06 -1 2.04417e-16
    outer loop
      vertex -8.66667 6.00003 9.34145
      vertex -6.33333 6.00005 5.3
      vertex 1.3852 6.00011 3.56795
    endloop
  endfacet
  facet normal 7.29802e-06 -1 0
    outer loop
      vertex 4.00022 6.00013 10.6
      vertex -8.66667 6.00003 9.34145
      vertex 4.00022 6.00013 7.03205
    endloop
  endfacet
  facet normal 7.29802e-06 -1 -4.51474e-16
    outer loop
      vertex 4.00022 6.00013 10.6
      vertex -21.0001 5.99994 10.6
      vertex -8.66667 6.00003 9.34145
    endloop
  endfacet
  facet normal 7.29802e-06 -1 -6.82515e-17
    outer loop
      vertex 1.3852 6.00011 3.56795
      vertex -6.33333 6.00005 5.3
      vertex 4.00022 6.00013 0
    endloop
  endfacet
  facet normal 7.29802e-06 -1 6.82108e-16
    outer loop
      vertex -8.66667 6.00003 9.34145
      vertex 1.3852 6.00011 7.03205
      vertex 3.9587 6.00013 7.03205
    endloop
  endfacet
  facet normal 7.29802e-06 -1 -1.29806e-18
    outer loop
      vertex -15.6667 5.99998 5.3
      vertex -13.3333 6 9.34145
      vertex -21.0001 5.99994 10.6
    endloop
  endfacet
  facet normal -0.500041 -0.866002 0
    outer loop
      vertex 4.00022 6.00013 3.56795
      vertex 4.00022 6.00013 0
      vertex 10.3399 2.33953 0
    endloop
  endfacet
  facet normal -0.500041 -0.866002 0
    outer loop
      vertex 5.62844 5.05997 3.56795
      vertex 4.00022 6.00013 3.56795
      vertex 10.3399 2.33953 0
    endloop
  endfacet
  facet normal -0.500041 -0.866002 0
    outer loop
      vertex 4.00022 6.00013 10.6
      vertex 4.00022 6.00013 7.03205
      vertex 10.3399 2.33953 10.6
    endloop
  endfacet
  facet normal -0.500041 -0.866002 0
    outer loop
      vertex 4.00022 6.00013 7.03205
      vertex 5.62844 5.05997 7.03205
      vertex 10.3399 2.33953 10.6
    endloop
  endfacet
  facet normal -0.500041 -0.866002 0
    outer loop
      vertex 10.3399 2.33953 10.6
      vertex 7.36058 4.05981 5.3
      vertex 10.3399 2.33953 0
    endloop
  endfacet
  facet normal -0.500041 -0.866002 -1.0727e-16
    outer loop
      vertex 7.36058 4.05981 5.3
      vertex 5.62844 5.05997 3.56795
      vertex 10.3399 2.33953 0
    endloop
  endfacet
  facet normal -0.500041 -0.866002 1.0727e-16
    outer loop
      vertex 5.62844 5.05997 7.03205
      vertex 7.36058 4.05981 5.3
      vertex 10.3399 2.33953 10.6
    endloop
  endfacet
  facet normal -0.866025 -0.5 -6.65468e-16
    outer loop
      vertex 16.114 -7.66149 7.8
      vertex 18.9199 -12.5215 10.6
      vertex 10.3399 2.33953 10.6
    endloop
  endfacet
  facet normal -0.866025 -0.5 -0
    outer loop
      vertex 18.9199 -12.5215 0
      vertex 18.9199 -12.5215 10.6
      vertex 18.8812 -12.4545 7.8
    endloop
  endfacet
  facet normal -0.866025 -0.5 0
    outer loop
      vertex 18.9199 -12.5215 0
      vertex 18.8812 -12.4545 7.8
      vertex 18.8812 -12.4545 2.8
    endloop
  endfacet
  facet normal -0.866025 -0.5 6.23877e-17
    outer loop
      vertex 18.9199 -12.5215 0
      vertex 18.8812 -12.4545 2.8
      vertex 10.3399 2.33953 0
    endloop
  endfacet
  facet normal -0.866025 -0.5 2.2926e-15
    outer loop
      vertex 18.8812 -12.4545 2.8
      vertex 16.114 -7.66149 2.8
      vertex 10.3399 2.33953 0
    endloop
  endfacet
  facet normal -0.866025 -0.5 -0
    outer loop
      vertex 16.114 -7.66149 2.8
      vertex 16.114 -7.66149 5.03825
      vertex 10.3399 2.33953 0
    endloop
  endfacet
  facet normal -0.866025 -0.5 -1.35085e-15
    outer loop
      vertex 15.6309 -6.82486 5.3
      vertex 10.3399 2.33953 0
      vertex 16.114 -7.66149 5.03825
    endloop
  endfacet
  facet normal -0.866025 -0.5 0
    outer loop
      vertex 16.114 -7.66149 7.8
      vertex 15.6309 -6.82486 5.3
      vertex 16.114 -7.66149 5.56175
    endloop
  endfacet
  facet normal -0.866025 -0.5 -0
    outer loop
      vertex 10.3399 2.33953 0
      vertex 16.114 -7.66149 7.8
      vertex 10.3399 2.33953 10.6
    endloop
  endfacet
  facet normal -0.866025 -0.5 -5.37329e-17
    outer loop
      vertex 18.8812 -12.4545 7.8
      vertex 18.9199 -12.5215 10.6
      vertex 16.114 -7.66149 7.8
    endloop
  endfacet
  facet normal -0.866025 -0.5 4.99555e-16
    outer loop
      vertex 16.114 -7.66149 7.8
      vertex 10.3399 2.33953 0
      vertex 15.6309 -6.82486 5.3
    endloop
  endfacet
  facet normal -0.75168 -0.659527 -0
    outer loop
      vertex 18.9199 -12.5215 0
      vertex 20.2063 -13.9877 0
      vertex 18.9199 -12.5215 10.6
    endloop
  endfacet
  facet normal -0.75168 -0.659527 0
    outer loop
      vertex 18.9199 -12.5215 10.6
      vertex 20.2063 -13.9877 0
      vertex 20.2063 -13.9877 10.6
    endloop
  endfacet
  facet normal -0.442844 -0.896599 0
    outer loop
      vertex 20.2063 -13.9877 10.6
      vertex 20.2063 -13.9877 0
      vertex 21.9557 -14.8517 0
    endloop
  endfacet
  facet normal -0.442844 -0.896599 0
    outer loop
      vertex 21.9557 -14.8517 10.6
      vertex 20.2063 -13.9877 10.6
      vertex 21.9557 -14.8517 0
    endloop
  endfacet
  facet normal -0.0647849 -0.997899 0
    outer loop
      vertex 21.9557 -14.8517 10.6
      vertex 21.9557 -14.8517 0
      vertex 23.9028 -14.9781 0
    endloop
  endfacet
  facet normal -0.0647849 -0.997899 0
    outer loop
      vertex 23.9028 -14.9781 10.6
      vertex 21.9557 -14.8517 10.6
      vertex 23.9028 -14.9781 0
    endloop
  endfacet
  facet normal 0.321211 -0.947008 0
    outer loop
      vertex 23.9028 -14.9781 10.6
      vertex 23.9028 -14.9781 0
      vertex 25.75 -14.3516 0
    endloop
  endfacet
  facet normal 0.321211 -0.947008 0
    outer loop
      vertex 25.75 -14.3516 10.6
      vertex 23.9028 -14.9781 10.6
      vertex 25.75 -14.3516 0
    endloop
  endfacet
  facet normal 0.659527 -0.75168 0
    outer loop
      vertex 25.75 -14.3516 10.6
      vertex 25.75 -14.3516 0
      vertex 27.2162 -13.0651 0
    endloop
  endfacet
  facet normal 0.659527 -0.75168 0
    outer loop
      vertex 27.2162 -13.0651 10.6
      vertex 25.75 -14.3516 10.6
      vertex 27.2162 -13.0651 0
    endloop
  endfacet
  facet normal 0.896599 -0.442844 0
    outer loop
      vertex 27.2162 -13.0651 10.6
      vertex 27.2162 -13.0651 0
      vertex 28.0803 -11.3157 0
    endloop
  endfacet
  facet normal 0.896599 -0.442844 0
    outer loop
      vertex 28.0803 -11.3157 10.6
      vertex 27.2162 -13.0651 10.6
      vertex 28.0803 -11.3157 0
    endloop
  endfacet
  facet normal 0.997899 -0.0647849 0
    outer loop
      vertex 28.0803 -11.3157 10.6
      vertex 28.0803 -11.3157 0
      vertex 28.2067 -9.36868 0
    endloop
  endfacet
  facet normal 0.997899 -0.0647849 0
    outer loop
      vertex 28.2067 -9.36868 10.6
      vertex 28.0803 -11.3157 10.6
      vertex 28.2067 -9.36868 0
    endloop
  endfacet
  facet normal 0.947008 0.321211 3.76064e-16
    outer loop
      vertex 27.8727 -8.384 2.8
      vertex 28.2067 -9.36868 0
      vertex 27.5801 -7.52147 0
    endloop
  endfacet
  facet normal 0.947008 0.321211 0
    outer loop
      vertex 27.8727 -8.384 2.8
      vertex 27.8727 -8.384 7.8
      vertex 28.2067 -9.36868 10.6
    endloop
  endfacet
  facet normal 0.947008 0.321211 -0
    outer loop
      vertex 28.2067 -9.36868 10.6
      vertex 28.2067 -9.36868 0
      vertex 27.8727 -8.384 2.8
    endloop
  endfacet
  facet normal 0.947008 0.321211 -8.2715e-16
    outer loop
      vertex 27.5801 -7.52147 7.8
      vertex 28.2067 -9.36868 10.6
      vertex 27.8727 -8.384 7.8
    endloop
  endfacet
  facet normal 0.947008 0.321211 -0
    outer loop
      vertex 27.5801 -7.52147 10.6
      vertex 28.2067 -9.36868 10.6
      vertex 27.5801 -7.52147 7.8
    endloop
  endfacet
  facet normal 0.947008 0.321211 -0
    outer loop
      vertex 27.5801 -7.52147 2.8
      vertex 27.8727 -8.384 2.8
      vertex 27.5801 -7.52147 0
    endloop
  endfacet
  facet normal 0.866025 0.5 -0
    outer loop
      vertex 27.5801 -7.52147 2.8
      vertex 27.5801 -7.52147 0
      vertex 18.3301 8.5 0
    endloop
  endfacet
  facet normal 0.866025 0.5 -3.99552e-16
    outer loop
      vertex 24.4045 -2.02113 2.8
      vertex 27.5801 -7.52147 2.8
      vertex 18.3301 8.5 0
    endloop
  endfacet
  facet normal 0.866025 0.5 -0
    outer loop
      vertex 27.5801 -7.52147 10.6
      vertex 27.5801 -7.52147 7.8
      vertex 18.3301 8.5 10.6
    endloop
  endfacet
  facet normal 0.866025 0.5 3.99552e-16
    outer loop
      vertex 27.5801 -7.52147 7.8
      vertex 24.4045 -2.02113 7.8
      vertex 18.3301 8.5 10.6
    endloop
  endfacet
  facet normal 0.866025 0.5 -0
    outer loop
      vertex 18.3301 8.5 10.6
      vertex 24.4045 -2.02113 2.8
      vertex 18.3301 8.5 0
    endloop
  endfacet
  facet normal 0.866025 0.5 -0
    outer loop
      vertex 24.4045 -2.02113 7.8
      vertex 24.4045 -2.02113 2.8
      vertex 18.3301 8.5 10.6
    endloop
  endfacet
  facet normal 0.75168 0.659527 0
    outer loop
      vertex 18.3301 8.5 0
      vertex 17.0437 9.96621 0
      vertex 17.0437 9.96621 10.6
    endloop
  endfacet
  facet normal 0.75168 0.659527 -0
    outer loop
      vertex 18.3301 8.5 10.6
      vertex 18.3301 8.5 0
      vertex 17.0437 9.96621 10.6
    endloop
  endfacet
  facet normal 0.442844 0.896599 0
    outer loop
      vertex 15.2943 10.8303 0
      vertex 15.2943 10.8303 10.6
      vertex 17.0437 9.96621 0
    endloop
  endfacet
  facet normal 0.442844 0.896599 0
    outer loop
      vertex 17.0437 9.96621 0
      vertex 15.2943 10.8303 10.6
      vertex 17.0437 9.96621 10.6
    endloop
  endfacet
  facet normal 0.064786 0.997899 0
    outer loop
      vertex 13.9998 10.9143 0
      vertex 13.9998 10.9143 10.6
      vertex 15.2943 10.8303 0
    endloop
  endfacet
  facet normal 0.064786 0.997899 0
    outer loop
      vertex 15.2943 10.8303 0
      vertex 13.9998 10.9143 10.6
      vertex 15.2943 10.8303 10.6
    endloop
  endfacet
  facet normal 0.999996 -0.00279358 0
    outer loop
      vertex 13.9998 10.9143 10.6
      vertex 13.9998 10.9143 0
      vertex 14.0001 10.9999 0
    endloop
  endfacet
  facet normal 0.999996 -0.00279358 0
    outer loop
      vertex 14.0001 10.9999 10.6
      vertex 13.9998 10.9143 10.6
      vertex 14.0001 10.9999 0
    endloop
  endfacet
  facet normal -5.06678e-06 1 9.00953e-17
    outer loop
      vertex -2.66348 10.9998 7.03205
      vertex -20.3302 10.9997 10.6
      vertex 14.0001 10.9999 10.6
    endloop
  endfacet
  facet normal -5.06678e-06 1 2.27417e-17
    outer loop
      vertex -0.0899669 10.9998 7.03205
      vertex -2.66348 10.9998 7.03205
      vertex 14.0001 10.9999 10.6
    endloop
  endfacet
  facet normal -5.06678e-06 1 0
    outer loop
      vertex -20.3302 10.9997 0
      vertex -20.3302 10.9997 10.6
      vertex -3.95023 10.9998 5.3
    endloop
  endfacet
  facet normal -5.06678e-06 1 -2.10674e-17
    outer loop
      vertex -20.3302 10.9997 0
      vertex -3.95023 10.9998 5.3
      vertex -2.66348 10.9998 3.56795
    endloop
  endfacet
  facet normal -5.06678e-06 1 -9.00971e-17
    outer loop
      vertex -20.3302 10.9997 0
      vertex -2.66348 10.9998 3.56795
      vertex 14.0001 10.9999 0
    endloop
  endfacet
  facet normal -5.06678e-06 1 -4.44087e-16
    outer loop
      vertex -2.66348 10.9998 3.56795
      vertex -0.110336 10.9998 3.56795
      vertex 14.0001 10.9999 0
    endloop
  endfacet
  facet normal -5.06678e-06 1 2.08605e-15
    outer loop
      vertex 2.19906 10.9998 3.56795
      vertex 14.0001 10.9999 0
      vertex -0.110336 10.9998 3.56795
    endloop
  endfacet
  facet normal -5.06678e-06 1 -7.6836e-17
    outer loop
      vertex 3.35376 10.9998 5.3
      vertex 14.0001 10.9999 0
      vertex 2.19906 10.9998 3.56795
    endloop
  endfacet
  facet normal -5.06678e-06 1 0
    outer loop
      vertex 14.0001 10.9999 0
      vertex 3.35376 10.9998 5.3
      vertex 14.0001 10.9999 10.6
    endloop
  endfacet
  facet normal -5.06678e-06 1 7.6836e-17
    outer loop
      vertex 3.35376 10.9998 5.3
      vertex 2.19906 10.9998 7.03205
      vertex 14.0001 10.9999 10.6
    endloop
  endfacet
  facet normal -5.06678e-06 1 -1.7694e-15
    outer loop
      vertex 2.19906 10.9998 7.03205
      vertex -0.0899669 10.9998 7.03205
      vertex 14.0001 10.9999 10.6
    endloop
  endfacet
  facet normal -5.06678e-06 1 2.10712e-17
    outer loop
      vertex -3.95023 10.9998 5.3
      vertex -20.3302 10.9997 10.6
      vertex -2.66348 10.9998 7.03205
    endloop
  endfacet
  facet normal 0.500004 0.866023 0
    outer loop
      vertex -25.8122 14.1648 0
      vertex -25.8122 14.1648 10.6
      vertex -20.3302 10.9997 0
    endloop
  endfacet
  facet normal 0.500004 0.866023 0
    outer loop
      vertex -20.3302 10.9997 0
      vertex -25.8122 14.1648 10.6
      vertex -20.3302 10.9997 10.6
    endloop
  endfacet
  facet normal 0.130607 0.991434 0
    outer loop
      vertex -27.7093 14.4147 0
      vertex -27.7093 14.4147 10.6
      vertex -25.8122 14.1648 0
    endloop
  endfacet
  facet normal 0.130607 0.991434 0
    outer loop
      vertex -25.8122 14.1648 0
      vertex -27.7093 14.4147 10.6
      vertex -25.8122 14.1648 10.6
    endloop
  endfacet
  facet normal -0.608866 0.793273 0
    outer loop
      vertex -29.2272 13.2497 0
      vertex -29.2272 13.2497 10.6
      vertex -27.7093 14.4147 0
    endloop
  endfacet
  facet normal -0.608866 0.793273 0
    outer loop
      vertex -27.7093 14.4147 0
      vertex -29.2272 13.2497 10.6
      vertex -27.7093 14.4147 10.6
    endloop
  endfacet
  facet normal 0.500113 0.86596 0
    outer loop
      vertex 12.4845 5.125 0
      vertex 12.4845 5.125 8.35
      vertex 14.0002 4.24961 0
    endloop
  endfacet
  facet normal 0.500113 0.86596 4.67094e-17
    outer loop
      vertex 14.0002 4.24961 0
      vertex 12.4845 5.125 8.35
      vertex 14 4.24974 8.35026
    endloop
  endfacet
  facet normal 0.500113 0.86596 0
    outer loop
      vertex 14.0002 4.24961 0
      vertex 14 4.24974 8.35026
      vertex 14.0002 4.24961 8.35053
    endloop
  endfacet
  facet normal 1 0.000130126 -0
    outer loop
      vertex 12.4845 5.125 8.35
      vertex 12.4845 5.125 0
      vertex 12.4842 6.87539 0
    endloop
  endfacet
  facet normal 1 0.000130126 1.43044e-16
    outer loop
      vertex 12.4842 6.87513 8.35026
      vertex 12.4845 5.125 8.35
      vertex 12.4842 6.87539 0
    endloop
  endfacet
  facet normal 1 0.000130126 -0
    outer loop
      vertex 12.4842 6.87539 8.35053
      vertex 12.4842 6.87513 8.35026
      vertex 12.4842 6.87539 0
    endloop
  endfacet
  facet normal 0.5 -0.866025 0
    outer loop
      vertex 12.4842 6.87539 8.35053
      vertex 12.4842 6.87539 0
      vertex 13.9998 7.75039 0
    endloop
  endfacet
  facet normal 0.5 -0.866025 0
    outer loop
      vertex 13.9998 7.75039 8.35053
      vertex 12.4842 6.87539 8.35053
      vertex 13.9998 7.75039 0
    endloop
  endfacet
  facet normal -0.500113 -0.86596 0
    outer loop
      vertex 13.9998 7.75039 8.35053
      vertex 13.9998 7.75039 0
      vertex 15.5155 6.875 0
    endloop
  endfacet
  facet normal -0.500113 -0.86596 3.93171e-13
    outer loop
      vertex 14 7.75026 8.35026
      vertex 13.9998 7.75039 8.35053
      vertex 15.5155 6.875 0
    endloop
  endfacet
  facet normal -0.500113 -0.86596 0
    outer loop
      vertex 15.5155 6.875 8.35
      vertex 14 7.75026 8.35026
      vertex 15.5155 6.875 0
    endloop
  endfacet
  facet normal -1 -0.000130126 -0
    outer loop
      vertex 15.5158 5.12461 0
      vertex 15.5158 5.12461 8.35053
      vertex 15.5155 6.875 0
    endloop
  endfacet
  facet normal -1 -0.000130126 1.20409e-12
    outer loop
      vertex 15.5155 6.875 0
      vertex 15.5158 5.12461 8.35053
      vertex 15.5158 5.12487 8.35026
    endloop
  endfacet
  facet normal -1 -0.000130126 -0
    outer loop
      vertex 15.5155 6.875 0
      vertex 15.5158 5.12487 8.35026
      vertex 15.5155 6.875 8.35
    endloop
  endfacet
  facet normal -0.5 0.866025 0
    outer loop
      vertex 14.0002 4.24961 0
      vertex 14.0002 4.24961 8.35053
      vertex 15.5158 5.12461 0
    endloop
  endfacet
  facet normal -0.5 0.866025 0
    outer loop
      vertex 15.5158 5.12461 0
      vertex 14.0002 4.24961 8.35053
      vertex 15.5158 5.12461 8.35053
    endloop
  endfacet
  facet normal 0.629457 -0.777035 0
    outer loop
      vertex 20.3954 -6.8152 10.6
      vertex 20.3954 -6.8152 0
      vertex 21.7549 -5.71391 0
    endloop
  endfacet
  facet normal 0.629457 -0.777035 0
    outer loop
      vertex 21.7549 -5.71391 10.6
      vertex 20.3954 -6.8152 10.6
      vertex 21.7549 -5.71391 0
    endloop
  endfacet
  facet normal 0.987669 0.156558 -0
    outer loop
      vertex 20.6694 -8.54378 10.6
      vertex 20.6694 -8.54378 0
      vertex 20.3954 -6.8152 0
    endloop
  endfacet
  facet normal 0.987669 0.156558 -0
    outer loop
      vertex 20.3954 -6.8152 10.6
      vertex 20.6694 -8.54378 10.6
      vertex 20.3954 -6.8152 0
    endloop
  endfacet
  facet normal -0.358416 -0.933562 0
    outer loop
      vertex 21.7549 -5.71391 10.6
      vertex 21.7549 -5.71391 0
      vertex 23.3898 -6.34157 0
    endloop
  endfacet
  facet normal -0.358416 -0.933562 0
    outer loop
      vertex 23.3898 -6.34157 10.6
      vertex 21.7549 -5.71391 10.6
      vertex 23.3898 -6.34157 0
    endloop
  endfacet
  facet normal -0.987752 -0.156031 -0
    outer loop
      vertex 23.6629 -8.07065 0
      vertex 23.6629 -8.07065 10.6
      vertex 23.3898 -6.34157 0
    endloop
  endfacet
  facet normal -0.987752 -0.156031 -0
    outer loop
      vertex 23.3898 -6.34157 0
      vertex 23.6629 -8.07065 10.6
      vertex 23.3898 -6.34157 10.6
    endloop
  endfacet
  facet normal -0.629457 0.777035 0
    outer loop
      vertex 22.3034 -9.17195 0
      vertex 22.3034 -9.17195 10.6
      vertex 23.6629 -8.07065 0
    endloop
  endfacet
  facet normal -0.629457 0.777035 0
    outer loop
      vertex 23.6629 -8.07065 0
      vertex 22.3034 -9.17195 10.6
      vertex 23.6629 -8.07065 10.6
    endloop
  endfacet
  facet normal 0.35883 0.933403 0
    outer loop
      vertex 20.6694 -8.54378 0
      vertex 20.6694 -8.54378 10.6
      vertex 22.3034 -9.17195 0
    endloop
  endfacet
  facet normal 0.35883 0.933403 0
    outer loop
      vertex 22.3034 -9.17195 0
      vertex 20.6694 -8.54378 10.6
      vertex 22.3034 -9.17195 10.6
    endloop
  endfacet
  facet normal 0.377964 0.654654 0.654654
    outer loop
      vertex 14 4.24974 8.35026
      vertex 12.4845 5.125 8.35
      vertex 14 2 10.6
    endloop
  endfacet
  facet normal 0.377964 0.654654 0.654654
    outer loop
      vertex 14 2 10.6
      vertex 12.4845 5.125 8.35
      vertex 10.5359 4 10.6
    endloop
  endfacet
  facet normal -0.377964 0.654654 0.654654
    outer loop
      vertex 15.5158 5.12487 8.35026
      vertex 15.5158 5.12461 8.35053
      vertex 17.4641 4 10.6
    endloop
  endfacet
  facet normal -0.377964 0.654654 0.654654
    outer loop
      vertex 17.4641 4 10.6
      vertex 15.5158 5.12461 8.35053
      vertex 14.0002 4.24961 8.35053
    endloop
  endfacet
  facet normal -0.377964 0.654654 0.654654
    outer loop
      vertex 14.0002 4.24961 8.35053
      vertex 14 4.24974 8.35026
      vertex 14 2 10.6
    endloop
  endfacet
  facet normal -0.377964 0.654654 0.654654
    outer loop
      vertex 14.0002 4.24961 8.35053
      vertex 14 2 10.6
      vertex 17.4641 4 10.6
    endloop
  endfacet
  facet normal -0.755929 1.08795e-08 0.654654
    outer loop
      vertex 17.4641 8 10.6
      vertex 15.5155 6.875 8.35
      vertex 17.4641 4 10.6
    endloop
  endfacet
  facet normal -0.755929 1.08795e-08 0.654654
    outer loop
      vertex 17.4641 4 10.6
      vertex 15.5155 6.875 8.35
      vertex 15.5158 5.12487 8.35026
    endloop
  endfacet
  facet normal -0.377964 -0.654654 0.654654
    outer loop
      vertex 15.5155 6.875 8.35
      vertex 17.4641 8 10.6
      vertex 14 10 10.6
    endloop
  endfacet
  facet normal -0.377964 -0.654654 0.654654
    outer loop
      vertex 14 7.75026 8.35026
      vertex 15.5155 6.875 8.35
      vertex 14 10 10.6
    endloop
  endfacet
  facet normal 0.377964 -0.654654 0.654654
    outer loop
      vertex 14 10 10.6
      vertex 12.4842 6.87539 8.35053
      vertex 13.9998 7.75039 8.35053
    endloop
  endfacet
  facet normal 0.377964 -0.654654 0.654654
    outer loop
      vertex 12.4842 6.87513 8.35026
      vertex 12.4842 6.87539 8.35053
      vertex 10.5359 8 10.6
    endloop
  endfacet
  facet normal 0.377964 -0.654654 0.654654
    outer loop
      vertex 14 7.75026 8.35026
      vertex 14 10 10.6
      vertex 13.9998 7.75039 8.35053
    endloop
  endfacet
  facet normal 0.377964 -0.654654 0.654654
    outer loop
      vertex 14 10 10.6
      vertex 10.5359 8 10.6
      vertex 12.4842 6.87539 8.35053
    endloop
  endfacet
  facet normal 0.755929 -1.08795e-08 0.654654
    outer loop
      vertex 12.4845 5.125 8.35
      vertex 12.4842 6.87513 8.35026
      vertex 10.5359 8 10.6
    endloop
  endfacet
  facet normal 0.755929 -1.08795e-08 0.654654
    outer loop
      vertex 10.5359 4 10.6
      vertex 12.4845 5.125 8.35
      vertex 10.5359 8 10.6
    endloop
  endfacet
  facet normal -5.59248e-16 -2.38251e-17 -1
    outer loop
      vertex 5.62844 5.05997 7.03205
      vertex 4.00022 6.00013 7.03205
      vertex 2.19906 10.9998 7.03205
    endloop
  endfacet
  facet normal -1.29646e-21 1.77646e-16 -1
    outer loop
      vertex 2.19906 10.9998 7.03205
      vertex 4.00022 6.00013 7.03205
      vertex 3.9587 6.00013 7.03205
    endloop
  endfacet
  facet normal -9.00092e-22 1.77646e-16 -1
    outer loop
      vertex 2.19906 10.9998 7.03205
      vertex 3.9587 6.00013 7.03205
      vertex -0.0899669 10.9998 7.03205
    endloop
  endfacet
  facet normal -2.59292e-21 3.55291e-16 -1
    outer loop
      vertex 3.9587 6.00013 7.03205
      vertex 1.3852 6.00011 7.03205
      vertex -0.0899669 10.9998 7.03205
    endloop
  endfacet
  facet normal -1.80018e-21 3.55291e-16 -1
    outer loop
      vertex -0.0899669 10.9998 7.03205
      vertex 1.3852 6.00011 7.03205
      vertex -2.66348 10.9998 7.03205
    endloop
  endfacet
  facet normal 0.673028 0.545007 -0.5
    outer loop
      vertex -2.66348 10.9998 7.03205
      vertex 1.3852 6.00011 7.03205
      vertex 0.0984479 6.0001 5.3
    endloop
  endfacet
  facet normal 0.673028 0.545007 -0.5
    outer loop
      vertex -3.95023 10.9998 5.3
      vertex -2.66348 10.9998 7.03205
      vertex 0.0984479 6.0001 5.3
    endloop
  endfacet
  facet normal 0.673028 0.545007 0.5
    outer loop
      vertex 0.0984479 6.0001 5.3
      vertex 1.3852 6.00011 3.56795
      vertex -2.66348 10.9998 3.56795
    endloop
  endfacet
  facet normal 0.673028 0.545007 0.5
    outer loop
      vertex -3.95023 10.9998 5.3
      vertex 0.0984479 6.0001 5.3
      vertex -2.66348 10.9998 3.56795
    endloop
  endfacet
  facet normal 1.94469e-21 -2.66468e-16 1
    outer loop
      vertex 1.3852 6.00011 3.56795
      vertex 2.77624 6.00012 3.56795
      vertex -0.110336 10.9998 3.56795
    endloop
  endfacet
  facet normal 1.7394e-16 -2.14439e-16 1
    outer loop
      vertex -2.66348 10.9998 3.56795
      vertex 1.3852 6.00011 3.56795
      vertex -0.110336 10.9998 3.56795
    endloop
  endfacet
  facet normal -1.94275e-16 -3.36458e-16 1
    outer loop
      vertex 4.00022 6.00013 3.56795
      vertex 5.62844 5.05997 3.56795
      vertex 2.19906 10.9998 3.56795
    endloop
  endfacet
  facet normal 3.62825e-16 -5.69923e-17 1
    outer loop
      vertex 2.77624 6.00012 3.56795
      vertex 4.00022 6.00013 3.56795
      vertex -0.110336 10.9998 3.56795
    endloop
  endfacet
  facet normal 1.92298e-16 -1.97193e-16 1
    outer loop
      vertex -0.110336 10.9998 3.56795
      vertex 4.00022 6.00013 3.56795
      vertex 2.19906 10.9998 3.56795
    endloop
  endfacet
  facet normal 0.866025 0 0.5
    outer loop
      vertex -13.3333 6 1.25855
      vertex -13.3333 8 1.25855
      vertex -15.6667 8 5.3
    endloop
  endfacet
  facet normal 0.866025 0 0.5
    outer loop
      vertex -15.6667 5.99998 5.3
      vertex -13.3333 6 1.25855
      vertex -15.6667 8 5.3
    endloop
  endfacet
  facet normal 0 0 1
    outer loop
      vertex -8.66667 6.00003 1.25855
      vertex -8.66667 8 1.25855
      vertex -13.3333 8 1.25855
    endloop
  endfacet
  facet normal 0 0 1
    outer loop
      vertex -13.3333 6 1.25855
      vertex -8.66667 6.00003 1.25855
      vertex -13.3333 8 1.25855
    endloop
  endfacet
  facet normal -0.866025 0 0.5
    outer loop
      vertex -6.33333 8 5.3
      vertex -8.66667 8 1.25855
      vertex -6.33333 6.00005 5.3
    endloop
  endfacet
  facet normal -0.866025 0 0.5
    outer loop
      vertex -6.33333 6.00005 5.3
      vertex -8.66667 8 1.25855
      vertex -8.66667 6.00003 1.25855
    endloop
  endfacet
  facet normal -0.866025 0 -0.5
    outer loop
      vertex -6.33333 8 5.3
      vertex -6.33333 6.00005 5.3
      vertex -8.66667 8 9.34145
    endloop
  endfacet
  facet normal -0.866025 0 -0.5
    outer loop
      vertex -8.66667 8 9.34145
      vertex -6.33333 6.00005 5.3
      vertex -8.66667 6.00003 9.34145
    endloop
  endfacet
  facet normal 0 0 -1
    outer loop
      vertex -8.66667 8 9.34145
      vertex -8.66667 6.00003 9.34145
      vertex -13.3333 8 9.34145
    endloop
  endfacet
  facet normal 0 0 -1
    outer loop
      vertex -13.3333 8 9.34145
      vertex -8.66667 6.00003 9.34145
      vertex -13.3333 6 9.34145
    endloop
  endfacet
  facet normal 0.866025 0 -0.5
    outer loop
      vertex -15.6667 8 5.3
      vertex -13.3333 8 9.34145
      vertex -13.3333 6 9.34145
    endloop
  endfacet
  facet normal 0.866025 0 -0.5
    outer loop
      vertex -15.6667 5.99998 5.3
      vertex -15.6667 8 5.3
      vertex -13.3333 6 9.34145
    endloop
  endfacet
  facet normal -0.75 -0.433013 0.5
    outer loop
      vertex 3.35376 10.9998 5.3
      vertex 2.19906 10.9998 3.56795
      vertex 7.36058 4.05981 5.3
    endloop
  endfacet
  facet normal -0.75 -0.433013 0.5
    outer loop
      vertex 7.36058 4.05981 5.3
      vertex 2.19906 10.9998 3.56795
      vertex 5.62844 5.05997 3.56795
    endloop
  endfacet
  facet normal -0.75 -0.433013 -0.5
    outer loop
      vertex 3.35376 10.9998 5.3
      vertex 7.36058 4.05981 5.3
      vertex 2.19906 10.9998 7.03205
    endloop
  endfacet
  facet normal -0.75 -0.433013 -0.5
    outer loop
      vertex 2.19906 10.9998 7.03205
      vertex 7.36058 4.05981 5.3
      vertex 5.62844 5.05997 7.03205
    endloop
  endfacet
  facet normal 0.530814 0.847488 -0
    outer loop
      vertex 19.7255 -12.9833 7.8
      vertex 19.7255 -12.9833 2.8
      vertex 18.8812 -12.4545 7.8
    endloop
  endfacet
  facet normal 0.530814 0.847488 -0
    outer loop
      vertex 18.8812 -12.4545 7.8
      vertex 19.7255 -12.9833 2.8
      vertex 18.8812 -12.4545 2.8
    endloop
  endfacet
  facet normal -0 0 -1
    outer loop
      vertex 16.0931 -6.57009 7.8
      vertex 16.6982 -4.6891 7.8
      vertex 16.114 -7.66149 7.8
    endloop
  endfacet
  facet normal 0 0 -1
    outer loop
      vertex 16.114 -7.66149 7.8
      vertex 16.6982 -4.6891 7.8
      vertex 17.8812 -3.10703 7.8
    endloop
  endfacet
  facet normal 0 0 -1
    outer loop
      vertex 16.114 -7.66149 7.8
      vertex 17.8812 -3.10703 7.8
      vertex 19.5138 -1.99598 7.8
    endloop
  endfacet
  facet normal 0 0 -1
    outer loop
      vertex 16.114 -7.66149 7.8
      vertex 19.5138 -1.99598 7.8
      vertex 21.4187 -1.47382 7.8
    endloop
  endfacet
  facet normal 0 0 -1
    outer loop
      vertex 16.114 -7.66149 7.8
      vertex 21.4187 -1.47382 7.8
      vertex 23.3899 -1.59924 7.8
    endloop
  endfacet
  facet normal 0 0 -1
    outer loop
      vertex 16.114 -7.66149 7.8
      vertex 23.3899 -1.59924 7.8
      vertex 24.4045 -2.02113 7.8
    endloop
  endfacet
  facet normal -0 0 -1
    outer loop
      vertex 23.8166 -5.99542 7.8
      vertex 24.4045 -2.02113 7.8
      vertex 27.5801 -7.52147 7.8
    endloop
  endfacet
  facet normal 0 0 -1
    outer loop
      vertex 24.1765 -8.26721 7.8
      vertex 27.8727 -8.384 7.8
      vertex 27.7409 -9.28103 7.8
    endloop
  endfacet
  facet normal 0 0 -1
    outer loop
      vertex 23.8166 -5.99542 7.8
      vertex 27.8727 -8.384 7.8
      vertex 24.1765 -8.26721 7.8
    endloop
  endfacet
  facet normal 0 0 -1
    outer loop
      vertex 22.3891 -9.71465 7.8
      vertex 26.8341 -11.0357 7.8
      vertex 25.4079 -12.4017 7.8
    endloop
  endfacet
  facet normal 0 0 -1
    outer loop
      vertex 16.114 -7.66149 7.8
      vertex 25.4079 -12.4017 7.8
      vertex 23.6144 -13.2299 7.8
    endloop
  endfacet
  facet normal 0 0 -1
    outer loop
      vertex 16.114 -7.66149 7.8
      vertex 23.6144 -13.2299 7.8
      vertex 21.6487 -13.4307 7.8
    endloop
  endfacet
  facet normal 0 0 -1
    outer loop
      vertex 16.114 -7.66149 7.8
      vertex 21.6487 -13.4307 7.8
      vertex 19.7255 -12.9833 7.8
    endloop
  endfacet
  facet normal 0 0 -1
    outer loop
      vertex 16.114 -7.66149 7.8
      vertex 19.7255 -12.9833 7.8
      vertex 18.8812 -12.4545 7.8
    endloop
  endfacet
  facet normal 0 0 -1
    outer loop
      vertex 22.3891 -9.71465 7.8
      vertex 16.114 -7.66149 7.8
      vertex 20.2418 -8.89029 7.8
    endloop
  endfacet
  facet normal 0 0 -1
    outer loop
      vertex 24.1765 -8.26721 7.8
      vertex 26.8341 -11.0357 7.8
      vertex 22.3891 -9.71465 7.8
    endloop
  endfacet
  facet normal 0 0 -1
    outer loop
      vertex 24.1765 -8.26721 7.8
      vertex 27.7409 -9.28103 7.8
      vertex 26.8341 -11.0357 7.8
    endloop
  endfacet
  facet normal 0 0 -1
    outer loop
      vertex 16.114 -7.66149 7.8
      vertex 22.3891 -9.71465 7.8
      vertex 25.4079 -12.4017 7.8
    endloop
  endfacet
  facet normal -0 0 -1
    outer loop
      vertex 21.6693 -5.17106 7.8
      vertex 24.4045 -2.02113 7.8
      vertex 23.8166 -5.99542 7.8
    endloop
  endfacet
  facet normal 0 0 -1
    outer loop
      vertex 16.114 -7.66149 7.8
      vertex 24.4045 -2.02113 7.8
      vertex 21.6693 -5.17106 7.8
    endloop
  endfacet
  facet normal 0 0 -1
    outer loop
      vertex 16.114 -7.66149 7.8
      vertex 21.6693 -5.17106 7.8
      vertex 19.8819 -6.6185 7.8
    endloop
  endfacet
  facet normal 0 0 -1
    outer loop
      vertex 20.2418 -8.89029 7.8
      vertex 16.114 -7.66149 7.8
      vertex 19.8819 -6.6185 7.8
    endloop
  endfacet
  facet normal 0 0 -1
    outer loop
      vertex 23.8166 -5.99542 7.8
      vertex 27.5801 -7.52147 7.8
      vertex 27.8727 -8.384 7.8
    endloop
  endfacet
  facet normal 0.999817 0.0191455 0
    outer loop
      vertex 16.0931 -6.57009 2.8
      vertex 16.0931 -6.57009 7.8
      vertex 16.114 -7.66149 7.8
    endloop
  endfacet
  facet normal 0.999817 0.0191455 -8.15864e-17
    outer loop
      vertex 16.1092 -7.41553 5.3
      vertex 16.0931 -6.57009 2.8
      vertex 16.114 -7.66149 7.8
    endloop
  endfacet
  facet normal 0.999817 0.0191455 0
    outer loop
      vertex 16.114 -7.66149 5.56175
      vertex 16.1092 -7.41553 5.3
      vertex 16.114 -7.66149 7.8
    endloop
  endfacet
  facet normal 0.999817 0.0191455 0
    outer loop
      vertex 16.114 -7.66149 2.8
      vertex 16.0931 -6.57009 2.8
      vertex 16.114 -7.66149 5.03825
    endloop
  endfacet
  facet normal 0.999817 0.0191455 1.46231e-16
    outer loop
      vertex 16.1092 -7.41553 5.3
      vertex 16.114 -7.66149 5.03825
      vertex 16.0931 -6.57009 2.8
    endloop
  endfacet
  facet normal -0.673028 -0.545007 -0.5
    outer loop
      vertex 15.6309 -6.82486 5.3
      vertex 16.1092 -7.41553 5.3
      vertex 16.114 -7.66149 5.56175
    endloop
  endfacet
  facet normal -0.673028 -0.545007 0.5
    outer loop
      vertex 16.1092 -7.41553 5.3
      vertex 15.6309 -6.82486 5.3
      vertex 16.114 -7.66149 5.03825
    endloop
  endfacet
  facet normal 0 0 1
    outer loop
      vertex 19.7255 -12.9833 2.8
      vertex 21.6487 -13.4307 2.8
      vertex 23.6144 -13.2299 2.8
    endloop
  endfacet
  facet normal 0 0 1
    outer loop
      vertex 26.8341 -11.0357 2.8
      vertex 19.7255 -12.9833 2.8
      vertex 25.4079 -12.4017 2.8
    endloop
  endfacet
  facet normal 0 0 1
    outer loop
      vertex 25.4079 -12.4017 2.8
      vertex 19.7255 -12.9833 2.8
      vertex 23.6144 -13.2299 2.8
    endloop
  endfacet
  facet normal 0 0 1
    outer loop
      vertex 27.7409 -9.28103 2.8
      vertex 19.7255 -12.9833 2.8
      vertex 26.8341 -11.0357 2.8
    endloop
  endfacet
  facet normal 0 0 1
    outer loop
      vertex 27.8727 -8.384 2.8
      vertex 19.7255 -12.9833 2.8
      vertex 27.7409 -9.28103 2.8
    endloop
  endfacet
  facet normal 0 -0 1
    outer loop
      vertex 27.5801 -7.52147 2.8
      vertex 19.7255 -12.9833 2.8
      vertex 27.8727 -8.384 2.8
    endloop
  endfacet
  facet normal 0 -0 1
    outer loop
      vertex 24.1765 -8.26721 2.8
      vertex 19.7255 -12.9833 2.8
      vertex 27.5801 -7.52147 2.8
    endloop
  endfacet
  facet normal -0 0 1
    outer loop
      vertex 22.3891 -9.71465 2.8
      vertex 20.2418 -8.89029 2.8
      vertex 19.7255 -12.9833 2.8
    endloop
  endfacet
  facet normal 0 0 1
    outer loop
      vertex 21.6693 -5.17106 2.8
      vertex 24.4045 -2.02113 2.8
      vertex 23.3899 -1.59924 2.8
    endloop
  endfacet
  facet normal 0 0 1
    outer loop
      vertex 17.8812 -3.10703 2.8
      vertex 19.7255 -12.9833 2.8
      vertex 19.5138 -1.99598 2.8
    endloop
  endfacet
  facet normal 0 0 1
    outer loop
      vertex 16.6982 -4.6891 2.8
      vertex 19.7255 -12.9833 2.8
      vertex 17.8812 -3.10703 2.8
    endloop
  endfacet
  facet normal 0 0 1
    outer loop
      vertex 16.0931 -6.57009 2.8
      vertex 19.7255 -12.9833 2.8
      vertex 16.6982 -4.6891 2.8
    endloop
  endfacet
  facet normal 0 0 1
    outer loop
      vertex 16.114 -7.66149 2.8
      vertex 19.7255 -12.9833 2.8
      vertex 16.0931 -6.57009 2.8
    endloop
  endfacet
  facet normal 0 0 1
    outer loop
      vertex 18.8812 -12.4545 2.8
      vertex 19.7255 -12.9833 2.8
      vertex 16.114 -7.66149 2.8
    endloop
  endfacet
  facet normal 0 0 1
    outer loop
      vertex 19.5138 -1.99598 2.8
      vertex 19.8819 -6.6185 2.8
      vertex 21.4187 -1.47382 2.8
    endloop
  endfacet
  facet normal 0 0 1
    outer loop
      vertex 19.5138 -1.99598 2.8
      vertex 19.7255 -12.9833 2.8
      vertex 19.8819 -6.6185 2.8
    endloop
  endfacet
  facet normal 0 0 1
    outer loop
      vertex 21.4187 -1.47382 2.8
      vertex 21.6693 -5.17106 2.8
      vertex 23.3899 -1.59924 2.8
    endloop
  endfacet
  facet normal 0 -0 1
    outer loop
      vertex 24.4045 -2.02113 2.8
      vertex 23.8166 -5.99542 2.8
      vertex 27.5801 -7.52147 2.8
    endloop
  endfacet
  facet normal 0 0 1
    outer loop
      vertex 23.8166 -5.99542 2.8
      vertex 24.1765 -8.26721 2.8
      vertex 27.5801 -7.52147 2.8
    endloop
  endfacet
  facet normal 0 -0 1
    outer loop
      vertex 22.3891 -9.71465 2.8
      vertex 19.7255 -12.9833 2.8
      vertex 24.1765 -8.26721 2.8
    endloop
  endfacet
  facet normal 0 0 1
    outer loop
      vertex 21.6693 -5.17106 2.8
      vertex 23.8166 -5.99542 2.8
      vertex 24.4045 -2.02113 2.8
    endloop
  endfacet
  facet normal 0 -0 1
    outer loop
      vertex 19.8819 -6.6185 2.8
      vertex 19.7255 -12.9833 2.8
      vertex 20.2418 -8.89029 2.8
    endloop
  endfacet
  facet normal 0 0 1
    outer loop
      vertex 19.8819 -6.6185 2.8
      vertex 21.6693 -5.17106 2.8
      vertex 21.4187 -1.47382 2.8
    endloop
  endfacet
  facet normal -0.989375 0.145383 0
    outer loop
      vertex 27.8727 -8.384 7.8
      vertex 27.8727 -8.384 2.8
      vertex 27.7409 -9.28103 7.8
    endloop
  endfacet
  facet normal -0.989375 0.145383 0
    outer loop
      vertex 27.7409 -9.28103 7.8
      vertex 27.8727 -8.384 2.8
      vertex 27.7409 -9.28103 2.8
    endloop
  endfacet
  facet normal -0.383963 -0.923348 -0
    outer loop
      vertex 24.4045 -2.02113 2.8
      vertex 24.4045 -2.02113 7.8
      vertex 23.3899 -1.59924 7.8
    endloop
  endfacet
  facet normal -0.383963 -0.923348 -0
    outer loop
      vertex 23.3899 -1.59924 2.8
      vertex 24.4045 -2.02113 2.8
      vertex 23.3899 -1.59924 7.8
    endloop
  endfacet
  facet normal -0 -1 0
    outer loop
      vertex -13.3333 8 1.25855
      vertex -8.66667 8 1.25855
      vertex -6.33333 8 5.3
    endloop
  endfacet
  facet normal 0 -1 0
    outer loop
      vertex -13.3333 8 9.34145
      vertex -13.3333 8 1.25855
      vertex -8.66667 8 9.34145
    endloop
  endfacet
  facet normal 0 -1 0
    outer loop
      vertex -8.66667 8 9.34145
      vertex -13.3333 8 1.25855
      vertex -6.33333 8 5.3
    endloop
  endfacet
  facet normal -0 -1 0
    outer loop
      vertex -15.6667 8 5.3
      vertex -13.3333 8 1.25855
      vertex -13.3333 8 9.34145
    endloop
  endfacet
  facet normal 0.226601 0.973988 -0
    outer loop
      vertex 21.6487 -13.4307 7.8
      vertex 21.6487 -13.4307 2.8
      vertex 19.7255 -12.9833 7.8
    endloop
  endfacet
  facet normal 0.226601 0.973988 -0
    outer loop
      vertex 19.7255 -12.9833 7.8
      vertex 21.6487 -13.4307 2.8
      vertex 19.7255 -12.9833 2.8
    endloop
  endfacet
  facet normal -0.101624 0.994823 0
    outer loop
      vertex 23.6144 -13.2299 7.8
      vertex 23.6144 -13.2299 2.8
      vertex 21.6487 -13.4307 7.8
    endloop
  endfacet
  facet normal -0.101624 0.994823 0
    outer loop
      vertex 21.6487 -13.4307 7.8
      vertex 23.6144 -13.2299 2.8
      vertex 21.6487 -13.4307 2.8
    endloop
  endfacet
  facet normal -0.41926 0.907866 0
    outer loop
      vertex 25.4079 -12.4017 7.8
      vertex 25.4079 -12.4017 2.8
      vertex 23.6144 -13.2299 7.8
    endloop
  endfacet
  facet normal -0.41926 0.907866 0
    outer loop
      vertex 23.6144 -13.2299 7.8
      vertex 25.4079 -12.4017 2.8
      vertex 23.6144 -13.2299 2.8
    endloop
  endfacet
  facet normal -0.691685 0.722199 0
    outer loop
      vertex 26.8341 -11.0357 7.8
      vertex 26.8341 -11.0357 2.8
      vertex 25.4079 -12.4017 7.8
    endloop
  endfacet
  facet normal -0.691685 0.722199 0
    outer loop
      vertex 25.4079 -12.4017 7.8
      vertex 26.8341 -11.0357 2.8
      vertex 25.4079 -12.4017 2.8
    endloop
  endfacet
  facet normal -0.888384 0.459101 0
    outer loop
      vertex 27.7409 -9.28103 7.8
      vertex 27.7409 -9.28103 2.8
      vertex 26.8341 -11.0357 7.8
    endloop
  endfacet
  facet normal -0.888384 0.459101 0
    outer loop
      vertex 26.8341 -11.0357 7.8
      vertex 27.7409 -9.28103 2.8
      vertex 26.8341 -11.0357 2.8
    endloop
  endfacet
  facet normal -0.0634964 -0.997982 -0
    outer loop
      vertex 23.3899 -1.59924 2.8
      vertex 23.3899 -1.59924 7.8
      vertex 21.4187 -1.47382 7.8
    endloop
  endfacet
  facet normal -0.0634964 -0.997982 -0
    outer loop
      vertex 21.4187 -1.47382 2.8
      vertex 23.3899 -1.59924 2.8
      vertex 21.4187 -1.47382 7.8
    endloop
  endfacet
  facet normal 0.264363 -0.964423 0
    outer loop
      vertex 21.4187 -1.47382 2.8
      vertex 21.4187 -1.47382 7.8
      vertex 19.5138 -1.99598 7.8
    endloop
  endfacet
  facet normal 0.264363 -0.964423 0
    outer loop
      vertex 19.5138 -1.99598 2.8
      vertex 21.4187 -1.47382 2.8
      vertex 19.5138 -1.99598 7.8
    endloop
  endfacet
  facet normal 0.562608 -0.826724 0
    outer loop
      vertex 19.5138 -1.99598 2.8
      vertex 19.5138 -1.99598 7.8
      vertex 17.8812 -3.10703 7.8
    endloop
  endfacet
  facet normal 0.562608 -0.826724 0
    outer loop
      vertex 17.8812 -3.10703 2.8
      vertex 19.5138 -1.99598 2.8
      vertex 17.8812 -3.10703 7.8
    endloop
  endfacet
  facet normal 0.800858 -0.598854 0
    outer loop
      vertex 17.8812 -3.10703 2.8
      vertex 17.8812 -3.10703 7.8
      vertex 16.6982 -4.6891 7.8
    endloop
  endfacet
  facet normal 0.800858 -0.598854 0
    outer loop
      vertex 16.6982 -4.6891 2.8
      vertex 17.8812 -3.10703 2.8
      vertex 16.6982 -4.6891 7.8
    endloop
  endfacet
  facet normal 0.951955 -0.306238 0
    outer loop
      vertex 16.6982 -4.6891 2.8
      vertex 16.6982 -4.6891 7.8
      vertex 16.0931 -6.57009 7.8
    endloop
  endfacet
  facet normal 0.951955 -0.306238 0
    outer loop
      vertex 16.0931 -6.57009 2.8
      vertex 16.6982 -4.6891 2.8
      vertex 16.0931 -6.57009 7.8
    endloop
  endfacet
  facet normal -0.358397 -0.933569 -0
    outer loop
      vertex 22.3891 -9.71465 2.8
      vertex 22.3891 -9.71465 7.8
      vertex 20.2418 -8.89029 7.8
    endloop
  endfacet
  facet normal -0.358397 -0.933569 -0
    outer loop
      vertex 20.2418 -8.89029 2.8
      vertex 22.3891 -9.71465 2.8
      vertex 20.2418 -8.89029 7.8
    endloop
  endfacet
  facet normal -0.987684 -0.156465 0
    outer loop
      vertex 19.8819 -6.6185 7.8
      vertex 19.8819 -6.6185 2.8
      vertex 20.2418 -8.89029 7.8
    endloop
  endfacet
  facet normal -0.987684 -0.156465 0
    outer loop
      vertex 20.2418 -8.89029 7.8
      vertex 19.8819 -6.6185 2.8
      vertex 20.2418 -8.89029 2.8
    endloop
  endfacet
  facet normal -0.62932 0.777146 0
    outer loop
      vertex 21.6693 -5.17106 7.8
      vertex 21.6693 -5.17106 2.8
      vertex 19.8819 -6.6185 7.8
    endloop
  endfacet
  facet normal -0.62932 0.777146 0
    outer loop
      vertex 19.8819 -6.6185 7.8
      vertex 21.6693 -5.17106 2.8
      vertex 19.8819 -6.6185 2.8
    endloop
  endfacet
  facet normal 0.358397 0.933569 -0
    outer loop
      vertex 23.8166 -5.99542 7.8
      vertex 23.8166 -5.99542 2.8
      vertex 21.6693 -5.17106 7.8
    endloop
  endfacet
  facet normal 0.358397 0.933569 -0
    outer loop
      vertex 21.6693 -5.17106 7.8
      vertex 23.8166 -5.99542 2.8
      vertex 21.6693 -5.17106 2.8
    endloop
  endfacet
  facet normal 0.987684 0.156465 0
    outer loop
      vertex 23.8166 -5.99542 2.8
      vertex 23.8166 -5.99542 7.8
      vertex 24.1765 -8.26721 7.8
    endloop
  endfacet
  facet normal 0.987684 0.156465 0
    outer loop
      vertex 24.1765 -8.26721 2.8
      vertex 23.8166 -5.99542 2.8
      vertex 24.1765 -8.26721 7.8
    endloop
  endfacet
  facet normal 0.62932 -0.777146 0
    outer loop
      vertex 24.1765 -8.26721 2.8
      vertex 24.1765 -8.26721 7.8
      vertex 22.3891 -9.71465 7.8
    endloop
  endfacet
  facet normal 0.62932 -0.777146 0
    outer loop
      vertex 22.3891 -9.71465 2.8
      vertex 24.1765 -8.26721 2.8
      vertex 22.3891 -9.71465 7.8
    endloop
  endfacet
endsolid OpenSCAD_Model
