solid OpenSCAD_Model
  facet normal 0 0 -1
    outer loop
      vertex -1.20496 -22.8415 0
      vertex -7.36249 -18.5955 0
      vertex -6.18034 -19.0211 0
    endloop
  endfacet
  facet normal -0 -0 -1
    outer loop
      vertex 1.20496 -22.8415 0
      vertex -2.50666 -19.8423 0
      vertex 13.0112 -31.4119 0
    endloop
  endfacet
  facet normal 0 0 -1
    outer loop
      vertex -2.50666 -19.8423 0
      vertex -1.25581 -19.9605 0
      vertex 13.0112 -31.4119 0
    endloop
  endfacet
  facet normal 0 0 -1
    outer loop
      vertex -1.25581 -19.9605 0
      vertex 0 -20 0
      vertex 13.0112 -31.4119 0
    endloop
  endfacet
  facet normal -0 0 -1
    outer loop
      vertex 0 -20 0
      vertex 1.25581 -19.9605 0
      vertex 13.0112 -31.4119 0
    endloop
  endfacet
  facet normal -0 0 -1
    outer loop
      vertex 1.25581 -19.9605 0
      vertex 2.50667 -19.8423 0
      vertex 13.0112 -31.4119 0
    endloop
  endfacet
  facet normal -0 0 -1
    outer loop
      vertex 2.50667 -19.8423 0
      vertex 3.74763 -19.6457 0
      vertex 13.0112 -31.4119 0
    endloop
  endfacet
  facet normal -0 0 -1
    outer loop
      vertex 3.74763 -19.6457 0
      vertex 4.9738 -19.3717 0
      vertex 13.0112 -31.4119 0
    endloop
  endfacet
  facet normal -0 0 -1
    outer loop
      vertex 4.9738 -19.3717 0
      vertex 6.18034 -19.0211 0
      vertex 13.0112 -31.4119 0
    endloop
  endfacet
  facet normal -0 0 -1
    outer loop
      vertex 6.18034 -19.0211 0
      vertex 7.36249 -18.5955 0
      vertex 13.0112 -31.4119 0
    endloop
  endfacet
  facet normal -0 0 -1
    outer loop
      vertex 7.36249 -18.5955 0
      vertex 8.51559 -18.0965 0
      vertex 13.0112 -31.4119 0
    endloop
  endfacet
  facet normal -0 0 -1
    outer loop
      vertex 8.51559 -18.0965 0
      vertex 9.63507 -17.5261 0
      vertex 13.0112 -31.4119 0
    endloop
  endfacet
  facet normal -0 0 -1
    outer loop
      vertex 9.63507 -17.5261 0
      vertex 10.7165 -16.8866 0
      vertex 13.0112 -31.4119 0
    endloop
  endfacet
  facet normal -0 0 -1
    outer loop
      vertex 10.7165 -16.8866 0
      vertex 11.7557 -16.1803 0
      vertex 13.0112 -31.4119 0
    endloop
  endfacet
  facet normal -0 0 -1
    outer loop
      vertex 11.7557 -16.1803 0
      vertex 12.7485 -15.4103 0
      vertex 13.0112 -31.4119 0
    endloop
  endfacet
  facet normal -0 0 -1
    outer loop
      vertex 12.7485 -15.4103 0
      vertex 13.6909 -14.5794 0
      vertex 13.0112 -31.4119 0
    endloop
  endfacet
  facet normal -0 0 -1
    outer loop
      vertex 13.6909 -14.5794 0
      vertex 14.5794 -13.6909 0
      vertex 13.0112 -31.4119 0
    endloop
  endfacet
  facet normal -0 0 -1
    outer loop
      vertex 14.5794 -13.6909 0
      vertex 15.4103 -12.7485 0
      vertex 13.0112 -31.4119 0
    endloop
  endfacet
  facet normal -0 0 -1
    outer loop
      vertex 15.4103 -12.7485 0
      vertex 16.1803 -11.7557 0
      vertex 13.0112 -31.4119 0
    endloop
  endfacet
  facet normal -0 0 -1
    outer loop
      vertex 16.1803 -11.7557 0
      vertex 16.8866 -10.7165 0
      vertex 13.0112 -31.4119 0
    endloop
  endfacet
  facet normal -0 0 -1
    outer loop
      vertex 16.8866 -10.7165 0
      vertex 17.5261 -9.63507 0
      vertex 13.0112 -31.4119 0
    endloop
  endfacet
  facet normal -0 0 -1
    outer loop
      vertex 17.5261 -9.63507 0
      vertex 18.0965 -8.51559 0
      vertex 13.0112 -31.4119 0
    endloop
  endfacet
  facet normal -0 0 -1
    outer loop
      vertex 18.0965 -8.51559 0
      vertex 18.5955 -7.36249 0
      vertex 13.0112 -31.4119 0
    endloop
  endfacet
  facet normal -0 0 -1
    outer loop
      vertex 18.5955 -7.36249 0
      vertex 19.0211 -6.18034 0
      vertex 13.0112 -31.4119 0
    endloop
  endfacet
  facet normal -0 0 -1
    outer loop
      vertex 19.0211 -6.18034 0
      vertex 19.3717 -4.9738 0
      vertex 13.0112 -31.4119 0
    endloop
  endfacet
  facet normal -0 0 -1
    outer loop
      vertex 19.3717 -4.9738 0
      vertex 31.4119 13.0112 0
      vertex 13.0112 -31.4119 0
    endloop
  endfacet
  facet normal -0 0 -1
    outer loop
      vertex 19.6457 -3.74763 0
      vertex 31.4119 13.0112 0
      vertex 19.3717 -4.9738 0
    endloop
  endfacet
  facet normal -0 0 -1
    outer loop
      vertex 19.8423 -2.50666 0
      vertex 31.4119 13.0112 0
      vertex 19.6457 -3.74763 0
    endloop
  endfacet
  facet normal -0 0 -1
    outer loop
      vertex 19.9605 -1.25581 0
      vertex 31.4119 13.0112 0
      vertex 19.8423 -2.50666 0
    endloop
  endfacet
  facet normal -0 0 -1
    outer loop
      vertex 20 0 0
      vertex 31.4119 13.0112 0
      vertex 19.9605 -1.25581 0
    endloop
  endfacet
  facet normal -0 0 -1
    outer loop
      vertex 19.9605 1.25581 0
      vertex 31.4119 13.0112 0
      vertex 20 0 0
    endloop
  endfacet
  facet normal -0 0 -1
    outer loop
      vertex 19.8423 2.50667 0
      vertex 31.4119 13.0112 0
      vertex 19.9605 1.25581 0
    endloop
  endfacet
  facet normal -0 0 -1
    outer loop
      vertex 19.6457 3.74763 0
      vertex 31.4119 13.0112 0
      vertex 19.8423 2.50667 0
    endloop
  endfacet
  facet normal -0 -0 -1
    outer loop
      vertex 19.0211 6.18034 0
      vertex 13.0112 31.4119 0
      vertex 19.3717 4.9738 0
    endloop
  endfacet
  facet normal -0 -0 -1
    outer loop
      vertex 18.5955 7.36249 0
      vertex 13.0112 31.4119 0
      vertex 19.0211 6.18034 0
    endloop
  endfacet
  facet normal -0 -0 -1
    outer loop
      vertex 18.0965 8.51559 0
      vertex 13.0112 31.4119 0
      vertex 18.5955 7.36249 0
    endloop
  endfacet
  facet normal -0 -0 -1
    outer loop
      vertex 17.5261 9.63507 0
      vertex 13.0112 31.4119 0
      vertex 18.0965 8.51559 0
    endloop
  endfacet
  facet normal -0 -0 -1
    outer loop
      vertex 16.8866 10.7165 0
      vertex 13.0112 31.4119 0
      vertex 17.5261 9.63507 0
    endloop
  endfacet
  facet normal -0 -0 -1
    outer loop
      vertex 16.1803 11.7557 0
      vertex 13.0112 31.4119 0
      vertex 16.8866 10.7165 0
    endloop
  endfacet
  facet normal -0 -0 -1
    outer loop
      vertex 15.4103 12.7485 0
      vertex 13.0112 31.4119 0
      vertex 16.1803 11.7557 0
    endloop
  endfacet
  facet normal -0 -0 -1
    outer loop
      vertex 14.5794 13.6909 0
      vertex 13.0112 31.4119 0
      vertex 15.4103 12.7485 0
    endloop
  endfacet
  facet normal -0 -0 -1
    outer loop
      vertex 13.6909 14.5794 0
      vertex 13.0112 31.4119 0
      vertex 14.5794 13.6909 0
    endloop
  endfacet
  facet normal -0 0 -1
    outer loop
      vertex 12.7485 15.4103 0
      vertex 13.0112 31.4119 0
      vertex 13.6909 14.5794 0
    endloop
  endfacet
  facet normal 0 0 -1
    outer loop
      vertex 1.94967 23.8665 0
      vertex 10.7165 16.8866 0
      vertex 9.63507 17.5261 0
    endloop
  endfacet
  facet normal 0 0 -1
    outer loop
      vertex 1.65848 23.295 0
      vertex 6.18034 19.0211 0
      vertex 1.20496 22.8415 0
    endloop
  endfacet
  facet normal 0 0 -1
    outer loop
      vertex 0 22.45 0
      vertex 1.25581 19.9605 0
      vertex -0.633485 22.5503 0
    endloop
  endfacet
  facet normal 0 -0 -1
    outer loop
      vertex -1.25581 19.9605 0
      vertex -8.5 31.4119 0
      vertex 0 20 0
    endloop
  endfacet
  facet normal 0 -0 -1
    outer loop
      vertex -2.50667 19.8423 0
      vertex -8.5 31.4119 0
      vertex -1.25581 19.9605 0
    endloop
  endfacet
  facet normal 0 -0 -1
    outer loop
      vertex -3.74763 19.6457 0
      vertex -8.5 31.4119 0
      vertex -2.50667 19.8423 0
    endloop
  endfacet
  facet normal 0 -0 -1
    outer loop
      vertex -4.9738 19.3717 0
      vertex -8.5 31.4119 0
      vertex -3.74763 19.6457 0
    endloop
  endfacet
  facet normal 0 -0 -1
    outer loop
      vertex -6.18034 19.0211 0
      vertex -8.5 31.4119 0
      vertex -4.9738 19.3717 0
    endloop
  endfacet
  facet normal 0 0 -1
    outer loop
      vertex -7.36249 18.5955 0
      vertex -8.5 18.1033 0
      vertex -8.5 31.4119 0
    endloop
  endfacet
  facet normal 0 -0 -1
    outer loop
      vertex -7.36249 18.5955 0
      vertex -8.5 31.4119 0
      vertex -6.18034 19.0211 0
    endloop
  endfacet
  facet normal 0 -0 -1
    outer loop
      vertex 1.20496 26.1585 0
      vertex -8.5 31.4119 0
      vertex 13.0112 31.4119 0
    endloop
  endfacet
  facet normal -0 0 -1
    outer loop
      vertex 11.7557 16.1803 0
      vertex 13.0112 31.4119 0
      vertex 12.7485 15.4103 0
    endloop
  endfacet
  facet normal 0 -0 -1
    outer loop
      vertex 19.3717 4.9738 0
      vertex 13.0112 31.4119 0
      vertex 31.4119 13.0112 0
    endloop
  endfacet
  facet normal -0 0 -1
    outer loop
      vertex 19.3717 4.9738 0
      vertex 31.4119 13.0112 0
      vertex 19.6457 3.74763 0
    endloop
  endfacet
  facet normal 0 0 -1
    outer loop
      vertex 13.0112 -31.4119 0
      vertex 31.4119 13.0112 0
      vertex 31.4119 -13.0112 0
    endloop
  endfacet
  facet normal 0 -0 -1
    outer loop
      vertex -8.5 -31.4119 0
      vertex -8.5 -18.1033 0
      vertex -2.05 -24.5 0
    endloop
  endfacet
  facet normal 0 0 -1
    outer loop
      vertex -1.20496 -22.8415 0
      vertex -8.5 -18.1033 0
      vertex -7.36249 -18.5955 0
    endloop
  endfacet
  facet normal 0 0 -1
    outer loop
      vertex -8.5 -31.4119 0
      vertex -2.05 -24.5 0
      vertex -1.94967 -25.1335 0
    endloop
  endfacet
  facet normal 0 0 -1
    outer loop
      vertex -8.5 -31.4119 0
      vertex -1.94967 -25.1335 0
      vertex -1.65848 -25.705 0
    endloop
  endfacet
  facet normal 0 0 -1
    outer loop
      vertex -8.5 -31.4119 0
      vertex -1.65848 -25.705 0
      vertex -1.20496 -26.1585 0
    endloop
  endfacet
  facet normal 0 0 -1
    outer loop
      vertex -8.5 -31.4119 0
      vertex -1.20496 -26.1585 0
      vertex -0.633485 -26.4497 0
    endloop
  endfacet
  facet normal -0 0 -1
    outer loop
      vertex -8.5 -31.4119 0
      vertex -0.633485 -26.4497 0
      vertex 13.0112 -31.4119 0
    endloop
  endfacet
  facet normal 0 0 -1
    outer loop
      vertex 0.633485 -26.4497 0
      vertex 13.0112 -31.4119 0
      vertex 0 -26.55 0
    endloop
  endfacet
  facet normal 0 0 -1
    outer loop
      vertex 1.20496 -26.1585 0
      vertex 13.0112 -31.4119 0
      vertex 0.633485 -26.4497 0
    endloop
  endfacet
  facet normal 0 0 -1
    outer loop
      vertex 1.65848 -25.705 0
      vertex 13.0112 -31.4119 0
      vertex 1.20496 -26.1585 0
    endloop
  endfacet
  facet normal 0 -0 -1
    outer loop
      vertex -2.05 24.5 0
      vertex -8.5 31.4119 0
      vertex -1.94967 25.1335 0
    endloop
  endfacet
  facet normal 0 0 -1
    outer loop
      vertex 2.05 -24.5 0
      vertex 13.0112 -31.4119 0
      vertex 1.94967 -25.1335 0
    endloop
  endfacet
  facet normal 0 -0 -1
    outer loop
      vertex -1.94967 25.1335 0
      vertex -8.5 31.4119 0
      vertex -1.65848 25.705 0
    endloop
  endfacet
  facet normal -0 0 -1
    outer loop
      vertex 1.65848 -25.705 0
      vertex 1.94967 -25.1335 0
      vertex 13.0112 -31.4119 0
    endloop
  endfacet
  facet normal 0 0 -1
    outer loop
      vertex 1.94967 -23.8665 0
      vertex 13.0112 -31.4119 0
      vertex 2.05 -24.5 0
    endloop
  endfacet
  facet normal 0 0 -1
    outer loop
      vertex 1.20496 22.8415 0
      vertex 3.74763 19.6457 0
      vertex 0.633485 22.5503 0
    endloop
  endfacet
  facet normal 0 -0 -1
    outer loop
      vertex -0.633485 -22.5503 0
      vertex -4.9738 -19.3717 0
      vertex 0 -22.45 0
    endloop
  endfacet
  facet normal 0 0 -1
    outer loop
      vertex 1.65848 -23.295 0
      vertex 13.0112 -31.4119 0
      vertex 1.94967 -23.8665 0
    endloop
  endfacet
  facet normal -0 -0 -1
    outer loop
      vertex 0 -22.45 0
      vertex -3.74763 -19.6457 0
      vertex 0.633485 -22.5503 0
    endloop
  endfacet
  facet normal -0 -0 -1
    outer loop
      vertex 0.633485 -22.5503 0
      vertex -2.50666 -19.8423 0
      vertex 1.20496 -22.8415 0
    endloop
  endfacet
  facet normal -0 -0 -1
    outer loop
      vertex 1.65848 -23.295 0
      vertex 1.20496 -22.8415 0
      vertex 13.0112 -31.4119 0
    endloop
  endfacet
  facet normal 0 0 -1
    outer loop
      vertex -3.74763 -19.6457 0
      vertex -2.50666 -19.8423 0
      vertex 0.633485 -22.5503 0
    endloop
  endfacet
  facet normal 0 0 -1
    outer loop
      vertex -4.9738 -19.3717 0
      vertex -3.74763 -19.6457 0
      vertex 0 -22.45 0
    endloop
  endfacet
  facet normal 0 0 -1
    outer loop
      vertex -6.18034 -19.0211 0
      vertex -4.9738 -19.3717 0
      vertex -0.633485 -22.5503 0
    endloop
  endfacet
  facet normal 0 0 -1
    outer loop
      vertex 1.20496 22.8415 0
      vertex 4.9738 19.3717 0
      vertex 3.74763 19.6457 0
    endloop
  endfacet
  facet normal 0 -0 -1
    outer loop
      vertex -1.20496 -22.8415 0
      vertex -6.18034 -19.0211 0
      vertex -0.633485 -22.5503 0
    endloop
  endfacet
  facet normal 0 -0 -1
    outer loop
      vertex -1.94967 -23.8665 0
      vertex -8.5 -18.1033 0
      vertex -1.65848 -23.295 0
    endloop
  endfacet
  facet normal 0 -0 -1
    outer loop
      vertex -2.05 -24.5 0
      vertex -8.5 -18.1033 0
      vertex -1.94967 -23.8665 0
    endloop
  endfacet
  facet normal 0 0 -1
    outer loop
      vertex -1.94967 23.8665 0
      vertex -8.5 31.4119 0
      vertex -2.05 24.5 0
    endloop
  endfacet
  facet normal 0 0 -1
    outer loop
      vertex 0 20 0
      vertex -8.5 31.4119 0
      vertex -1.65848 23.295 0
    endloop
  endfacet
  facet normal -0 -0 -1
    outer loop
      vertex 0 20 0
      vertex -1.65848 23.295 0
      vertex 1.25581 19.9605 0
    endloop
  endfacet
  facet normal 0 0 -1
    outer loop
      vertex -0.633485 22.5503 0
      vertex 1.25581 19.9605 0
      vertex -1.20496 22.8415 0
    endloop
  endfacet
  facet normal 0 0 -1
    outer loop
      vertex -1.65848 23.295 0
      vertex -1.20496 22.8415 0
      vertex 1.25581 19.9605 0
    endloop
  endfacet
  facet normal 0 0 -1
    outer loop
      vertex 0 22.45 0
      vertex 2.50666 19.8423 0
      vertex 1.25581 19.9605 0
    endloop
  endfacet
  facet normal 0 0 -1
    outer loop
      vertex -1.65848 23.295 0
      vertex -8.5 31.4119 0
      vertex -1.94967 23.8665 0
    endloop
  endfacet
  facet normal 0 0 -1
    outer loop
      vertex 0.633485 22.5503 0
      vertex 2.50666 19.8423 0
      vertex 0 22.45 0
    endloop
  endfacet
  facet normal -0 -0 -1
    outer loop
      vertex 2.50666 19.8423 0
      vertex 0.633485 22.5503 0
      vertex 3.74763 19.6457 0
    endloop
  endfacet
  facet normal 0 0 -1
    outer loop
      vertex 1.65848 23.295 0
      vertex 7.36249 18.5955 0
      vertex 6.18034 19.0211 0
    endloop
  endfacet
  facet normal -0 -0 -1
    outer loop
      vertex 4.9738 19.3717 0
      vertex 1.20496 22.8415 0
      vertex 6.18034 19.0211 0
    endloop
  endfacet
  facet normal 0 0 -1
    outer loop
      vertex 1.94967 23.8665 0
      vertex 11.7557 16.1803 0
      vertex 10.7165 16.8866 0
    endloop
  endfacet
  facet normal -0 -0 -1
    outer loop
      vertex 7.36249 18.5955 0
      vertex 1.65848 23.295 0
      vertex 8.51559 18.0965 0
    endloop
  endfacet
  facet normal -0 -0 -1
    outer loop
      vertex 0 26.55 0
      vertex -8.5 31.4119 0
      vertex 0.633485 26.4497 0
    endloop
  endfacet
  facet normal 0 -0 -1
    outer loop
      vertex 11.7557 16.1803 0
      vertex 1.94967 23.8665 0
      vertex 13.0112 31.4119 0
    endloop
  endfacet
  facet normal 0 -0 -1
    outer loop
      vertex -1.65848 25.705 0
      vertex -8.5 31.4119 0
      vertex -1.20496 26.1585 0
    endloop
  endfacet
  facet normal 0 0 -1
    outer loop
      vertex 1.94967 23.8665 0
      vertex 2.05 24.5 0
      vertex 13.0112 31.4119 0
    endloop
  endfacet
  facet normal 0 -0 -1
    outer loop
      vertex -1.20496 26.1585 0
      vertex -8.5 31.4119 0
      vertex -0.633485 26.4497 0
    endloop
  endfacet
  facet normal 0 -0 -1
    outer loop
      vertex 2.05 24.5 0
      vertex 1.94967 25.1335 0
      vertex 13.0112 31.4119 0
    endloop
  endfacet
  facet normal 0 -0 -1
    outer loop
      vertex -0.633485 26.4497 0
      vertex -8.5 31.4119 0
      vertex 0 26.55 0
    endloop
  endfacet
  facet normal 0 -0 -1
    outer loop
      vertex 1.94967 25.1335 0
      vertex 1.65848 25.705 0
      vertex 13.0112 31.4119 0
    endloop
  endfacet
  facet normal -0 -0 -1
    outer loop
      vertex 0.633485 26.4497 0
      vertex -8.5 31.4119 0
      vertex 1.20496 26.1585 0
    endloop
  endfacet
  facet normal 0 -0 -1
    outer loop
      vertex 1.65848 25.705 0
      vertex 1.20496 26.1585 0
      vertex 13.0112 31.4119 0
    endloop
  endfacet
  facet normal 0 0 -1
    outer loop
      vertex 1.94967 23.8665 0
      vertex 8.51559 18.0965 0
      vertex 1.65848 23.295 0
    endloop
  endfacet
  facet normal 0 0 -1
    outer loop
      vertex 1.94967 23.8665 0
      vertex 9.63507 17.5261 0
      vertex 8.51559 18.0965 0
    endloop
  endfacet
  facet normal 0 0 -1
    outer loop
      vertex 0 -26.55 0
      vertex 13.0112 -31.4119 0
      vertex -0.633485 -26.4497 0
    endloop
  endfacet
  facet normal 0 -0 -1
    outer loop
      vertex -1.65848 -23.295 0
      vertex -8.5 -18.1033 0
      vertex -1.20496 -22.8415 0
    endloop
  endfacet
  facet normal -1 -0 -0
    outer loop
      vertex -8.5 -31.4119 0
      vertex -8.5 -31.4119 5
      vertex -8.5 -18.1033 0
    endloop
  endfacet
  facet normal -1 0 0
    outer loop
      vertex -8.5 -18.1033 0
      vertex -8.5 -31.4119 5
      vertex -8.5 -18.1033 5
    endloop
  endfacet
  facet normal 0 -1 0
    outer loop
      vertex -8.5 -31.4119 5
      vertex -8.5 -31.4119 0
      vertex 13.0112 -31.4119 0
    endloop
  endfacet
  facet normal 0 -1 0
    outer loop
      vertex 13.0112 -31.4119 5
      vertex -8.5 -31.4119 5
      vertex 13.0112 -31.4119 0
    endloop
  endfacet
  facet normal 0.707103 -0.70711 0
    outer loop
      vertex 13.0112 -31.4119 5
      vertex 13.0112 -31.4119 0
      vertex 14.6227 -29.8004 5
    endloop
  endfacet
  facet normal 0.707107 -0.707107 -2.20971e-06
    outer loop
      vertex 14.6227 -29.8004 5
      vertex 13.0112 -31.4119 0
      vertex 31.4119 -13.0112 0
    endloop
  endfacet
  facet normal 0.707107 -0.707107 -2.20971e-06
    outer loop
      vertex 30.1483 -14.2748 5
      vertex 14.6227 -29.8004 5
      vertex 31.4119 -13.0112 0
    endloop
  endfacet
  facet normal 0.707111 -0.707102 0
    outer loop
      vertex 31.4119 -13.0112 5
      vertex 30.1483 -14.2748 5
      vertex 31.4119 -13.0112 0
    endloop
  endfacet
  facet normal 1 0 -0
    outer loop
      vertex 31.4119 -13.0112 5
      vertex 31.4119 -13.0112 0
      vertex 31.4119 13.0112 0
    endloop
  endfacet
  facet normal 1 -0 -0
    outer loop
      vertex 31.4119 0 3.95
      vertex 31.4119 -13.0112 5
      vertex 31.4119 13.0112 0
    endloop
  endfacet
  facet normal 1 0 0
    outer loop
      vertex 31.4119 13.0112 5
      vertex 31.4119 1.76292 5
      vertex 31.4119 13.0112 0
    endloop
  endfacet
  facet normal 1 0 -0
    outer loop
      vertex 31.4119 1.76292 5
      vertex 31.4119 1.65848 4.79504
      vertex 31.4119 13.0112 0
    endloop
  endfacet
  facet normal 1 0 -0
    outer loop
      vertex 31.4119 1.65848 4.79504
      vertex 31.4119 1.20496 4.34151
      vertex 31.4119 13.0112 0
    endloop
  endfacet
  facet normal 1 0 -0
    outer loop
      vertex 31.4119 1.20496 4.34151
      vertex 31.4119 0.633485 4.05033
      vertex 31.4119 13.0112 0
    endloop
  endfacet
  facet normal 1 0 -0
    outer loop
      vertex 31.4119 0.633485 4.05033
      vertex 31.4119 0 3.95
      vertex 31.4119 13.0112 0
    endloop
  endfacet
  facet normal 1 -0 -0
    outer loop
      vertex 31.4119 -0.633485 4.05033
      vertex 31.4119 -13.0112 5
      vertex 31.4119 0 3.95
    endloop
  endfacet
  facet normal 1 0 0
    outer loop
      vertex 31.4119 -1.20496 4.34151
      vertex 31.4119 -1.65848 4.79504
      vertex 31.4119 -13.0112 5
    endloop
  endfacet
  facet normal 1 0 0
    outer loop
      vertex 31.4119 -1.65848 4.79504
      vertex 31.4119 -1.76292 5
      vertex 31.4119 -13.0112 5
    endloop
  endfacet
  facet normal 1 0 0
    outer loop
      vertex 31.4119 -0.633485 4.05033
      vertex 31.4119 -1.20496 4.34151
      vertex 31.4119 -13.0112 5
    endloop
  endfacet
  facet normal 0.707107 0.707107 2.73049e-16
    outer loop
      vertex 13.0112 31.4119 0
      vertex 15.8863 28.5368 5
      vertex 31.4119 13.0112 0
    endloop
  endfacet
  facet normal 0.707107 0.707107 0
    outer loop
      vertex 31.4119 13.0112 0
      vertex 15.8863 28.5368 5
      vertex 31.4119 13.0112 5
    endloop
  endfacet
  facet normal 0.707111 0.707102 -5.02794e-06
    outer loop
      vertex 15.8863 28.5368 5
      vertex 13.0112 31.4119 0
      vertex 14.6227 29.8004 5
    endloop
  endfacet
  facet normal 0.707103 0.70711 0
    outer loop
      vertex 14.6227 29.8004 5
      vertex 13.0112 31.4119 0
      vertex 13.0112 31.4119 5
    endloop
  endfacet
  facet normal 0 1 0
    outer loop
      vertex -8.5 31.4119 0
      vertex -8.5 31.4119 5
      vertex 13.0112 31.4119 0
    endloop
  endfacet
  facet normal 0 1 0
    outer loop
      vertex 13.0112 31.4119 0
      vertex -8.5 31.4119 5
      vertex 13.0112 31.4119 5
    endloop
  endfacet
  facet normal -1 -0 -0
    outer loop
      vertex -8.5 18.1033 0
      vertex -8.5 18.1033 5
      vertex -8.5 31.4119 0
    endloop
  endfacet
  facet normal -1 0 0
    outer loop
      vertex -8.5 31.4119 0
      vertex -8.5 18.1033 5
      vertex -8.5 31.4119 5
    endloop
  endfacet
  facet normal 0.397118 -0.917768 0
    outer loop
      vertex -8.5 18.1033 5
      vertex -8.5 18.1033 0
      vertex -7.36249 18.5955 0
    endloop
  endfacet
  facet normal 0.397118 -0.917768 0
    outer loop
      vertex -7.36249 18.5955 5
      vertex -8.5 18.1033 5
      vertex -7.36249 18.5955 0
    endloop
  endfacet
  facet normal 0.338738 -0.940881 0
    outer loop
      vertex -7.36249 18.5955 5
      vertex -7.36249 18.5955 0
      vertex -6.18034 19.0211 0
    endloop
  endfacet
  facet normal 0.338738 -0.940881 0
    outer loop
      vertex -6.18034 19.0211 5
      vertex -7.36249 18.5955 5
      vertex -6.18034 19.0211 0
    endloop
  endfacet
  facet normal 0.279041 -0.960279 0
    outer loop
      vertex -6.18034 19.0211 5
      vertex -6.18034 19.0211 0
      vertex -4.9738 19.3717 0
    endloop
  endfacet
  facet normal 0.279041 -0.960279 0
    outer loop
      vertex -4.9738 19.3717 5
      vertex -6.18034 19.0211 5
      vertex -4.9738 19.3717 0
    endloop
  endfacet
  facet normal 0.218081 -0.975931 0
    outer loop
      vertex -4.9738 19.3717 5
      vertex -4.9738 19.3717 0
      vertex -3.74763 19.6457 0
    endloop
  endfacet
  facet normal 0.218081 -0.975931 0
    outer loop
      vertex -3.74763 19.6457 5
      vertex -4.9738 19.3717 5
      vertex -3.74763 19.6457 0
    endloop
  endfacet
  facet normal 0.156474 -0.987682 0
    outer loop
      vertex -3.74763 19.6457 5
      vertex -3.74763 19.6457 0
      vertex -2.50667 19.8423 0
    endloop
  endfacet
  facet normal 0.156474 -0.987682 0
    outer loop
      vertex -2.50667 19.8423 5
      vertex -3.74763 19.6457 5
      vertex -2.50667 19.8423 0
    endloop
  endfacet
  facet normal 0.0940759 -0.995565 0
    outer loop
      vertex -2.50667 19.8423 5
      vertex -2.50667 19.8423 0
      vertex -1.25581 19.9605 0
    endloop
  endfacet
  facet normal 0.0940759 -0.995565 0
    outer loop
      vertex -1.25581 19.9605 5
      vertex -2.50667 19.8423 5
      vertex -1.25581 19.9605 0
    endloop
  endfacet
  facet normal 0.0314383 -0.999506 0
    outer loop
      vertex -1.25581 19.9605 5
      vertex -1.25581 19.9605 0
      vertex 0 20 0
    endloop
  endfacet
  facet normal 0.0314383 -0.999506 0
    outer loop
      vertex 0 20 5
      vertex -1.25581 19.9605 5
      vertex 0 20 0
    endloop
  endfacet
  facet normal -0.0314383 -0.999506 0
    outer loop
      vertex 0 20 5
      vertex 0 20 0
      vertex 1.25581 19.9605 0
    endloop
  endfacet
  facet normal -0.0314383 -0.999506 0
    outer loop
      vertex 1.25581 19.9605 5
      vertex 0 20 5
      vertex 1.25581 19.9605 0
    endloop
  endfacet
  facet normal -0.0940767 -0.995565 0
    outer loop
      vertex 1.25581 19.9605 5
      vertex 1.25581 19.9605 0
      vertex 2.50666 19.8423 0
    endloop
  endfacet
  facet normal -0.0940767 -0.995565 0
    outer loop
      vertex 2.50666 19.8423 5
      vertex 1.25581 19.9605 5
      vertex 2.50666 19.8423 0
    endloop
  endfacet
  facet normal -0.156473 -0.987682 0
    outer loop
      vertex 2.50666 19.8423 5
      vertex 2.50666 19.8423 0
      vertex 3.74763 19.6457 0
    endloop
  endfacet
  facet normal -0.156473 -0.987682 0
    outer loop
      vertex 3.74763 19.6457 5
      vertex 2.50666 19.8423 5
      vertex 3.74763 19.6457 0
    endloop
  endfacet
  facet normal -0.218081 -0.975931 0
    outer loop
      vertex 3.74763 19.6457 5
      vertex 3.74763 19.6457 0
      vertex 4.9738 19.3717 0
    endloop
  endfacet
  facet normal -0.218081 -0.975931 0
    outer loop
      vertex 4.9738 19.3717 5
      vertex 3.74763 19.6457 5
      vertex 4.9738 19.3717 0
    endloop
  endfacet
  facet normal -0.279041 -0.960279 0
    outer loop
      vertex 4.9738 19.3717 5
      vertex 4.9738 19.3717 0
      vertex 6.18034 19.0211 0
    endloop
  endfacet
  facet normal -0.279041 -0.960279 0
    outer loop
      vertex 6.18034 19.0211 5
      vertex 4.9738 19.3717 5
      vertex 6.18034 19.0211 0
    endloop
  endfacet
  facet normal -0.338738 -0.940881 0
    outer loop
      vertex 6.18034 19.0211 5
      vertex 6.18034 19.0211 0
      vertex 7.36249 18.5955 0
    endloop
  endfacet
  facet normal -0.338738 -0.940881 0
    outer loop
      vertex 7.36249 18.5955 5
      vertex 6.18034 19.0211 5
      vertex 7.36249 18.5955 0
    endloop
  endfacet
  facet normal -0.397154 -0.917752 0
    outer loop
      vertex 7.36249 18.5955 5
      vertex 7.36249 18.5955 0
      vertex 8.51559 18.0965 0
    endloop
  endfacet
  facet normal -0.397154 -0.917752 0
    outer loop
      vertex 8.51559 18.0965 5
      vertex 7.36249 18.5955 5
      vertex 8.51559 18.0965 0
    endloop
  endfacet
  facet normal -0.453988 -0.891008 0
    outer loop
      vertex 8.51559 18.0965 5
      vertex 8.51559 18.0965 0
      vertex 9.63507 17.5261 0
    endloop
  endfacet
  facet normal -0.453988 -0.891008 0
    outer loop
      vertex 9.63507 17.5261 5
      vertex 8.51559 18.0965 5
      vertex 9.63507 17.5261 0
    endloop
  endfacet
  facet normal -0.509008 -0.860762 0
    outer loop
      vertex 9.63507 17.5261 5
      vertex 9.63507 17.5261 0
      vertex 10.7165 16.8866 0
    endloop
  endfacet
  facet normal -0.509008 -0.860762 0
    outer loop
      vertex 10.7165 16.8866 5
      vertex 9.63507 17.5261 5
      vertex 10.7165 16.8866 0
    endloop
  endfacet
  facet normal -0.562116 -0.827058 0
    outer loop
      vertex 10.7165 16.8866 5
      vertex 10.7165 16.8866 0
      vertex 11.7557 16.1803 0
    endloop
  endfacet
  facet normal -0.562116 -0.827058 0
    outer loop
      vertex 11.7557 16.1803 5
      vertex 10.7165 16.8866 5
      vertex 11.7557 16.1803 0
    endloop
  endfacet
  facet normal -0.61286 -0.790191 0
    outer loop
      vertex 11.7557 16.1803 5
      vertex 11.7557 16.1803 0
      vertex 12.7485 15.4103 0
    endloop
  endfacet
  facet normal -0.61286 -0.790191 0
    outer loop
      vertex 12.7485 15.4103 5
      vertex 11.7557 16.1803 5
      vertex 12.7485 15.4103 0
    endloop
  endfacet
  facet normal -0.66134 -0.750086 0
    outer loop
      vertex 12.7485 15.4103 5
      vertex 12.7485 15.4103 0
      vertex 13.6909 14.5794 0
    endloop
  endfacet
  facet normal -0.66134 -0.750086 0
    outer loop
      vertex 13.6909 14.5794 5
      vertex 12.7485 15.4103 5
      vertex 13.6909 14.5794 0
    endloop
  endfacet
  facet normal -0.707107 -0.707107 0
    outer loop
      vertex 13.6909 14.5794 5
      vertex 13.6909 14.5794 0
      vertex 14.5794 13.6909 0
    endloop
  endfacet
  facet normal -0.707107 -0.707107 0
    outer loop
      vertex 14.5794 13.6909 5
      vertex 13.6909 14.5794 5
      vertex 14.5794 13.6909 0
    endloop
  endfacet
  facet normal -0.750086 -0.66134 -0
    outer loop
      vertex 14.5794 13.6909 0
      vertex 15.4103 12.7485 0
      vertex 14.5794 13.6909 5
    endloop
  endfacet
  facet normal -0.750086 -0.66134 0
    outer loop
      vertex 14.5794 13.6909 5
      vertex 15.4103 12.7485 0
      vertex 15.4103 12.7485 5
    endloop
  endfacet
  facet normal -0.790191 -0.61286 -0
    outer loop
      vertex 15.4103 12.7485 0
      vertex 16.1803 11.7557 0
      vertex 15.4103 12.7485 5
    endloop
  endfacet
  facet normal -0.790191 -0.61286 0
    outer loop
      vertex 15.4103 12.7485 5
      vertex 16.1803 11.7557 0
      vertex 16.1803 11.7557 5
    endloop
  endfacet
  facet normal -0.827058 -0.562116 -0
    outer loop
      vertex 16.1803 11.7557 0
      vertex 16.8866 10.7165 0
      vertex 16.1803 11.7557 5
    endloop
  endfacet
  facet normal -0.827058 -0.562116 0
    outer loop
      vertex 16.1803 11.7557 5
      vertex 16.8866 10.7165 0
      vertex 16.8866 10.7165 5
    endloop
  endfacet
  facet normal -0.860762 -0.509008 -0
    outer loop
      vertex 16.8866 10.7165 0
      vertex 17.5261 9.63507 0
      vertex 16.8866 10.7165 5
    endloop
  endfacet
  facet normal -0.860762 -0.509008 0
    outer loop
      vertex 16.8866 10.7165 5
      vertex 17.5261 9.63507 0
      vertex 17.5261 9.63507 5
    endloop
  endfacet
  facet normal -0.891008 -0.453988 -0
    outer loop
      vertex 17.5261 9.63507 0
      vertex 18.0965 8.51559 0
      vertex 17.5261 9.63507 5
    endloop
  endfacet
  facet normal -0.891008 -0.453988 0
    outer loop
      vertex 17.5261 9.63507 5
      vertex 18.0965 8.51559 0
      vertex 18.0965 8.51559 5
    endloop
  endfacet
  facet normal -0.917752 -0.397154 -0
    outer loop
      vertex 18.0965 8.51559 0
      vertex 18.5955 7.36249 0
      vertex 18.0965 8.51559 5
    endloop
  endfacet
  facet normal -0.917752 -0.397154 0
    outer loop
      vertex 18.0965 8.51559 5
      vertex 18.5955 7.36249 0
      vertex 18.5955 7.36249 5
    endloop
  endfacet
  facet normal -0.940881 -0.338738 -0
    outer loop
      vertex 18.5955 7.36249 0
      vertex 19.0211 6.18034 0
      vertex 18.5955 7.36249 5
    endloop
  endfacet
  facet normal -0.940881 -0.338738 0
    outer loop
      vertex 18.5955 7.36249 5
      vertex 19.0211 6.18034 0
      vertex 19.0211 6.18034 5
    endloop
  endfacet
  facet normal -0.960279 -0.279041 -0
    outer loop
      vertex 19.0211 6.18034 0
      vertex 19.3717 4.9738 0
      vertex 19.0211 6.18034 5
    endloop
  endfacet
  facet normal -0.960279 -0.279041 0
    outer loop
      vertex 19.0211 6.18034 5
      vertex 19.3717 4.9738 0
      vertex 19.3717 4.9738 5
    endloop
  endfacet
  facet normal -0.975931 -0.218081 -0
    outer loop
      vertex 19.3717 4.9738 0
      vertex 19.6457 3.74763 0
      vertex 19.3717 4.9738 5
    endloop
  endfacet
  facet normal -0.975931 -0.218081 0
    outer loop
      vertex 19.3717 4.9738 5
      vertex 19.6457 3.74763 0
      vertex 19.6457 3.74763 5
    endloop
  endfacet
  facet normal -0.987682 -0.156474 -0
    outer loop
      vertex 19.6457 3.74763 0
      vertex 19.8423 2.50667 0
      vertex 19.6457 3.74763 5
    endloop
  endfacet
  facet normal -0.987682 -0.156474 0
    outer loop
      vertex 19.6457 3.74763 5
      vertex 19.8423 2.50667 0
      vertex 19.8423 2.50667 5
    endloop
  endfacet
  facet normal -0.995563 -0.0941016 0
    outer loop
      vertex 19.8423 2.50667 5
      vertex 19.8423 2.50667 0
      vertex 19.9126 1.76292 5
    endloop
  endfacet
  facet normal -0.995543 -0.094308 -3.09787e-05
    outer loop
      vertex 19.9126 1.76292 5
      vertex 19.8423 2.50667 0
      vertex 19.9225 1.65848 4.79504
    endloop
  endfacet
  facet normal -0.995574 -0.09398 2.75641e-05
    outer loop
      vertex 19.9225 1.65848 4.79504
      vertex 19.8423 2.50667 0
      vertex 19.9605 1.25581 4.39237
    endloop
  endfacet
  facet normal -0.995565 -0.0940759 0
    outer loop
      vertex 19.9605 1.25581 4.39237
      vertex 19.8423 2.50667 0
      vertex 19.9605 1.25581 0
    endloop
  endfacet
  facet normal -0.999505 -0.0314495 0
    outer loop
      vertex 19.9605 1.25581 4.39237
      vertex 19.9605 1.25581 0
      vertex 19.9621 1.20496 4.34152
    endloop
  endfacet
  facet normal -0.999504 -0.0314816 -3.76434e-07
    outer loop
      vertex 19.9621 1.20496 4.34152
      vertex 19.9605 1.25581 0
      vertex 19.9801 0.633485 4.05033
    endloop
  endfacet
  facet normal -0.999507 -0.0314 1.2184e-05
    outer loop
      vertex 19.9801 0.633485 4.05033
      vertex 19.9605 1.25581 0
      vertex 20 0 3.95
    endloop
  endfacet
  facet normal -0.999506 -0.0314383 0
    outer loop
      vertex 20 0 3.95
      vertex 19.9605 1.25581 0
      vertex 20 0 0
    endloop
  endfacet
  facet normal -0.999506 0.0314383 1.32177e-07
    outer loop
      vertex 20 0 0
      vertex 19.9605 -1.25581 0
      vertex 19.9621 -1.20496 4.34152
    endloop
  endfacet
  facet normal -0.999507 0.031398 0
    outer loop
      vertex 20 0 0
      vertex 19.9801 -0.633485 4.05033
      vertex 20 0 3.95
    endloop
  endfacet
  facet normal -0.999504 0.0314891 1.42533e-05
    outer loop
      vertex 20 0 0
      vertex 19.9621 -1.20496 4.34152
      vertex 19.9801 -0.633485 4.05033
    endloop
  endfacet
  facet normal -0.995565 0.0940767 3.92973e-06
    outer loop
      vertex 19.9605 -1.25581 0
      vertex 19.8423 -2.50666 0
      vertex 19.9126 -1.76292 5
    endloop
  endfacet
  facet normal -0.999505 0.0314495 0
    outer loop
      vertex 19.9621 -1.20496 4.34152
      vertex 19.9605 -1.25581 0
      vertex 19.9605 -1.25581 4.39236
    endloop
  endfacet
  facet normal -0.995577 0.0939526 0
    outer loop
      vertex 19.9605 -1.25581 0
      vertex 19.9225 -1.65848 4.79504
      vertex 19.9605 -1.25581 4.39236
    endloop
  endfacet
  facet normal -0.99553 0.0944502 4.21597e-05
    outer loop
      vertex 19.9605 -1.25581 0
      vertex 19.9126 -1.76292 5
      vertex 19.9225 -1.65848 4.79504
    endloop
  endfacet
  facet normal -0.987682 0.156473 0
    outer loop
      vertex 19.6457 -3.74763 0
      vertex 19.6457 -3.74763 5
      vertex 19.8423 -2.50666 0
    endloop
  endfacet
  facet normal -0.987682 0.156473 0
    outer loop
      vertex 19.8423 -2.50666 0
      vertex 19.6457 -3.74763 5
      vertex 19.8423 -2.50666 5
    endloop
  endfacet
  facet normal -0.995562 0.0941028 0
    outer loop
      vertex 19.9126 -1.76292 5
      vertex 19.8423 -2.50666 0
      vertex 19.8423 -2.50666 5
    endloop
  endfacet
  facet normal -0.975931 0.218081 0
    outer loop
      vertex 19.3717 -4.9738 0
      vertex 19.3717 -4.9738 5
      vertex 19.6457 -3.74763 0
    endloop
  endfacet
  facet normal -0.975931 0.218081 0
    outer loop
      vertex 19.6457 -3.74763 0
      vertex 19.3717 -4.9738 5
      vertex 19.6457 -3.74763 5
    endloop
  endfacet
  facet normal -0.960279 0.279041 0
    outer loop
      vertex 19.0211 -6.18034 0
      vertex 19.0211 -6.18034 5
      vertex 19.3717 -4.9738 0
    endloop
  endfacet
  facet normal -0.960279 0.279041 0
    outer loop
      vertex 19.3717 -4.9738 0
      vertex 19.0211 -6.18034 5
      vertex 19.3717 -4.9738 5
    endloop
  endfacet
  facet normal -0.940881 0.338738 0
    outer loop
      vertex 18.5955 -7.36249 0
      vertex 18.5955 -7.36249 5
      vertex 19.0211 -6.18034 0
    endloop
  endfacet
  facet normal -0.940881 0.338738 0
    outer loop
      vertex 19.0211 -6.18034 0
      vertex 18.5955 -7.36249 5
      vertex 19.0211 -6.18034 5
    endloop
  endfacet
  facet normal -0.917752 0.397154 0
    outer loop
      vertex 18.0965 -8.51559 0
      vertex 18.0965 -8.51559 5
      vertex 18.5955 -7.36249 0
    endloop
  endfacet
  facet normal -0.917752 0.397154 0
    outer loop
      vertex 18.5955 -7.36249 0
      vertex 18.0965 -8.51559 5
      vertex 18.5955 -7.36249 5
    endloop
  endfacet
  facet normal -0.891008 0.453988 0
    outer loop
      vertex 17.5261 -9.63507 0
      vertex 17.5261 -9.63507 5
      vertex 18.0965 -8.51559 0
    endloop
  endfacet
  facet normal -0.891008 0.453988 0
    outer loop
      vertex 18.0965 -8.51559 0
      vertex 17.5261 -9.63507 5
      vertex 18.0965 -8.51559 5
    endloop
  endfacet
  facet normal -0.860762 0.509008 0
    outer loop
      vertex 16.8866 -10.7165 0
      vertex 16.8866 -10.7165 5
      vertex 17.5261 -9.63507 0
    endloop
  endfacet
  facet normal -0.860762 0.509008 0
    outer loop
      vertex 17.5261 -9.63507 0
      vertex 16.8866 -10.7165 5
      vertex 17.5261 -9.63507 5
    endloop
  endfacet
  facet normal -0.827058 0.562116 0
    outer loop
      vertex 16.1803 -11.7557 0
      vertex 16.1803 -11.7557 5
      vertex 16.8866 -10.7165 0
    endloop
  endfacet
  facet normal -0.827058 0.562116 0
    outer loop
      vertex 16.8866 -10.7165 0
      vertex 16.1803 -11.7557 5
      vertex 16.8866 -10.7165 5
    endloop
  endfacet
  facet normal -0.790191 0.61286 0
    outer loop
      vertex 15.4103 -12.7485 0
      vertex 15.4103 -12.7485 5
      vertex 16.1803 -11.7557 0
    endloop
  endfacet
  facet normal -0.790191 0.61286 0
    outer loop
      vertex 16.1803 -11.7557 0
      vertex 15.4103 -12.7485 5
      vertex 16.1803 -11.7557 5
    endloop
  endfacet
  facet normal -0.750086 0.66134 0
    outer loop
      vertex 14.5794 -13.6909 0
      vertex 14.5794 -13.6909 5
      vertex 15.4103 -12.7485 0
    endloop
  endfacet
  facet normal -0.750086 0.66134 0
    outer loop
      vertex 15.4103 -12.7485 0
      vertex 14.5794 -13.6909 5
      vertex 15.4103 -12.7485 5
    endloop
  endfacet
  facet normal -0.707107 0.707107 0
    outer loop
      vertex 13.6909 -14.5794 0
      vertex 13.6909 -14.5794 5
      vertex 14.5794 -13.6909 0
    endloop
  endfacet
  facet normal -0.707107 0.707107 0
    outer loop
      vertex 14.5794 -13.6909 0
      vertex 13.6909 -14.5794 5
      vertex 14.5794 -13.6909 5
    endloop
  endfacet
  facet normal -0.66134 0.750086 0
    outer loop
      vertex 12.7485 -15.4103 0
      vertex 12.7485 -15.4103 5
      vertex 13.6909 -14.5794 0
    endloop
  endfacet
  facet normal -0.66134 0.750086 0
    outer loop
      vertex 13.6909 -14.5794 0
      vertex 12.7485 -15.4103 5
      vertex 13.6909 -14.5794 5
    endloop
  endfacet
  facet normal -0.61286 0.790191 0
    outer loop
      vertex 11.7557 -16.1803 0
      vertex 11.7557 -16.1803 5
      vertex 12.7485 -15.4103 0
    endloop
  endfacet
  facet normal -0.61286 0.790191 0
    outer loop
      vertex 12.7485 -15.4103 0
      vertex 11.7557 -16.1803 5
      vertex 12.7485 -15.4103 5
    endloop
  endfacet
  facet normal -0.562116 0.827058 0
    outer loop
      vertex 10.7165 -16.8866 0
      vertex 10.7165 -16.8866 5
      vertex 11.7557 -16.1803 0
    endloop
  endfacet
  facet normal -0.562116 0.827058 0
    outer loop
      vertex 11.7557 -16.1803 0
      vertex 10.7165 -16.8866 5
      vertex 11.7557 -16.1803 5
    endloop
  endfacet
  facet normal -0.509008 0.860762 0
    outer loop
      vertex 9.63507 -17.5261 0
      vertex 9.63507 -17.5261 5
      vertex 10.7165 -16.8866 0
    endloop
  endfacet
  facet normal -0.509008 0.860762 0
    outer loop
      vertex 10.7165 -16.8866 0
      vertex 9.63507 -17.5261 5
      vertex 10.7165 -16.8866 5
    endloop
  endfacet
  facet normal -0.453988 0.891008 0
    outer loop
      vertex 8.51559 -18.0965 0
      vertex 8.51559 -18.0965 5
      vertex 9.63507 -17.5261 0
    endloop
  endfacet
  facet normal -0.453988 0.891008 0
    outer loop
      vertex 9.63507 -17.5261 0
      vertex 8.51559 -18.0965 5
      vertex 9.63507 -17.5261 5
    endloop
  endfacet
  facet normal -0.397154 0.917752 0
    outer loop
      vertex 7.36249 -18.5955 0
      vertex 7.36249 -18.5955 5
      vertex 8.51559 -18.0965 0
    endloop
  endfacet
  facet normal -0.397154 0.917752 0
    outer loop
      vertex 8.51559 -18.0965 0
      vertex 7.36249 -18.5955 5
      vertex 8.51559 -18.0965 5
    endloop
  endfacet
  facet normal -0.338738 0.940881 0
    outer loop
      vertex 6.18034 -19.0211 0
      vertex 6.18034 -19.0211 5
      vertex 7.36249 -18.5955 0
    endloop
  endfacet
  facet normal -0.338738 0.940881 0
    outer loop
      vertex 7.36249 -18.5955 0
      vertex 6.18034 -19.0211 5
      vertex 7.36249 -18.5955 5
    endloop
  endfacet
  facet normal -0.279041 0.960279 0
    outer loop
      vertex 4.9738 -19.3717 0
      vertex 4.9738 -19.3717 5
      vertex 6.18034 -19.0211 0
    endloop
  endfacet
  facet normal -0.279041 0.960279 0
    outer loop
      vertex 6.18034 -19.0211 0
      vertex 4.9738 -19.3717 5
      vertex 6.18034 -19.0211 5
    endloop
  endfacet
  facet normal -0.218081 0.975931 0
    outer loop
      vertex 3.74763 -19.6457 0
      vertex 3.74763 -19.6457 5
      vertex 4.9738 -19.3717 0
    endloop
  endfacet
  facet normal -0.218081 0.975931 0
    outer loop
      vertex 4.9738 -19.3717 0
      vertex 3.74763 -19.6457 5
      vertex 4.9738 -19.3717 5
    endloop
  endfacet
  facet normal -0.156474 0.987682 0
    outer loop
      vertex 2.50667 -19.8423 0
      vertex 2.50667 -19.8423 5
      vertex 3.74763 -19.6457 0
    endloop
  endfacet
  facet normal -0.156474 0.987682 0
    outer loop
      vertex 3.74763 -19.6457 0
      vertex 2.50667 -19.8423 5
      vertex 3.74763 -19.6457 5
    endloop
  endfacet
  facet normal -0.0940759 0.995565 0
    outer loop
      vertex 1.25581 -19.9605 0
      vertex 1.25581 -19.9605 5
      vertex 2.50667 -19.8423 0
    endloop
  endfacet
  facet normal -0.0940759 0.995565 0
    outer loop
      vertex 2.50667 -19.8423 0
      vertex 1.25581 -19.9605 5
      vertex 2.50667 -19.8423 5
    endloop
  endfacet
  facet normal -0.0314383 0.999506 0
    outer loop
      vertex 0 -20 0
      vertex 0 -20 5
      vertex 1.25581 -19.9605 0
    endloop
  endfacet
  facet normal -0.0314383 0.999506 0
    outer loop
      vertex 1.25581 -19.9605 0
      vertex 0 -20 5
      vertex 1.25581 -19.9605 5
    endloop
  endfacet
  facet normal 0.0314383 0.999506 0
    outer loop
      vertex -1.25581 -19.9605 0
      vertex -1.25581 -19.9605 5
      vertex 0 -20 0
    endloop
  endfacet
  facet normal 0.0314383 0.999506 0
    outer loop
      vertex 0 -20 0
      vertex -1.25581 -19.9605 5
      vertex 0 -20 5
    endloop
  endfacet
  facet normal 0.0940767 0.995565 0
    outer loop
      vertex -2.50666 -19.8423 0
      vertex -2.50666 -19.8423 5
      vertex -1.25581 -19.9605 0
    endloop
  endfacet
  facet normal 0.0940767 0.995565 0
    outer loop
      vertex -1.25581 -19.9605 0
      vertex -2.50666 -19.8423 5
      vertex -1.25581 -19.9605 5
    endloop
  endfacet
  facet normal 0.156473 0.987682 0
    outer loop
      vertex -3.74763 -19.6457 0
      vertex -3.74763 -19.6457 5
      vertex -2.50666 -19.8423 0
    endloop
  endfacet
  facet normal 0.156473 0.987682 0
    outer loop
      vertex -2.50666 -19.8423 0
      vertex -3.74763 -19.6457 5
      vertex -2.50666 -19.8423 5
    endloop
  endfacet
  facet normal 0.218081 0.975931 0
    outer loop
      vertex -4.9738 -19.3717 0
      vertex -4.9738 -19.3717 5
      vertex -3.74763 -19.6457 0
    endloop
  endfacet
  facet normal 0.218081 0.975931 0
    outer loop
      vertex -3.74763 -19.6457 0
      vertex -4.9738 -19.3717 5
      vertex -3.74763 -19.6457 5
    endloop
  endfacet
  facet normal 0.279041 0.960279 0
    outer loop
      vertex -6.18034 -19.0211 0
      vertex -6.18034 -19.0211 5
      vertex -4.9738 -19.3717 0
    endloop
  endfacet
  facet normal 0.279041 0.960279 0
    outer loop
      vertex -4.9738 -19.3717 0
      vertex -6.18034 -19.0211 5
      vertex -4.9738 -19.3717 5
    endloop
  endfacet
  facet normal 0.338738 0.940881 0
    outer loop
      vertex -7.36249 -18.5955 0
      vertex -7.36249 -18.5955 5
      vertex -6.18034 -19.0211 0
    endloop
  endfacet
  facet normal 0.338738 0.940881 0
    outer loop
      vertex -6.18034 -19.0211 0
      vertex -7.36249 -18.5955 5
      vertex -6.18034 -19.0211 5
    endloop
  endfacet
  facet normal 0.397118 0.917768 0
    outer loop
      vertex -8.5 -18.1033 0
      vertex -8.5 -18.1033 5
      vertex -7.36249 -18.5955 0
    endloop
  endfacet
  facet normal 0.397118 0.917768 0
    outer loop
      vertex -7.36249 -18.5955 0
      vertex -8.5 -18.1033 5
      vertex -7.36249 -18.5955 5
    endloop
  endfacet
  facet normal 0.98769 0.156425 0
    outer loop
      vertex -1.94967 -25.1335 0
      vertex -2.05 -24.5 0
      vertex -2.05 -24.5 5
    endloop
  endfacet
  facet normal 0.98769 0.156425 -0
    outer loop
      vertex -1.94967 -25.1335 5
      vertex -1.94967 -25.1335 0
      vertex -2.05 -24.5 5
    endloop
  endfacet
  facet normal 0.98769 -0.156425 0
    outer loop
      vertex -2.05 -24.5 5
      vertex -2.05 -24.5 0
      vertex -1.94967 -23.8665 0
    endloop
  endfacet
  facet normal 0.98769 -0.156425 0
    outer loop
      vertex -1.94967 -23.8665 5
      vertex -2.05 -24.5 5
      vertex -1.94967 -23.8665 0
    endloop
  endfacet
  facet normal 0.891015 -0.453973 0
    outer loop
      vertex -1.94967 -23.8665 5
      vertex -1.94967 -23.8665 0
      vertex -1.65849 -23.295 5
    endloop
  endfacet
  facet normal 0.891009 -0.453986 1.78202e-06
    outer loop
      vertex -1.65849 -23.295 5
      vertex -1.94967 -23.8665 0
      vertex -1.65848 -23.295 0
    endloop
  endfacet
  facet normal 0.707083 -0.70713 1.41417e-06
    outer loop
      vertex -1.20496 -22.8415 5
      vertex -1.65849 -23.295 5
      vertex -1.65848 -23.295 0
    endloop
  endfacet
  facet normal 0.707091 -0.707122 0
    outer loop
      vertex -1.20496 -22.8415 5
      vertex -1.65848 -23.295 0
      vertex -1.20496 -22.8415 0
    endloop
  endfacet
  facet normal 0.454014 -0.890995 0
    outer loop
      vertex -1.20496 -22.8415 5
      vertex -1.20496 -22.8415 0
      vertex -0.633485 -22.5503 0
    endloop
  endfacet
  facet normal 0.454014 -0.890995 0
    outer loop
      vertex -0.633485 -22.5503 5
      vertex -1.20496 -22.8415 5
      vertex -0.633485 -22.5503 0
    endloop
  endfacet
  facet normal 0.156382 -0.987697 0
    outer loop
      vertex -0.633485 -22.5503 5
      vertex -0.633485 -22.5503 0
      vertex 0 -22.45 0
    endloop
  endfacet
  facet normal 0.156382 -0.987697 0
    outer loop
      vertex 0 -22.45 5
      vertex -0.633485 -22.5503 5
      vertex 0 -22.45 0
    endloop
  endfacet
  facet normal -0.156382 -0.987697 0
    outer loop
      vertex 0 -22.45 5
      vertex 0 -22.45 0
      vertex 0.633485 -22.5503 0
    endloop
  endfacet
  facet normal -0.156382 -0.987697 0
    outer loop
      vertex 0.633485 -22.5503 5
      vertex 0 -22.45 5
      vertex 0.633485 -22.5503 0
    endloop
  endfacet
  facet normal -0.454014 -0.890995 0
    outer loop
      vertex 0.633485 -22.5503 5
      vertex 0.633485 -22.5503 0
      vertex 1.20496 -22.8415 0
    endloop
  endfacet
  facet normal -0.454014 -0.890995 0
    outer loop
      vertex 1.20496 -22.8415 5
      vertex 0.633485 -22.5503 5
      vertex 1.20496 -22.8415 0
    endloop
  endfacet
  facet normal -0.707091 -0.707122 0
    outer loop
      vertex 1.20496 -22.8415 5
      vertex 1.20496 -22.8415 0
      vertex 1.65848 -23.295 0
    endloop
  endfacet
  facet normal -0.707091 -0.707122 0
    outer loop
      vertex 1.65848 -23.295 5
      vertex 1.20496 -22.8415 5
      vertex 1.65848 -23.295 0
    endloop
  endfacet
  facet normal -0.891009 -0.453986 -0
    outer loop
      vertex 1.65848 -23.295 0
      vertex 1.94967 -23.8665 0
      vertex 1.65848 -23.295 5
    endloop
  endfacet
  facet normal -0.891009 -0.453986 0
    outer loop
      vertex 1.65848 -23.295 5
      vertex 1.94967 -23.8665 0
      vertex 1.94967 -23.8665 5
    endloop
  endfacet
  facet normal -0.98769 -0.156425 -0
    outer loop
      vertex 1.94967 -23.8665 0
      vertex 2.05 -24.5 0
      vertex 1.94967 -23.8665 5
    endloop
  endfacet
  facet normal -0.98769 -0.156425 0
    outer loop
      vertex 1.94967 -23.8665 5
      vertex 2.05 -24.5 0
      vertex 2.05 -24.5 5
    endloop
  endfacet
  facet normal -0.98769 0.156425 0
    outer loop
      vertex 1.94967 -25.1335 0
      vertex 1.94967 -25.1335 5
      vertex 2.05 -24.5 0
    endloop
  endfacet
  facet normal -0.98769 0.156425 0
    outer loop
      vertex 2.05 -24.5 0
      vertex 1.94967 -25.1335 5
      vertex 2.05 -24.5 5
    endloop
  endfacet
  facet normal -0.891009 0.453986 0
    outer loop
      vertex 1.65848 -25.705 0
      vertex 1.65848 -25.705 5
      vertex 1.94967 -25.1335 0
    endloop
  endfacet
  facet normal -0.891009 0.453986 0
    outer loop
      vertex 1.94967 -25.1335 0
      vertex 1.65848 -25.705 5
      vertex 1.94967 -25.1335 5
    endloop
  endfacet
  facet normal -0.707091 0.707122 0
    outer loop
      vertex 1.20496 -26.1585 0
      vertex 1.20496 -26.1585 5
      vertex 1.65848 -25.705 0
    endloop
  endfacet
  facet normal -0.707091 0.707122 0
    outer loop
      vertex 1.65848 -25.705 0
      vertex 1.20496 -26.1585 5
      vertex 1.65848 -25.705 5
    endloop
  endfacet
  facet normal -0.454014 0.890995 0
    outer loop
      vertex 0.633485 -26.4497 0
      vertex 0.633485 -26.4497 5
      vertex 1.20496 -26.1585 0
    endloop
  endfacet
  facet normal -0.454014 0.890995 0
    outer loop
      vertex 1.20496 -26.1585 0
      vertex 0.633485 -26.4497 5
      vertex 1.20496 -26.1585 5
    endloop
  endfacet
  facet normal -0.156382 0.987697 0
    outer loop
      vertex 0 -26.55 0
      vertex 0 -26.55 5
      vertex 0.633485 -26.4497 0
    endloop
  endfacet
  facet normal -0.156382 0.987697 0
    outer loop
      vertex 0.633485 -26.4497 0
      vertex 0 -26.55 5
      vertex 0.633485 -26.4497 5
    endloop
  endfacet
  facet normal 0.156382 0.987697 0
    outer loop
      vertex -0.633485 -26.4497 0
      vertex -0.633485 -26.4497 5
      vertex 0 -26.55 0
    endloop
  endfacet
  facet normal 0.156382 0.987697 0
    outer loop
      vertex 0 -26.55 0
      vertex -0.633485 -26.4497 5
      vertex 0 -26.55 5
    endloop
  endfacet
  facet normal 0.454014 0.890995 0
    outer loop
      vertex -1.20496 -26.1585 0
      vertex -1.20496 -26.1585 5
      vertex -0.633485 -26.4497 0
    endloop
  endfacet
  facet normal 0.454014 0.890995 0
    outer loop
      vertex -0.633485 -26.4497 0
      vertex -1.20496 -26.1585 5
      vertex -0.633485 -26.4497 5
    endloop
  endfacet
  facet normal 0.707091 0.707122 0
    outer loop
      vertex -1.20496 -26.1585 0
      vertex -1.65848 -25.705 0
      vertex -1.20496 -26.1585 5
    endloop
  endfacet
  facet normal 0.891009 0.453986 1.78202e-06
    outer loop
      vertex -1.65848 -25.705 0
      vertex -1.94967 -25.1335 0
      vertex -1.65849 -25.705 5
    endloop
  endfacet
  facet normal 0.707083 0.70713 1.41417e-06
    outer loop
      vertex -1.65848 -25.705 0
      vertex -1.65849 -25.705 5
      vertex -1.20496 -26.1585 5
    endloop
  endfacet
  facet normal 0.891015 0.453973 0
    outer loop
      vertex -1.65849 -25.705 5
      vertex -1.94967 -25.1335 0
      vertex -1.94967 -25.1335 5
    endloop
  endfacet
  facet normal 0.98769 0.156425 0
    outer loop
      vertex -1.94967 23.8665 0
      vertex -2.05 24.5 0
      vertex -2.05 24.5 5
    endloop
  endfacet
  facet normal 0.98769 0.156425 -0
    outer loop
      vertex -1.94967 23.8665 5
      vertex -1.94967 23.8665 0
      vertex -2.05 24.5 5
    endloop
  endfacet
  facet normal 0.98769 -0.156425 0
    outer loop
      vertex -2.05 24.5 5
      vertex -2.05 24.5 0
      vertex -1.94967 25.1335 0
    endloop
  endfacet
  facet normal 0.98769 -0.156425 0
    outer loop
      vertex -1.94967 25.1335 5
      vertex -2.05 24.5 5
      vertex -1.94967 25.1335 0
    endloop
  endfacet
  facet normal 0.891015 -0.453973 0
    outer loop
      vertex -1.94967 25.1335 5
      vertex -1.94967 25.1335 0
      vertex -1.65849 25.705 5
    endloop
  endfacet
  facet normal 0.891009 -0.453986 1.78202e-06
    outer loop
      vertex -1.65849 25.705 5
      vertex -1.94967 25.1335 0
      vertex -1.65848 25.705 0
    endloop
  endfacet
  facet normal 0.707083 -0.70713 1.41417e-06
    outer loop
      vertex -1.20496 26.1585 5
      vertex -1.65849 25.705 5
      vertex -1.65848 25.705 0
    endloop
  endfacet
  facet normal 0.707091 -0.707122 0
    outer loop
      vertex -1.20496 26.1585 5
      vertex -1.65848 25.705 0
      vertex -1.20496 26.1585 0
    endloop
  endfacet
  facet normal 0.454014 -0.890995 0
    outer loop
      vertex -1.20496 26.1585 5
      vertex -1.20496 26.1585 0
      vertex -0.633485 26.4497 0
    endloop
  endfacet
  facet normal 0.454014 -0.890995 0
    outer loop
      vertex -0.633485 26.4497 5
      vertex -1.20496 26.1585 5
      vertex -0.633485 26.4497 0
    endloop
  endfacet
  facet normal 0.156382 -0.987697 0
    outer loop
      vertex -0.633485 26.4497 5
      vertex -0.633485 26.4497 0
      vertex 0 26.55 0
    endloop
  endfacet
  facet normal 0.156382 -0.987697 0
    outer loop
      vertex 0 26.55 5
      vertex -0.633485 26.4497 5
      vertex 0 26.55 0
    endloop
  endfacet
  facet normal -0.156382 -0.987697 0
    outer loop
      vertex 0 26.55 5
      vertex 0 26.55 0
      vertex 0.633485 26.4497 0
    endloop
  endfacet
  facet normal -0.156382 -0.987697 0
    outer loop
      vertex 0.633485 26.4497 5
      vertex 0 26.55 5
      vertex 0.633485 26.4497 0
    endloop
  endfacet
  facet normal -0.454014 -0.890995 0
    outer loop
      vertex 0.633485 26.4497 5
      vertex 0.633485 26.4497 0
      vertex 1.20496 26.1585 0
    endloop
  endfacet
  facet normal -0.454014 -0.890995 0
    outer loop
      vertex 1.20496 26.1585 5
      vertex 0.633485 26.4497 5
      vertex 1.20496 26.1585 0
    endloop
  endfacet
  facet normal -0.707091 -0.707122 0
    outer loop
      vertex 1.20496 26.1585 5
      vertex 1.20496 26.1585 0
      vertex 1.65848 25.705 0
    endloop
  endfacet
  facet normal -0.707091 -0.707122 0
    outer loop
      vertex 1.65848 25.705 5
      vertex 1.20496 26.1585 5
      vertex 1.65848 25.705 0
    endloop
  endfacet
  facet normal -0.891009 -0.453986 -0
    outer loop
      vertex 1.65848 25.705 0
      vertex 1.94967 25.1335 0
      vertex 1.65848 25.705 5
    endloop
  endfacet
  facet normal -0.891009 -0.453986 0
    outer loop
      vertex 1.65848 25.705 5
      vertex 1.94967 25.1335 0
      vertex 1.94967 25.1335 5
    endloop
  endfacet
  facet normal -0.98769 -0.156425 -0
    outer loop
      vertex 1.94967 25.1335 0
      vertex 2.05 24.5 0
      vertex 1.94967 25.1335 5
    endloop
  endfacet
  facet normal -0.98769 -0.156425 0
    outer loop
      vertex 1.94967 25.1335 5
      vertex 2.05 24.5 0
      vertex 2.05 24.5 5
    endloop
  endfacet
  facet normal -0.98769 0.156425 0
    outer loop
      vertex 1.94967 23.8665 0
      vertex 1.94967 23.8665 5
      vertex 2.05 24.5 0
    endloop
  endfacet
  facet normal -0.98769 0.156425 0
    outer loop
      vertex 2.05 24.5 0
      vertex 1.94967 23.8665 5
      vertex 2.05 24.5 5
    endloop
  endfacet
  facet normal -0.891009 0.453986 0
    outer loop
      vertex 1.65848 23.295 0
      vertex 1.65848 23.295 5
      vertex 1.94967 23.8665 0
    endloop
  endfacet
  facet normal -0.891009 0.453986 0
    outer loop
      vertex 1.94967 23.8665 0
      vertex 1.65848 23.295 5
      vertex 1.94967 23.8665 5
    endloop
  endfacet
  facet normal -0.707091 0.707122 0
    outer loop
      vertex 1.20496 22.8415 0
      vertex 1.20496 22.8415 5
      vertex 1.65848 23.295 0
    endloop
  endfacet
  facet normal -0.707091 0.707122 0
    outer loop
      vertex 1.65848 23.295 0
      vertex 1.20496 22.8415 5
      vertex 1.65848 23.295 5
    endloop
  endfacet
  facet normal -0.454014 0.890995 0
    outer loop
      vertex 0.633485 22.5503 0
      vertex 0.633485 22.5503 5
      vertex 1.20496 22.8415 0
    endloop
  endfacet
  facet normal -0.454014 0.890995 0
    outer loop
      vertex 1.20496 22.8415 0
      vertex 0.633485 22.5503 5
      vertex 1.20496 22.8415 5
    endloop
  endfacet
  facet normal -0.156382 0.987697 0
    outer loop
      vertex 0 22.45 0
      vertex 0 22.45 5
      vertex 0.633485 22.5503 0
    endloop
  endfacet
  facet normal -0.156382 0.987697 0
    outer loop
      vertex 0.633485 22.5503 0
      vertex 0 22.45 5
      vertex 0.633485 22.5503 5
    endloop
  endfacet
  facet normal 0.156382 0.987697 0
    outer loop
      vertex -0.633485 22.5503 0
      vertex -0.633485 22.5503 5
      vertex 0 22.45 0
    endloop
  endfacet
  facet normal 0.156382 0.987697 0
    outer loop
      vertex 0 22.45 0
      vertex -0.633485 22.5503 5
      vertex 0 22.45 5
    endloop
  endfacet
  facet normal 0.454014 0.890995 0
    outer loop
      vertex -1.20496 22.8415 0
      vertex -1.20496 22.8415 5
      vertex -0.633485 22.5503 0
    endloop
  endfacet
  facet normal 0.454014 0.890995 0
    outer loop
      vertex -0.633485 22.5503 0
      vertex -1.20496 22.8415 5
      vertex -0.633485 22.5503 5
    endloop
  endfacet
  facet normal 0.707091 0.707122 0
    outer loop
      vertex -1.20496 22.8415 0
      vertex -1.65848 23.295 0
      vertex -1.20496 22.8415 5
    endloop
  endfacet
  facet normal 0.891009 0.453986 1.78202e-06
    outer loop
      vertex -1.65848 23.295 0
      vertex -1.94967 23.8665 0
      vertex -1.65849 23.295 5
    endloop
  endfacet
  facet normal 0.707083 0.70713 1.41417e-06
    outer loop
      vertex -1.65848 23.295 0
      vertex -1.65849 23.295 5
      vertex -1.20496 22.8415 5
    endloop
  endfacet
  facet normal 0.891015 0.453973 0
    outer loop
      vertex -1.65849 23.295 5
      vertex -1.94967 23.8665 0
      vertex -1.94967 23.8665 5
    endloop
  endfacet
  facet normal 0 -0 1
    outer loop
      vertex 0.633485 -26.4497 5
      vertex -8.5 -31.4119 5
      vertex 13.0112 -31.4119 5
    endloop
  endfacet
  facet normal 0 0 1
    outer loop
      vertex 1.20496 -22.8415 5
      vertex 1.65848 -23.295 5
      vertex 14.6227 -29.8004 5
    endloop
  endfacet
  facet normal 0 0 1
    outer loop
      vertex 0 -22.45 5
      vertex -7.36249 -18.5955 5
      vertex -8.5 -18.1033 5
    endloop
  endfacet
  facet normal 0 -0 1
    outer loop
      vertex 12.7485 -15.4103 5
      vertex 11.7557 -16.1803 5
      vertex 30.1483 -14.2748 5
    endloop
  endfacet
  facet normal 0 -0 1
    outer loop
      vertex 19.0211 -6.18034 5
      vertex 18.5955 -7.36249 5
      vertex 27.25 -3.75265 5
    endloop
  endfacet
  facet normal 0 0 1
    outer loop
      vertex 31.4119 -1.76292 5
      vertex 27.25 -3.75265 5
      vertex 31.4119 -13.0112 5
    endloop
  endfacet
  facet normal 0 0 1
    outer loop
      vertex 0 -22.45 5
      vertex 0.633485 -22.5503 5
      vertex -6.18034 -19.0211 5
    endloop
  endfacet
  facet normal 0 -0 1
    outer loop
      vertex 19.8423 -2.50666 5
      vertex 19.6457 -3.74763 5
      vertex 22.25 -1.76292 5
    endloop
  endfacet
  facet normal 0 0 1
    outer loop
      vertex -1.20496 -22.8415 5
      vertex -0.633485 -22.5503 5
      vertex -8.5 -18.1033 5
    endloop
  endfacet
  facet normal 0 0 1
    outer loop
      vertex 19.3717 -4.9738 5
      vertex 24.0209 -3.75265 5
      vertex 22.25 -3.75265 5
    endloop
  endfacet
  facet normal 0 -0 1
    outer loop
      vertex 19.9126 -1.76292 5
      vertex 19.8423 -2.50666 5
      vertex 22.25 -1.76292 5
    endloop
  endfacet
  facet normal 0 0 1
    outer loop
      vertex 22.25 -1.76292 5
      vertex 19.6457 -3.74763 5
      vertex 22.25 -3.75265 5
    endloop
  endfacet
  facet normal 0 -0 1
    outer loop
      vertex 19.6457 -3.74763 5
      vertex 19.3717 -4.9738 5
      vertex 22.25 -3.75265 5
    endloop
  endfacet
  facet normal 0 -0 1
    outer loop
      vertex 19.3717 -4.9738 5
      vertex 19.0211 -6.18034 5
      vertex 24.0209 -3.75265 5
    endloop
  endfacet
  facet normal 0 -0 1
    outer loop
      vertex 27.25 -3.75265 5
      vertex 18.5955 -7.36249 5
      vertex 31.4119 -13.0112 5
    endloop
  endfacet
  facet normal 0 -0 1
    outer loop
      vertex 18.5955 -7.36249 5
      vertex 18.0965 -8.51559 5
      vertex 31.4119 -13.0112 5
    endloop
  endfacet
  facet normal 0 -0 1
    outer loop
      vertex 18.0965 -8.51559 5
      vertex 17.5261 -9.63507 5
      vertex 31.4119 -13.0112 5
    endloop
  endfacet
  facet normal 0 -0 1
    outer loop
      vertex 17.5261 -9.63507 5
      vertex 16.8866 -10.7165 5
      vertex 31.4119 -13.0112 5
    endloop
  endfacet
  facet normal 0 -0 1
    outer loop
      vertex 16.8866 -10.7165 5
      vertex 16.1803 -11.7557 5
      vertex 31.4119 -13.0112 5
    endloop
  endfacet
  facet normal 0 -0 1
    outer loop
      vertex 16.1803 -11.7557 5
      vertex 15.4103 -12.7485 5
      vertex 31.4119 -13.0112 5
    endloop
  endfacet
  facet normal 0 -0 1
    outer loop
      vertex 15.4103 -12.7485 5
      vertex 14.5794 -13.6909 5
      vertex 31.4119 -13.0112 5
    endloop
  endfacet
  facet normal 0 -0 1
    outer loop
      vertex 14.5794 -13.6909 5
      vertex 13.6909 -14.5794 5
      vertex 31.4119 -13.0112 5
    endloop
  endfacet
  facet normal 0 0 1
    outer loop
      vertex 31.4119 -13.0112 5
      vertex 12.7485 -15.4103 5
      vertex 30.1483 -14.2748 5
    endloop
  endfacet
  facet normal 0 0 1
    outer loop
      vertex 30.1483 -14.2748 5
      vertex 11.7557 -16.1803 5
      vertex 14.6227 -29.8004 5
    endloop
  endfacet
  facet normal 0 -0 1
    outer loop
      vertex 11.7557 -16.1803 5
      vertex 10.7165 -16.8866 5
      vertex 14.6227 -29.8004 5
    endloop
  endfacet
  facet normal 0 -0 1
    outer loop
      vertex 10.7165 -16.8866 5
      vertex 9.63507 -17.5261 5
      vertex 14.6227 -29.8004 5
    endloop
  endfacet
  facet normal 0 -0 1
    outer loop
      vertex 9.63507 -17.5261 5
      vertex 8.51559 -18.0965 5
      vertex 14.6227 -29.8004 5
    endloop
  endfacet
  facet normal 0 -0 1
    outer loop
      vertex 8.51559 -18.0965 5
      vertex 7.36249 -18.5955 5
      vertex 14.6227 -29.8004 5
    endloop
  endfacet
  facet normal 0 -0 1
    outer loop
      vertex 7.36249 -18.5955 5
      vertex 6.18034 -19.0211 5
      vertex 14.6227 -29.8004 5
    endloop
  endfacet
  facet normal 0 -0 1
    outer loop
      vertex 6.18034 -19.0211 5
      vertex 4.9738 -19.3717 5
      vertex 14.6227 -29.8004 5
    endloop
  endfacet
  facet normal 0 -0 1
    outer loop
      vertex 4.9738 -19.3717 5
      vertex 3.74763 -19.6457 5
      vertex 14.6227 -29.8004 5
    endloop
  endfacet
  facet normal 0 -0 1
    outer loop
      vertex 3.74763 -19.6457 5
      vertex 2.50667 -19.8423 5
      vertex 14.6227 -29.8004 5
    endloop
  endfacet
  facet normal 0 -0 1
    outer loop
      vertex 2.50667 -19.8423 5
      vertex 1.25581 -19.9605 5
      vertex 14.6227 -29.8004 5
    endloop
  endfacet
  facet normal 0 -0 1
    outer loop
      vertex 1.25581 -19.9605 5
      vertex 0 -20 5
      vertex 14.6227 -29.8004 5
    endloop
  endfacet
  facet normal -0 -0 1
    outer loop
      vertex 0 -20 5
      vertex -1.25581 -19.9605 5
      vertex 14.6227 -29.8004 5
    endloop
  endfacet
  facet normal -0 -0 1
    outer loop
      vertex -1.25581 -19.9605 5
      vertex -2.50666 -19.8423 5
      vertex 14.6227 -29.8004 5
    endloop
  endfacet
  facet normal -0 -0 1
    outer loop
      vertex -2.50666 -19.8423 5
      vertex -3.74763 -19.6457 5
      vertex 14.6227 -29.8004 5
    endloop
  endfacet
  facet normal -0 -0 1
    outer loop
      vertex -3.74763 -19.6457 5
      vertex -4.9738 -19.3717 5
      vertex 14.6227 -29.8004 5
    endloop
  endfacet
  facet normal 0 -0 1
    outer loop
      vertex -8.5 -18.1033 5
      vertex -8.5 -31.4119 5
      vertex -1.94967 -25.1335 5
    endloop
  endfacet
  facet normal 0 -0 1
    outer loop
      vertex 1.20496 -26.1585 5
      vertex 0.633485 -26.4497 5
      vertex 13.0112 -31.4119 5
    endloop
  endfacet
  facet normal 0 0 1
    outer loop
      vertex -8.5 -18.1033 5
      vertex -1.94967 -25.1335 5
      vertex -2.05 -24.5 5
    endloop
  endfacet
  facet normal 0 -0 1
    outer loop
      vertex 1.65848 -25.705 5
      vertex 1.20496 -26.1585 5
      vertex 13.0112 -31.4119 5
    endloop
  endfacet
  facet normal 0 0 1
    outer loop
      vertex -8.5 -18.1033 5
      vertex -2.05 -24.5 5
      vertex -1.94967 -23.8665 5
    endloop
  endfacet
  facet normal 0 0 1
    outer loop
      vertex -8.5 -18.1033 5
      vertex -1.94967 -23.8665 5
      vertex -1.65849 -23.295 5
    endloop
  endfacet
  facet normal 0 0 1
    outer loop
      vertex 0 -22.45 5
      vertex -6.18034 -19.0211 5
      vertex -7.36249 -18.5955 5
    endloop
  endfacet
  facet normal 0 0 1
    outer loop
      vertex -8.5 -18.1033 5
      vertex -1.65849 -23.295 5
      vertex -1.20496 -22.8415 5
    endloop
  endfacet
  facet normal 0 -0 1
    outer loop
      vertex 2.05 -24.5 5
      vertex 1.94967 -25.1335 5
      vertex 13.0112 -31.4119 5
    endloop
  endfacet
  facet normal -0 0 1
    outer loop
      vertex 0 -22.45 5
      vertex -8.5 -18.1033 5
      vertex -0.633485 -22.5503 5
    endloop
  endfacet
  facet normal 0 -0 1
    outer loop
      vertex 1.94967 -25.1335 5
      vertex 1.65848 -25.705 5
      vertex 13.0112 -31.4119 5
    endloop
  endfacet
  facet normal -0 -0 1
    outer loop
      vertex -4.9738 -19.3717 5
      vertex -6.18034 -19.0211 5
      vertex 0.633485 -22.5503 5
    endloop
  endfacet
  facet normal 0 0 1
    outer loop
      vertex -4.9738 -19.3717 5
      vertex 1.20496 -22.8415 5
      vertex 14.6227 -29.8004 5
    endloop
  endfacet
  facet normal 0 0 1
    outer loop
      vertex -4.9738 -19.3717 5
      vertex 0.633485 -22.5503 5
      vertex 1.20496 -22.8415 5
    endloop
  endfacet
  facet normal 0 0 1
    outer loop
      vertex 1.94967 -23.8665 5
      vertex 2.05 -24.5 5
      vertex 13.0112 -31.4119 5
    endloop
  endfacet
  facet normal -0 0 1
    outer loop
      vertex 14.6227 -29.8004 5
      vertex 1.94967 -23.8665 5
      vertex 13.0112 -31.4119 5
    endloop
  endfacet
  facet normal 0 0 1
    outer loop
      vertex 1.65848 -23.295 5
      vertex 1.94967 -23.8665 5
      vertex 14.6227 -29.8004 5
    endloop
  endfacet
  facet normal 0 -0 1
    outer loop
      vertex 0 -26.55 5
      vertex -8.5 -31.4119 5
      vertex 0.633485 -26.4497 5
    endloop
  endfacet
  facet normal 0 -0 1
    outer loop
      vertex -0.633485 -26.4497 5
      vertex -8.5 -31.4119 5
      vertex 0 -26.55 5
    endloop
  endfacet
  facet normal 0 -0 1
    outer loop
      vertex -1.20496 -26.1585 5
      vertex -8.5 -31.4119 5
      vertex -0.633485 -26.4497 5
    endloop
  endfacet
  facet normal 0 -0 1
    outer loop
      vertex -1.65849 -25.705 5
      vertex -8.5 -31.4119 5
      vertex -1.20496 -26.1585 5
    endloop
  endfacet
  facet normal 0 -0 1
    outer loop
      vertex -1.94967 -25.1335 5
      vertex -8.5 -31.4119 5
      vertex -1.65849 -25.705 5
    endloop
  endfacet
  facet normal 0 -0 1
    outer loop
      vertex 13.6909 -14.5794 5
      vertex 12.7485 -15.4103 5
      vertex 31.4119 -13.0112 5
    endloop
  endfacet
  facet normal 0 0 1
    outer loop
      vertex 27.25 -3.75265 5
      vertex 24.0209 -3.75265 5
      vertex 19.0211 -6.18034 5
    endloop
  endfacet
  facet normal 0 -0 1
    outer loop
      vertex 27.25 -1.76292 5
      vertex 27.25 -3.75265 5
      vertex 31.4119 -1.76292 5
    endloop
  endfacet
  facet normal 0 0.890999 0.454005
    outer loop
      vertex 27.25 -1.76292 5
      vertex 31.4119 -1.76292 5
      vertex 27.25 -1.65848 4.79504
    endloop
  endfacet
  facet normal 0 0.890999 0.454005
    outer loop
      vertex 27.25 -1.65848 4.79504
      vertex 31.4119 -1.76292 5
      vertex 31.4119 -1.65848 4.79504
    endloop
  endfacet
  facet normal 0 0.707115 0.707099
    outer loop
      vertex 27.25 -1.65848 4.79504
      vertex 31.4119 -1.65848 4.79504
      vertex 27.25 -1.20496 4.34151
    endloop
  endfacet
  facet normal 0 0.707115 0.707099
    outer loop
      vertex 27.25 -1.20496 4.34151
      vertex 31.4119 -1.65848 4.79504
      vertex 31.4119 -1.20496 4.34151
    endloop
  endfacet
  facet normal 0 0.453989 0.891007
    outer loop
      vertex 27.25 -0.633485 4.05033
      vertex 27.25 -1.20496 4.34151
      vertex 31.4119 -1.20496 4.34151
    endloop
  endfacet
  facet normal -0 0.453989 0.891007
    outer loop
      vertex 31.4119 -0.633485 4.05033
      vertex 27.25 -0.633485 4.05033
      vertex 31.4119 -1.20496 4.34151
    endloop
  endfacet
  facet normal 0 0.156428 0.987689
    outer loop
      vertex 27.25 0 3.95
      vertex 27.25 -0.633485 4.05033
      vertex 31.4119 -0.633485 4.05033
    endloop
  endfacet
  facet normal -0 0.156428 0.987689
    outer loop
      vertex 31.4119 0 3.95
      vertex 27.25 0 3.95
      vertex 31.4119 -0.633485 4.05033
    endloop
  endfacet
  facet normal 0 -0.156428 0.987689
    outer loop
      vertex 27.25 0.633485 4.05033
      vertex 27.25 0 3.95
      vertex 31.4119 0 3.95
    endloop
  endfacet
  facet normal 0 -0.156428 0.987689
    outer loop
      vertex 31.4119 0.633485 4.05033
      vertex 27.25 0.633485 4.05033
      vertex 31.4119 0 3.95
    endloop
  endfacet
  facet normal 0 -0.453989 0.891007
    outer loop
      vertex 27.25 1.20496 4.34151
      vertex 27.25 0.633485 4.05033
      vertex 31.4119 0.633485 4.05033
    endloop
  endfacet
  facet normal 0 -0.453989 0.891007
    outer loop
      vertex 31.4119 1.20496 4.34151
      vertex 27.25 1.20496 4.34151
      vertex 31.4119 0.633485 4.05033
    endloop
  endfacet
  facet normal 0 -0.707115 0.707099
    outer loop
      vertex 27.25 1.65848 4.79504
      vertex 27.25 1.20496 4.34151
      vertex 31.4119 1.20496 4.34151
    endloop
  endfacet
  facet normal 0 -0.707115 0.707099
    outer loop
      vertex 31.4119 1.65848 4.79504
      vertex 27.25 1.65848 4.79504
      vertex 31.4119 1.20496 4.34151
    endloop
  endfacet
  facet normal 0 -0.890999 0.454005
    outer loop
      vertex 27.25 1.76292 5
      vertex 27.25 1.65848 4.79504
      vertex 31.4119 1.65848 4.79504
    endloop
  endfacet
  facet normal 0 -0.890999 0.454005
    outer loop
      vertex 31.4119 1.76292 5
      vertex 27.25 1.76292 5
      vertex 31.4119 1.65848 4.79504
    endloop
  endfacet
  facet normal 0 0 1
    outer loop
      vertex -4.9738 19.3717 5
      vertex -3.74763 19.6457 5
      vertex -8.5 31.4119 5
    endloop
  endfacet
  facet normal 0 -0 1
    outer loop
      vertex -8.5 31.4119 5
      vertex -8.5 18.1033 5
      vertex -7.36249 18.5955 5
    endloop
  endfacet
  facet normal 0 0 1
    outer loop
      vertex -3.74763 19.6457 5
      vertex -2.50667 19.8423 5
      vertex -8.5 31.4119 5
    endloop
  endfacet
  facet normal -0 0 1
    outer loop
      vertex -6.18034 19.0211 5
      vertex -8.5 31.4119 5
      vertex -7.36249 18.5955 5
    endloop
  endfacet
  facet normal 0 0 1
    outer loop
      vertex -6.18034 19.0211 5
      vertex -4.9738 19.3717 5
      vertex -8.5 31.4119 5
    endloop
  endfacet
  facet normal 0 0 1
    outer loop
      vertex -2.50667 19.8423 5
      vertex -1.25581 19.9605 5
      vertex -8.5 31.4119 5
    endloop
  endfacet
  facet normal 0 0 1
    outer loop
      vertex -1.25581 19.9605 5
      vertex 0 20 5
      vertex -8.5 31.4119 5
    endloop
  endfacet
  facet normal 0 0 1
    outer loop
      vertex -1.94967 25.1335 5
      vertex -1.65849 25.705 5
      vertex -8.5 31.4119 5
    endloop
  endfacet
  facet normal -0 -0 1
    outer loop
      vertex 0 22.45 5
      vertex -0.633485 22.5503 5
      vertex 2.50666 19.8423 5
    endloop
  endfacet
  facet normal 0 0 1
    outer loop
      vertex 1.65848 23.295 5
      vertex 6.18034 19.0211 5
      vertex 7.36249 18.5955 5
    endloop
  endfacet
  facet normal 0 -0 1
    outer loop
      vertex 1.94967 23.8665 5
      vertex 1.65848 23.295 5
      vertex 8.51559 18.0965 5
    endloop
  endfacet
  facet normal 0 0 1
    outer loop
      vertex 1.94967 23.8665 5
      vertex 8.51559 18.0965 5
      vertex 9.63507 17.5261 5
    endloop
  endfacet
  facet normal 0 0 1
    outer loop
      vertex 1.94967 23.8665 5
      vertex 9.63507 17.5261 5
      vertex 10.7165 16.8866 5
    endloop
  endfacet
  facet normal 0 0 1
    outer loop
      vertex 1.94967 23.8665 5
      vertex 10.7165 16.8866 5
      vertex 11.7557 16.1803 5
    endloop
  endfacet
  facet normal 0 0 1
    outer loop
      vertex 1.20496 26.1585 5
      vertex 1.65848 25.705 5
      vertex 31.4119 13.0112 5
    endloop
  endfacet
  facet normal 0 0 1
    outer loop
      vertex 12.7485 15.4103 5
      vertex 31.4119 1.76292 5
      vertex 11.7557 16.1803 5
    endloop
  endfacet
  facet normal 0 0 1
    outer loop
      vertex 13.6909 14.5794 5
      vertex 27.25 3.75265 5
      vertex 12.7485 15.4103 5
    endloop
  endfacet
  facet normal 0 0 1
    outer loop
      vertex 14.5794 13.6909 5
      vertex 24.882 3.75265 5
      vertex 13.6909 14.5794 5
    endloop
  endfacet
  facet normal 0 0 1
    outer loop
      vertex 15.4103 12.7485 5
      vertex 24.0209 3.75265 5
      vertex 14.5794 13.6909 5
    endloop
  endfacet
  facet normal 0 0 1
    outer loop
      vertex 16.1803 11.7557 5
      vertex 24.0209 3.75265 5
      vertex 15.4103 12.7485 5
    endloop
  endfacet
  facet normal 0 0 1
    outer loop
      vertex 16.8866 10.7165 5
      vertex 22.25 3.75265 5
      vertex 16.1803 11.7557 5
    endloop
  endfacet
  facet normal 0 0 1
    outer loop
      vertex 17.5261 9.63507 5
      vertex 22.25 1.76292 5
      vertex 16.8866 10.7165 5
    endloop
  endfacet
  facet normal 0 0 1
    outer loop
      vertex 18.0965 8.51559 5
      vertex 22.25 1.76292 5
      vertex 17.5261 9.63507 5
    endloop
  endfacet
  facet normal 0 0 1
    outer loop
      vertex 18.5955 7.36249 5
      vertex 22.25 1.76292 5
      vertex 18.0965 8.51559 5
    endloop
  endfacet
  facet normal 0 0 1
    outer loop
      vertex 19.0211 6.18034 5
      vertex 22.25 1.76292 5
      vertex 18.5955 7.36249 5
    endloop
  endfacet
  facet normal 0 0 1
    outer loop
      vertex 19.3717 4.9738 5
      vertex 22.25 1.76292 5
      vertex 19.0211 6.18034 5
    endloop
  endfacet
  facet normal 0 0 1
    outer loop
      vertex 19.6457 3.74763 5
      vertex 22.25 1.76292 5
      vertex 19.3717 4.9738 5
    endloop
  endfacet
  facet normal 0 0 1
    outer loop
      vertex 19.8423 2.50667 5
      vertex 22.25 1.76292 5
      vertex 19.6457 3.74763 5
    endloop
  endfacet
  facet normal 0 0 1
    outer loop
      vertex 27.25 3.75265 5
      vertex 31.4119 1.76292 5
      vertex 12.7485 15.4103 5
    endloop
  endfacet
  facet normal 0 0 1
    outer loop
      vertex 19.9126 1.76292 5
      vertex 22.25 1.76292 5
      vertex 19.8423 2.50667 5
    endloop
  endfacet
  facet normal 0 0 1
    outer loop
      vertex 22.25 1.76292 5
      vertex 22.25 3.75265 5
      vertex 16.8866 10.7165 5
    endloop
  endfacet
  facet normal 0 0 1
    outer loop
      vertex 15.8863 28.5368 5
      vertex 14.6227 29.8004 5
      vertex -8.5 31.4119 5
    endloop
  endfacet
  facet normal 0 0 1
    outer loop
      vertex 22.25 3.75265 5
      vertex 24.0209 3.75265 5
      vertex 16.1803 11.7557 5
    endloop
  endfacet
  facet normal 0 0 1
    outer loop
      vertex 24.0209 3.75265 5
      vertex 24.882 3.75265 5
      vertex 14.5794 13.6909 5
    endloop
  endfacet
  facet normal 0 0 1
    outer loop
      vertex 24.882 3.75265 5
      vertex 27.25 3.75265 5
      vertex 13.6909 14.5794 5
    endloop
  endfacet
  facet normal 0 0 1
    outer loop
      vertex 27.25 1.76292 5
      vertex 31.4119 1.76292 5
      vertex 27.25 3.75265 5
    endloop
  endfacet
  facet normal 0 0 1
    outer loop
      vertex 0.633485 26.4497 5
      vertex 31.4119 13.0112 5
      vertex -8.5 31.4119 5
    endloop
  endfacet
  facet normal 0 0 1
    outer loop
      vertex 31.4119 13.0112 5
      vertex 15.8863 28.5368 5
      vertex -8.5 31.4119 5
    endloop
  endfacet
  facet normal 0 0 1
    outer loop
      vertex 14.6227 29.8004 5
      vertex 13.0112 31.4119 5
      vertex -8.5 31.4119 5
    endloop
  endfacet
  facet normal 0 0 1
    outer loop
      vertex -1.94967 23.8665 5
      vertex -2.05 24.5 5
      vertex -8.5 31.4119 5
    endloop
  endfacet
  facet normal -0 -0 1
    outer loop
      vertex -0.633485 22.5503 5
      vertex -1.20496 22.8415 5
      vertex 1.25581 19.9605 5
    endloop
  endfacet
  facet normal 0 -0 1
    outer loop
      vertex 0.633485 22.5503 5
      vertex 0 22.45 5
      vertex 2.50666 19.8423 5
    endloop
  endfacet
  facet normal 0 0 1
    outer loop
      vertex 1.20496 22.8415 5
      vertex 3.74763 19.6457 5
      vertex 4.9738 19.3717 5
    endloop
  endfacet
  facet normal 0 0 1
    outer loop
      vertex -1.20496 26.1585 5
      vertex -0.633485 26.4497 5
      vertex -8.5 31.4119 5
    endloop
  endfacet
  facet normal 0 0 1
    outer loop
      vertex -0.633485 26.4497 5
      vertex 0 26.55 5
      vertex -8.5 31.4119 5
    endloop
  endfacet
  facet normal 0 0 1
    outer loop
      vertex 0 26.55 5
      vertex 0.633485 26.4497 5
      vertex -8.5 31.4119 5
    endloop
  endfacet
  facet normal 0 0 1
    outer loop
      vertex 1.20496 26.1585 5
      vertex 31.4119 13.0112 5
      vertex 0.633485 26.4497 5
    endloop
  endfacet
  facet normal 0 0 1
    outer loop
      vertex 1.65848 25.705 5
      vertex 1.94967 25.1335 5
      vertex 31.4119 13.0112 5
    endloop
  endfacet
  facet normal 0 0 1
    outer loop
      vertex 1.94967 25.1335 5
      vertex 2.05 24.5 5
      vertex 31.4119 13.0112 5
    endloop
  endfacet
  facet normal 0 0 1
    outer loop
      vertex 1.94967 23.8665 5
      vertex 11.7557 16.1803 5
      vertex 31.4119 1.76292 5
    endloop
  endfacet
  facet normal 0 0 1
    outer loop
      vertex 31.4119 1.76292 5
      vertex 31.4119 13.0112 5
      vertex 2.05 24.5 5
    endloop
  endfacet
  facet normal 0 0 1
    outer loop
      vertex 31.4119 1.76292 5
      vertex 2.05 24.5 5
      vertex 1.94967 23.8665 5
    endloop
  endfacet
  facet normal 0 0 1
    outer loop
      vertex 7.36249 18.5955 5
      vertex 8.51559 18.0965 5
      vertex 1.65848 23.295 5
    endloop
  endfacet
  facet normal 0 -0 1
    outer loop
      vertex 1.65848 23.295 5
      vertex 1.20496 22.8415 5
      vertex 6.18034 19.0211 5
    endloop
  endfacet
  facet normal 0 0 1
    outer loop
      vertex 4.9738 19.3717 5
      vertex 6.18034 19.0211 5
      vertex 1.20496 22.8415 5
    endloop
  endfacet
  facet normal 0 0 1
    outer loop
      vertex 2.50666 19.8423 5
      vertex 3.74763 19.6457 5
      vertex 0.633485 22.5503 5
    endloop
  endfacet
  facet normal 0 0 1
    outer loop
      vertex 1.25581 19.9605 5
      vertex 2.50666 19.8423 5
      vertex -0.633485 22.5503 5
    endloop
  endfacet
  facet normal 0 0 1
    outer loop
      vertex 0 20 5
      vertex 1.25581 19.9605 5
      vertex -1.20496 22.8415 5
    endloop
  endfacet
  facet normal 0 0 1
    outer loop
      vertex 0 20 5
      vertex -1.65849 23.295 5
      vertex -8.5 31.4119 5
    endloop
  endfacet
  facet normal 0 0 1
    outer loop
      vertex 0 20 5
      vertex -1.20496 22.8415 5
      vertex -1.65849 23.295 5
    endloop
  endfacet
  facet normal 0 0 1
    outer loop
      vertex -1.65849 23.295 5
      vertex -1.94967 23.8665 5
      vertex -8.5 31.4119 5
    endloop
  endfacet
  facet normal 0 0 1
    outer loop
      vertex -2.05 24.5 5
      vertex -1.94967 25.1335 5
      vertex -8.5 31.4119 5
    endloop
  endfacet
  facet normal 0 -0 1
    outer loop
      vertex 1.20496 22.8415 5
      vertex 0.633485 22.5503 5
      vertex 3.74763 19.6457 5
    endloop
  endfacet
  facet normal 0 0 1
    outer loop
      vertex -1.65849 25.705 5
      vertex -1.20496 26.1585 5
      vertex -8.5 31.4119 5
    endloop
  endfacet
  facet normal 0 -0.890993 0.454017
    outer loop
      vertex 22.25 1.76292 5
      vertex 19.9126 1.76292 5
      vertex 19.9225 1.65848 4.79504
    endloop
  endfacet
  facet normal 0 -0.890993 0.454017
    outer loop
      vertex 22.25 1.65848 4.79504
      vertex 22.25 1.76292 5
      vertex 19.9225 1.65848 4.79504
    endloop
  endfacet
  facet normal 0 -0.707107 0.707107
    outer loop
      vertex 22.25 1.65848 4.79504
      vertex 19.9225 1.65848 4.79504
      vertex 19.9605 1.25581 4.39237
    endloop
  endfacet
  facet normal -7.56063e-17 -0.707107 0.707107
    outer loop
      vertex 22.25 1.65848 4.79504
      vertex 19.9605 1.25581 4.39237
      vertex 22.25 1.20496 4.34152
    endloop
  endfacet
  facet normal 0 -0.707107 0.707107
    outer loop
      vertex 22.25 1.20496 4.34152
      vertex 19.9605 1.25581 4.39237
      vertex 19.9621 1.20496 4.34152
    endloop
  endfacet
  facet normal 0 -0.454002 0.891001
    outer loop
      vertex 22.25 1.20496 4.34152
      vertex 19.9621 1.20496 4.34152
      vertex 19.9801 0.633485 4.05033
    endloop
  endfacet
  facet normal 0 -0.454002 0.891001
    outer loop
      vertex 22.25 0.633485 4.05033
      vertex 22.25 1.20496 4.34152
      vertex 19.9801 0.633485 4.05033
    endloop
  endfacet
  facet normal 0 -0.156428 0.987689
    outer loop
      vertex 22.25 0.633485 4.05033
      vertex 19.9801 0.633485 4.05033
      vertex 20 0 3.95
    endloop
  endfacet
  facet normal 0 -0.156428 0.987689
    outer loop
      vertex 22.25 0 3.95
      vertex 22.25 0.633485 4.05033
      vertex 20 0 3.95
    endloop
  endfacet
  facet normal 0 0.156428 0.987689
    outer loop
      vertex 20 0 3.95
      vertex 19.9801 -0.633485 4.05033
      vertex 22.25 -0.633485 4.05033
    endloop
  endfacet
  facet normal -0 0.156428 0.987689
    outer loop
      vertex 22.25 0 3.95
      vertex 20 0 3.95
      vertex 22.25 -0.633485 4.05033
    endloop
  endfacet
  facet normal 0 0.454002 0.891001
    outer loop
      vertex 19.9801 -0.633485 4.05033
      vertex 19.9621 -1.20496 4.34152
      vertex 22.25 -1.20496 4.34152
    endloop
  endfacet
  facet normal -0 0.454002 0.891001
    outer loop
      vertex 22.25 -0.633485 4.05033
      vertex 19.9801 -0.633485 4.05033
      vertex 22.25 -1.20496 4.34152
    endloop
  endfacet
  facet normal -0 0.707107 0.707107
    outer loop
      vertex 22.25 -1.20496 4.34152
      vertex 19.9621 -1.20496 4.34152
      vertex 22.25 -1.65848 4.79504
    endloop
  endfacet
  facet normal -2.73965e-05 0.707038 0.707176
    outer loop
      vertex 19.9621 -1.20496 4.34152
      vertex 19.9605 -1.25581 4.39236
      vertex 22.25 -1.65848 4.79504
    endloop
  endfacet
  facet normal 0 0.890993 0.454017
    outer loop
      vertex 19.9126 -1.76292 5
      vertex 22.25 -1.76292 5
      vertex 19.9225 -1.65848 4.79504
    endloop
  endfacet
  facet normal 0 0.890993 0.454017
    outer loop
      vertex 19.9225 -1.65848 4.79504
      vertex 22.25 -1.76292 5
      vertex 22.25 -1.65848 4.79504
    endloop
  endfacet
  facet normal 0 0.707116 0.707098
    outer loop
      vertex 19.9605 -1.25581 4.39236
      vertex 19.9225 -1.65848 4.79504
      vertex 22.25 -1.65848 4.79504
    endloop
  endfacet
  facet normal 1 0 0
    outer loop
      vertex 22.25 -1.76292 5
      vertex 22.25 -3.75265 5
      vertex 22.25 -2.165 2.25011
    endloop
  endfacet
  facet normal 1 -0 0
    outer loop
      vertex 22.25 -1.65848 4.79504
      vertex 22.25 -1.76292 5
      vertex 22.25 -2.165 2.25011
    endloop
  endfacet
  facet normal 1 0 0
    outer loop
      vertex 22.25 3.75265 5
      vertex 22.25 1.76292 5
      vertex 22.25 2.165 2.25011
    endloop
  endfacet
  facet normal 1 0 -0
    outer loop
      vertex 22.25 1.76292 5
      vertex 22.25 1.65848 4.79504
      vertex 22.25 2.165 2.25011
    endloop
  endfacet
  facet normal 1 0 -0
    outer loop
      vertex 22.25 1.65848 4.79504
      vertex 22.25 1.20496 4.34152
      vertex 22.25 2.165 2.25011
    endloop
  endfacet
  facet normal 1 0 -0
    outer loop
      vertex 22.25 1.20496 4.34152
      vertex 22.25 0.633485 4.05033
      vertex 22.25 2.165 2.25011
    endloop
  endfacet
  facet normal 1 0 -0
    outer loop
      vertex 22.25 0.633485 4.05033
      vertex 22.25 0 3.95
      vertex 22.25 2.165 2.25011
    endloop
  endfacet
  facet normal 1 -0 0
    outer loop
      vertex 22.25 2.165 2.25011
      vertex 22.25 -0.633485 4.05033
      vertex 22.25 -2.165 2.25011
    endloop
  endfacet
  facet normal 1 -0 0
    outer loop
      vertex 22.25 -0.633485 4.05033
      vertex 22.25 -1.20496 4.34152
      vertex 22.25 -2.165 2.25011
    endloop
  endfacet
  facet normal 1 -0 0
    outer loop
      vertex 22.25 -1.20496 4.34152
      vertex 22.25 -1.65848 4.79504
      vertex 22.25 -2.165 2.25011
    endloop
  endfacet
  facet normal 1 -0 -0
    outer loop
      vertex 22.25 0 3.95
      vertex 22.25 -0.633485 4.05033
      vertex 22.25 2.165 2.25011
    endloop
  endfacet
  facet normal 0 0.866025 0.5
    outer loop
      vertex 22.25 -3.75265 5
      vertex 24.0209 -3.75265 5
      vertex 22.25 -2.165 2.25011
    endloop
  endfacet
  facet normal 0 0.866025 0.5
    outer loop
      vertex 22.25 -2.165 2.25011
      vertex 24.0209 -3.75265 5
      vertex 27.25 -2.165 2.25011
    endloop
  endfacet
  facet normal -7.21284e-08 0.866025 0.5
    outer loop
      vertex 27.25 -2.165 2.25011
      vertex 24.0209 -3.75265 5
      vertex 27.25 -3.75265 5
    endloop
  endfacet
  facet normal -1 0 0
    outer loop
      vertex 27.25 -3.75265 5
      vertex 27.25 -1.76292 5
      vertex 27.25 -2.165 2.25011
    endloop
  endfacet
  facet normal -1 0 0
    outer loop
      vertex 27.25 -2.165 2.25011
      vertex 27.25 -1.76292 5
      vertex 27.25 -1.65848 4.79504
    endloop
  endfacet
  facet normal -1 0 0
    outer loop
      vertex 27.25 -2.165 2.25011
      vertex 27.25 -1.65848 4.79504
      vertex 27.25 -1.20496 4.34151
    endloop
  endfacet
  facet normal -1 0 0
    outer loop
      vertex 27.25 -1.20496 4.34151
      vertex 27.25 -0.633485 4.05033
      vertex 27.25 -2.165 2.25011
    endloop
  endfacet
  facet normal -1 0 0
    outer loop
      vertex 27.25 -0.633485 4.05033
      vertex 27.25 0 3.95
      vertex 27.25 -2.165 2.25011
    endloop
  endfacet
  facet normal -1 -0 0
    outer loop
      vertex 27.25 0 3.95
      vertex 27.25 0.633485 4.05033
      vertex 27.25 -2.165 2.25011
    endloop
  endfacet
  facet normal -1 -0 0
    outer loop
      vertex 27.25 0.633485 4.05033
      vertex 27.25 1.20496 4.34151
      vertex 27.25 -2.165 2.25011
    endloop
  endfacet
  facet normal -1 -0 0
    outer loop
      vertex 27.25 1.20496 4.34151
      vertex 27.25 3.75265 5
      vertex 27.25 -2.165 2.25011
    endloop
  endfacet
  facet normal -1 0 0
    outer loop
      vertex 27.25 1.65848 4.79504
      vertex 27.25 1.76292 5
      vertex 27.25 3.75265 5
    endloop
  endfacet
  facet normal -1 -0 0
    outer loop
      vertex 27.25 1.65848 4.79504
      vertex 27.25 3.75265 5
      vertex 27.25 1.20496 4.34151
    endloop
  endfacet
  facet normal -1 -0 0
    outer loop
      vertex 27.25 -2.165 2.25011
      vertex 27.25 3.75265 5
      vertex 27.25 2.165 2.25011
    endloop
  endfacet
  facet normal 0 -0.866025 0.5
    outer loop
      vertex 27.25 3.75265 5
      vertex 24.882 3.75265 5
      vertex 27.25 2.165 2.25011
    endloop
  endfacet
  facet normal -2.70474e-07 -0.866026 0.5
    outer loop
      vertex 24.882 3.75265 5
      vertex 24.0209 3.75265 5
      vertex 27.25 2.165 2.25011
    endloop
  endfacet
  facet normal 0 -0.866025 0.5
    outer loop
      vertex 22.25 3.75265 5
      vertex 22.25 2.165 2.25011
      vertex 27.25 2.165 2.25011
    endloop
  endfacet
  facet normal 0 -0.866025 0.5
    outer loop
      vertex 24.0209 3.75265 5
      vertex 22.25 3.75265 5
      vertex 27.25 2.165 2.25011
    endloop
  endfacet
  facet normal 0 -0 1
    outer loop
      vertex 22.25 2.165 2.25011
      vertex 22.25 -2.165 2.25011
      vertex 27.25 -2.165 2.25011
    endloop
  endfacet
  facet normal 0 0 1
    outer loop
      vertex 27.25 2.165 2.25011
      vertex 22.25 2.165 2.25011
      vertex 27.25 -2.165 2.25011
    endloop
  endfacet
endsolid OpenSCAD_Model
