<?xml version="1.0" encoding="UTF-8" standalone="no"?>
<!-- Created with Inkscape (http://www.inkscape.org/) -->

<svg
   xmlns:dc="http://purl.org/dc/elements/1.1/"
   xmlns:cc="http://creativecommons.org/ns#"
   xmlns:rdf="http://www.w3.org/1999/02/22-rdf-syntax-ns#"
   xmlns:svg="http://www.w3.org/2000/svg"
   xmlns="http://www.w3.org/2000/svg"
   xmlns:sodipodi="http://sodipodi.sourceforge.net/DTD/sodipodi-0.dtd"
   xmlns:inkscape="http://www.inkscape.org/namespaces/inkscape"
   width="210mm"
   height="297mm"
   viewBox="0 0 744.09448819 1052.3622047"
   id="svg2"
   version="1.1"
   inkscape:version="0.91 r13725"
   sodipodi:docname="HAPPY.svg">
  <defs
     id="defs4" />
  <sodipodi:namedview
     id="base"
     pagecolor="#ffffff"
     bordercolor="#666666"
     borderopacity="1.0"
     inkscape:pageopacity="0.0"
     inkscape:pageshadow="2"
     inkscape:zoom="5.3929307"
     inkscape:cx="95.261441"
     inkscape:cy="1038.4392"
     inkscape:document-units="px"
     inkscape:current-layer="text3394"
     showgrid="false"
     inkscape:window-width="1440"
     inkscape:window-height="775"
     inkscape:window-x="0"
     inkscape:window-y="1"
     inkscape:window-maximized="1" />
  <metadata
     id="metadata7">
    <rdf:RDF>
      <cc:Work
         rdf:about="">
        <dc:format>image/svg+xml</dc:format>
        <dc:type
           rdf:resource="http://purl.org/dc/dcmitype/StillImage" />
        <dc:title />
      </cc:Work>
    </rdf:RDF>
  </metadata>
  <g
     inkscape:label="Layer 1"
     inkscape:groupmode="layer"
     id="layer1">
    <g
       style="font-style:normal;font-weight:normal;font-size:59.35945511px;line-height:125%;font-family:sans-serif;letter-spacing:0px;word-spacing:0px;fill:#000000;fill-opacity:1;stroke:none;stroke-width:1px;stroke-linecap:butt;stroke-linejoin:miter;stroke-opacity:1"
       id="text3336">
      <g
         style="font-style:normal;font-weight:normal;font-size:30.50055885px;line-height:125%;font-family:sans-serif;letter-spacing:0px;word-spacing:0px;fill:#000000;fill-opacity:1;stroke:none;stroke-width:1px;stroke-linecap:butt;stroke-linejoin:miter;stroke-opacity:1"
         id="text3394">
        <path
           d="m 39.404841,-4.7490652 7.271889,0 0,10.7472868 10.7284,0 0,-10.7472868 7.271889,0 0,28.1998222 -7.271889,0 0,-11.956121 -10.7284,0 0,11.956121 -7.271889,0 0,-28.1998222 z"
           style="font-style:normal;font-variant:normal;font-weight:bold;font-stretch:normal;font-family:sans-serif;-inkscape-font-specification:'sans-serif Bold'"
           id="path3445"
           inkscape:connector-curvature="0" />
        <path
           d="m 86.036939,18.313215 -11.370592,0 -1.794362,5.137542 -7.309667,0 10.445079,-28.1998222 8.669605,0 10.445077,28.1998222 -7.309665,0 -1.775475,-5.137542 z m -9.557341,-5.231984 7.725202,0 L 80.351644,1.8617439 76.479598,13.081231 Z"
           style="font-style:normal;font-variant:normal;font-weight:bold;font-stretch:normal;font-family:sans-serif;-inkscape-font-specification:'sans-serif Bold'"
           id="path3447"
           inkscape:connector-curvature="0" />
        <path
           d="m 96.098492,-4.7490652 12.069448,0 q 5.38309,0 8.25407,2.3987793 2.88986,2.37989123 2.88986,6.7996892 0,4.438686 -2.88986,6.8374647 -2.87098,2.379891 -8.25407,2.379891 l -4.79756,0 0,9.783998 -7.271888,0 0,-28.1998222 z m 7.271888,5.26975917 0,7.87630683 4.02315,0 q 2.11546,0 3.26763,-1.0199535 1.15217,-1.0388417 1.15217,-2.927644 0,-1.8888026 -1.15217,-2.9087559 -1.15217,-1.01995343 -3.26763,-1.01995343 l -4.02315,0 z"
           style="font-style:normal;font-variant:normal;font-weight:bold;font-stretch:normal;font-family:sans-serif;-inkscape-font-specification:'sans-serif Bold'"
           id="path3449"
           inkscape:connector-curvature="0" />
        <path
           d="m 120.02484,-4.7490652 12.06944,0 q 5.38308,0 8.25407,2.3987793 2.88986,2.37989123 2.88986,6.7996892 0,4.438686 -2.88986,6.8374647 -2.87099,2.379891 -8.25407,2.379891 l -4.79754,0 0,9.783998 -7.2719,0 0,-28.1998222 z m 7.2719,5.26975917 0,7.87630683 4.02313,0 q 2.11546,0 3.26763,-1.0199535 1.15217,-1.0388417 1.15217,-2.927644 0,-1.8888026 -1.15217,-2.9087559 -1.15217,-1.01995343 -3.26763,-1.01995343 l -4.02313,0 z"
           style="font-style:normal;font-variant:normal;font-weight:bold;font-stretch:normal;font-family:sans-serif;-inkscape-font-specification:'sans-serif Bold'"
           id="path3451"
           inkscape:connector-curvature="0" />
        <path
           d="m 143.20036,-4.6768408 7.95187,0 6.42193,10.0484297 6.42191,-10.0484297 7.97076,0 -10.74728,16.3192548 0,11.880568 -7.2719,0 0,-11.880568 -10.74729,-16.3192548 z"
           style="font-style:normal;font-variant:normal;font-weight:bold;font-stretch:normal;font-family:sans-serif;-inkscape-font-specification:'sans-serif Bold'"
           id="path3453"
           inkscape:connector-curvature="0" />
        <path
           d="m 1.809643,24.366375 8.1429,0 10.282779,19.391468 0,-19.391468 6.911995,0 0,28.272911 -8.142898,0 -10.2827797,-19.391469 0,19.391469 -6.9119963,0 0,-28.272911 z"
           style="font-style:normal;font-variant:normal;font-weight:bold;font-stretch:normal;font-family:sans-serif;-inkscape-font-specification:'sans-serif Bold'"
           id="path3455"
           inkscape:connector-curvature="0" />
        <path
           d="m 28.236335,24.311892 19.675518,0 0,5.51066 -12.384783,0 0,5.264479 11.646242,0 0,5.510663 -11.646242,0 0,6.476441 12.801399,0 0,5.510667 -20.092134,0 0,-28.27291 z"
           style="font-style:normal;font-variant:normal;font-weight:bold;font-stretch:normal;font-family:sans-serif;-inkscape-font-specification:'sans-serif Bold'"
           id="path3457"
           inkscape:connector-curvature="0" />
        <path
           d="m 48.376765,24.341084 6.987744,0 4.885741,20.546622 4.847865,-20.546622 7.02562,0 4.847868,20.546622 4.885738,-20.546622 6.930933,0 -6.665815,28.272911 -8.40802,0 -5.13192,-21.493473 -5.075111,21.493473 -8.408017,0 -6.722626,-28.272911 z"
           style="font-style:normal;font-variant:normal;font-weight:bold;font-stretch:normal;font-family:sans-serif;-inkscape-font-specification:'sans-serif Bold'"
           id="path3459"
           inkscape:connector-curvature="0" />
        <path
           d="m 100.18502,24.384304 7.97247,0 6.43858,10.074472 6.43856,-10.074472 7.99141,0 -10.77514,16.361549 0,11.91136 -7.29074,0 0,-11.91136 -10.77514,-16.361549 z"
           style="font-style:normal;font-variant:normal;font-weight:bold;font-stretch:normal;font-family:sans-serif;-inkscape-font-specification:'sans-serif Bold'"
           id="path3461"
           inkscape:connector-curvature="0" />
        <path
           d="m 129.40012,24.384304 19.67553,0 0,5.510662 -12.38478,0 0,5.26448 11.64621,0 0,5.510659 -11.64621,0 0,6.476444 12.8014,0 0,5.510664 -20.09215,0 0,-28.272909 z"
           style="font-style:normal;font-variant:normal;font-weight:bold;font-stretch:normal;font-family:sans-serif;-inkscape-font-specification:'sans-serif Bold'"
           id="path3463"
           inkscape:connector-curvature="0" />
        <path
           d="m 170.20153,47.492328 -11.40006,0 -1.79902,5.150853 -7.32863,0 10.47217,-28.272903 8.69207,0 10.47215,28.272903 -7.32861,0 -1.78007,-5.150853 z m -9.58214,-5.245544 7.74526,0 -3.86314,-11.248564 -3.88212,11.248564 z"
           style="font-style:normal;font-variant:normal;font-weight:bold;font-stretch:normal;font-family:sans-serif;-inkscape-font-specification:'sans-serif Bold'"
           id="path3465"
           inkscape:connector-curvature="0" />
        <path
           d="m 189.86635,36.921721 q 2.29136,0 3.27607,-0.852165 1.00366,-0.852164 1.00366,-2.802671 0,-1.931573 -1.00366,-2.764799 -0.98471,-0.833227 -3.27607,-0.833227 l -3.06782,0 0,7.252862 3.06782,0 z m -3.06782,5.037237 0,10.699391 -7.29072,0 0,-28.272908 11.13495,0 q 5.58641,0 8.18075,1.874761 2.61332,1.874763 2.61332,5.927274 0,2.802672 -1.36346,4.601685 -1.34454,1.799015 -4.07147,2.651178 1.49602,0.340866 2.67013,1.552829 1.19302,1.193031 2.405,3.635903 l 3.95783,8.029278 -7.76418,0 -3.44653,-7.025617 q -1.04153,-2.120943 -2.12093,-2.897357 -1.06046,-0.776417 -2.84056,-0.776417 l -2.06413,0 z"
           style="font-style:normal;font-variant:normal;font-weight:bold;font-stretch:normal;font-family:sans-serif;-inkscape-font-specification:'sans-serif Bold'"
           id="path3467"
           inkscape:connector-curvature="0" />
      </g>
    </g>
  </g>
</svg>
