solid OpenSCAD_Model
  facet normal -1 0 0
    outer loop
      vertex 0 11.5 0
      vertex 0 35 14
      vertex 0 35 0
    endloop
  endfacet
  facet normal -1 -0 0
    outer loop
      vertex 0 35 14
      vertex 0 11.5 0
      vertex 0 11.5 14
    endloop
  endfacet
  facet normal -0 0 1
    outer loop
      vertex 0 35 14
      vertex 4.5 34.7426 14
      vertex 4.5 35 14
    endloop
  endfacet
  facet normal 0 0 1
    outer loop
      vertex 4.5 34.7426 14
      vertex 0 35 14
      vertex 4.5 30.5 14
    endloop
  endfacet
  facet normal 0 0 1
    outer loop
      vertex 0 11.5 14
      vertex 4.5 30.5 14
      vertex 0 35 14
    endloop
  endfacet
  facet normal 0 0 1
    outer loop
      vertex 6.62132 32.6213 14
      vertex 4.5 34.7426 14
      vertex 4.5 30.5 14
    endloop
  endfacet
  facet normal 0 0 1
    outer loop
      vertex 11.5 4.57125 14
      vertex 10.5038 4.57125 14
      vertex 11.5 4.5 14
    endloop
  endfacet
  facet normal 0 0 1
    outer loop
      vertex 36.15 24.8 14
      vertex 27.65 24.8 14
      vertex 36.15 4.5 14
    endloop
  endfacet
  facet normal 0 0 1
    outer loop
      vertex 59.8 34.7426 14
      vertex 57.6787 32.6213 14
      vertex 59.8 30.5 14
    endloop
  endfacet
  facet normal 0 0 1
    outer loop
      vertex 59.8 34.7426 14
      vertex 64.3 35 14
      vertex 59.8 35 14
    endloop
  endfacet
  facet normal 0 0 1
    outer loop
      vertex 59.8 30.5 14
      vertex 64.3 35 14
      vertex 59.8 34.7426 14
    endloop
  endfacet
  facet normal 0 0 1
    outer loop
      vertex 59.8 11.5 14
      vertex 64.3 35 14
      vertex 59.8 30.5 14
    endloop
  endfacet
  facet normal 0 0 1
    outer loop
      vertex 64.3 35 14
      vertex 59.8 11.5 14
      vertex 64.3 0 14
    endloop
  endfacet
  facet normal -0 0 1
    outer loop
      vertex 59.5164 9.52787 14
      vertex 64.3 0 14
      vertex 59.8 11.5 14
    endloop
  endfacet
  facet normal -0 0 1
    outer loop
      vertex 58.6888 7.71551 14
      vertex 64.3 0 14
      vertex 59.5164 9.52787 14
    endloop
  endfacet
  facet normal -0 0 1
    outer loop
      vertex 57.384 6.20975 14
      vertex 64.3 0 14
      vertex 58.6888 7.71551 14
    endloop
  endfacet
  facet normal -0 0 1
    outer loop
      vertex 55.7079 5.13258 14
      vertex 64.3 0 14
      vertex 57.384 6.20975 14
    endloop
  endfacet
  facet normal -0 0 1
    outer loop
      vertex 53.7962 4.57125 14
      vertex 64.3 0 14
      vertex 55.7079 5.13258 14
    endloop
  endfacet
  facet normal 0 0 1
    outer loop
      vertex 52.8 4.5 14
      vertex 53.7962 4.57125 14
      vertex 52.8 4.57125 14
    endloop
  endfacet
  facet normal 0 0 1
    outer loop
      vertex 49 0 14
      vertex 53.7962 4.57125 14
      vertex 52.8 4.5 14
    endloop
  endfacet
  facet normal 0 0 1
    outer loop
      vertex 49 0 14
      vertex 52.8 4.5 14
      vertex 49 4.5 14
    endloop
  endfacet
  facet normal 0 0 1
    outer loop
      vertex 53.7962 4.57125 14
      vertex 49 0 14
      vertex 64.3 0 14
    endloop
  endfacet
  facet normal 0 0 1
    outer loop
      vertex 39 0 14
      vertex 49 0 14
      vertex 49 4.5 14
    endloop
  endfacet
  facet normal 0 0 1
    outer loop
      vertex 49 0 14
      vertex 39 0 14
      vertex 49 -1.5 14
    endloop
  endfacet
  facet normal -0 0 1
    outer loop
      vertex 36.15 4.5 14
      vertex 39 0 14
      vertex 49 4.5 14
    endloop
  endfacet
  facet normal 0 0 1
    outer loop
      vertex 27.65 4.5 14
      vertex 36.15 4.5 14
      vertex 27.65 24.8 14
    endloop
  endfacet
  facet normal -0 0 1
    outer loop
      vertex 27.65 4.5 14
      vertex 39 0 14
      vertex 36.15 4.5 14
    endloop
  endfacet
  facet normal -0 0 1
    outer loop
      vertex 11.5 4.5 14
      vertex 39 0 14
      vertex 27.65 4.5 14
    endloop
  endfacet
  facet normal 0 0 1
    outer loop
      vertex -9 0 14
      vertex 11.5 4.5 14
      vertex 10.5038 4.57125 14
    endloop
  endfacet
  facet normal 0 0 1
    outer loop
      vertex 4.5 30.5 14
      vertex 0 11.5 14
      vertex 4.5 11.5 14
    endloop
  endfacet
  facet normal 0 0 1
    outer loop
      vertex 4.5 11.5 14
      vertex 0 11.5 14
      vertex 4.78355 9.52787 14
    endloop
  endfacet
  facet normal 0 0 1
    outer loop
      vertex -0.283549 9.52787 14
      vertex 4.78355 9.52787 14
      vertex 0 11.5 14
    endloop
  endfacet
  facet normal 0 0 1
    outer loop
      vertex 4.78355 9.52787 14
      vertex -0.283549 9.52787 14
      vertex 5.61123 7.71551 14
    endloop
  endfacet
  facet normal 0 0 1
    outer loop
      vertex -1.11123 7.71551 14
      vertex 5.61123 7.71551 14
      vertex -0.283549 9.52787 14
    endloop
  endfacet
  facet normal 0 0 1
    outer loop
      vertex 5.61123 7.71551 14
      vertex -1.11123 7.71551 14
      vertex 6.91597 6.20975 14
    endloop
  endfacet
  facet normal 0 0 1
    outer loop
      vertex -2.41598 6.20975 14
      vertex 6.91597 6.20975 14
      vertex -1.11123 7.71551 14
    endloop
  endfacet
  facet normal 0 0 1
    outer loop
      vertex 6.91597 6.20975 14
      vertex -2.41598 6.20975 14
      vertex 8.59209 5.13258 14
    endloop
  endfacet
  facet normal 0 0 1
    outer loop
      vertex -4.0921 5.13258 14
      vertex 8.59209 5.13258 14
      vertex -2.41598 6.20975 14
    endloop
  endfacet
  facet normal 0 0 1
    outer loop
      vertex -9 0 14
      vertex 8.59209 5.13258 14
      vertex -4.0921 5.13258 14
    endloop
  endfacet
  facet normal 0 0 1
    outer loop
      vertex 8.59209 5.13258 14
      vertex -9 0 14
      vertex 10.5038 4.57125 14
    endloop
  endfacet
  facet normal 0 0 1
    outer loop
      vertex -9 0 14
      vertex -4.0921 5.13258 14
      vertex -6.0038 4.57125 14
    endloop
  endfacet
  facet normal 0 0 1
    outer loop
      vertex -7 4.5 14
      vertex -6.0038 4.57125 14
      vertex -7 4.57125 14
    endloop
  endfacet
  facet normal 0 0 1
    outer loop
      vertex -9 0 14
      vertex -6.0038 4.57125 14
      vertex -7 4.5 14
    endloop
  endfacet
  facet normal 0 0 1
    outer loop
      vertex 11.5 4.5 14
      vertex -9 0 14
      vertex 39 0 14
    endloop
  endfacet
  facet normal -0 0 1
    outer loop
      vertex -19 4.5 14
      vertex -9 0 14
      vertex -7 4.5 14
    endloop
  endfacet
  facet normal 0 0 1
    outer loop
      vertex -19 -1.5 14
      vertex -9 0 14
      vertex -19 4.5 14
    endloop
  endfacet
  facet normal 0 0 1
    outer loop
      vertex -9 0 14
      vertex -19 -1.5 14
      vertex -9 -1.5 14
    endloop
  endfacet
  facet normal 0 0 1
    outer loop
      vertex 49 -1.5 14
      vertex 39 0 14
      vertex 39 -1.5 14
    endloop
  endfacet
  facet normal 1 -0 0
    outer loop
      vertex 64.3 0 14
      vertex 64.3 35 0
      vertex 64.3 35 14
    endloop
  endfacet
  facet normal 1 0 0
    outer loop
      vertex 64.3 35 0
      vertex 64.3 0 14
      vertex 64.3 0 0
    endloop
  endfacet
  facet normal 0 0 -1
    outer loop
      vertex -9 -1.5 0
      vertex -19 -1.5 0
      vertex -9 0 0
    endloop
  endfacet
  facet normal 0 0 -1
    outer loop
      vertex 39 0 0
      vertex 49 0 0
      vertex 49 -1.5 0
    endloop
  endfacet
  facet normal 0 0 -1
    outer loop
      vertex 39 0 0
      vertex 49 -1.5 0
      vertex 39 -1.5 0
    endloop
  endfacet
  facet normal 0 0 -1
    outer loop
      vertex 49 0 0
      vertex 39 0 0
      vertex 49 4.5 0
    endloop
  endfacet
  facet normal 0 0 -1
    outer loop
      vertex 39 0 0
      vertex 36.15 4.5 0
      vertex 49 4.5 0
    endloop
  endfacet
  facet normal 0 0 -1
    outer loop
      vertex 36.15 4.5 0
      vertex 27.65 4.5 0
      vertex 36.15 24.8 0
    endloop
  endfacet
  facet normal 0 0 -1
    outer loop
      vertex 39 0 0
      vertex 27.65 4.5 0
      vertex 36.15 4.5 0
    endloop
  endfacet
  facet normal 0 0 -1
    outer loop
      vertex 39 0 0
      vertex 11.5 4.5 0
      vertex 27.65 4.5 0
    endloop
  endfacet
  facet normal 0 0 -1
    outer loop
      vertex 11.5 4.5 0
      vertex 10.5038 4.57125 0
      vertex 11.5 4.57125 0
    endloop
  endfacet
  facet normal 0 0 -1
    outer loop
      vertex -9 0 0
      vertex 11.5 4.5 0
      vertex 39 0 0
    endloop
  endfacet
  facet normal 0 0 -1
    outer loop
      vertex 0 11.5 0
      vertex 4.5 30.5 0
      vertex 4.5 11.5 0
    endloop
  endfacet
  facet normal 0 0 -1
    outer loop
      vertex 0 35 0
      vertex 4.5 30.5 0
      vertex 0 11.5 0
    endloop
  endfacet
  facet normal 0 0 -1
    outer loop
      vertex 4.5 30.5 0
      vertex 0 35 0
      vertex 4.5 34.7426 0
    endloop
  endfacet
  facet normal 0 0 -1
    outer loop
      vertex 4.78355 9.52787 0
      vertex 0 11.5 0
      vertex 4.5 11.5 0
    endloop
  endfacet
  facet normal 0 0 -1
    outer loop
      vertex -0.283549 9.52787 0
      vertex 4.78355 9.52787 0
      vertex 5.61123 7.71551 0
    endloop
  endfacet
  facet normal 0 0 -1
    outer loop
      vertex -1.11123 7.71551 0
      vertex 5.61123 7.71551 0
      vertex 6.91597 6.20975 0
    endloop
  endfacet
  facet normal 0 0 -1
    outer loop
      vertex 4.78355 9.52787 0
      vertex -0.283549 9.52787 0
      vertex 0 11.5 0
    endloop
  endfacet
  facet normal 0 0 -1
    outer loop
      vertex -2.41598 6.20975 0
      vertex 6.91597 6.20975 0
      vertex 8.59209 5.13258 0
    endloop
  endfacet
  facet normal 0 0 -1
    outer loop
      vertex 5.61123 7.71551 0
      vertex -1.11123 7.71551 0
      vertex -0.283549 9.52787 0
    endloop
  endfacet
  facet normal 0 0 -1
    outer loop
      vertex -9 0 0
      vertex 8.59209 5.13258 0
      vertex 10.5038 4.57125 0
    endloop
  endfacet
  facet normal 0 0 -1
    outer loop
      vertex 6.91597 6.20975 0
      vertex -2.41598 6.20975 0
      vertex -1.11123 7.71551 0
    endloop
  endfacet
  facet normal -0 0 -1
    outer loop
      vertex 11.5 4.5 0
      vertex -9 0 0
      vertex 10.5038 4.57125 0
    endloop
  endfacet
  facet normal -0 0 -1
    outer loop
      vertex 8.59209 5.13258 0
      vertex -9 0 0
      vertex -4.0921 5.13258 0
    endloop
  endfacet
  facet normal 0 0 -1
    outer loop
      vertex 8.59209 5.13258 0
      vertex -4.0921 5.13258 0
      vertex -2.41598 6.20975 0
    endloop
  endfacet
  facet normal 0 0 -1
    outer loop
      vertex -4.0921 5.13258 0
      vertex -9 0 0
      vertex -6.0038 4.57125 0
    endloop
  endfacet
  facet normal 0 0 -1
    outer loop
      vertex -6.0038 4.57125 0
      vertex -9 0 0
      vertex -7 4.5 0
    endloop
  endfacet
  facet normal 0 0 -1
    outer loop
      vertex -19 4.5 0
      vertex -9 0 0
      vertex -19 -1.5 0
    endloop
  endfacet
  facet normal 0 0 -1
    outer loop
      vertex -9 0 0
      vertex -19 4.5 0
      vertex -7 4.5 0
    endloop
  endfacet
  facet normal 0 0 -1
    outer loop
      vertex 59.8 30.5 0
      vertex 57.6787 32.6213 0
      vertex 59.8 34.7426 0
    endloop
  endfacet
  facet normal 0 0 -1
    outer loop
      vertex 64.3 0 0
      vertex 59.8 11.5 0
      vertex 64.3 35 0
    endloop
  endfacet
  facet normal 0 0 -1
    outer loop
      vertex 64.3 0 0
      vertex 59.5164 9.52787 0
      vertex 59.8 11.5 0
    endloop
  endfacet
  facet normal 0 0 -1
    outer loop
      vertex 64.3 0 0
      vertex 58.6888 7.71551 0
      vertex 59.5164 9.52787 0
    endloop
  endfacet
  facet normal 0 0 -1
    outer loop
      vertex 64.3 0 0
      vertex 57.384 6.20975 0
      vertex 58.6888 7.71551 0
    endloop
  endfacet
  facet normal 0 0 -1
    outer loop
      vertex 64.3 0 0
      vertex 55.7079 5.13258 0
      vertex 57.384 6.20975 0
    endloop
  endfacet
  facet normal 0 0 -1
    outer loop
      vertex 64.3 0 0
      vertex 53.7962 4.57125 0
      vertex 55.7079 5.13258 0
    endloop
  endfacet
  facet normal 0 0 -1
    outer loop
      vertex 49 0 0
      vertex 53.7962 4.57125 0
      vertex 64.3 0 0
    endloop
  endfacet
  facet normal 0 0 -1
    outer loop
      vertex 53.7962 4.57125 0
      vertex 49 0 0
      vertex 52.8 4.5 0
    endloop
  endfacet
  facet normal -0 0 -1
    outer loop
      vertex 52.8 4.5 0
      vertex 49 0 0
      vertex 49 4.5 0
    endloop
  endfacet
  facet normal 0 0 -1
    outer loop
      vertex 59.8 30.5 0
      vertex 64.3 35 0
      vertex 59.8 11.5 0
    endloop
  endfacet
  facet normal 0 0 -1
    outer loop
      vertex 59.8 34.7426 0
      vertex 64.3 35 0
      vertex 59.8 30.5 0
    endloop
  endfacet
  facet normal -0 0 -1
    outer loop
      vertex 64.3 35 0
      vertex 59.8 34.7426 0
      vertex 59.8 35 0
    endloop
  endfacet
  facet normal -0 0 -1
    outer loop
      vertex 53.7962 4.57125 0
      vertex 52.8 4.5 0
      vertex 52.8 4.57125 0
    endloop
  endfacet
  facet normal -0 0 -1
    outer loop
      vertex 36.15 24.8 0
      vertex 27.65 4.5 0
      vertex 27.65 24.8 0
    endloop
  endfacet
  facet normal -0 0 -1
    outer loop
      vertex 6.62132 32.6213 0
      vertex 4.5 30.5 0
      vertex 4.5 34.7426 0
    endloop
  endfacet
  facet normal 0 0 -1
    outer loop
      vertex 4.5 34.7426 0
      vertex 0 35 0
      vertex 4.5 35 0
    endloop
  endfacet
  facet normal -0 0 -1
    outer loop
      vertex -6.0038 4.57125 0
      vertex -7 4.5 0
      vertex -7 4.57125 0
    endloop
  endfacet
  facet normal 0 -1 0
    outer loop
      vertex -9 0 0
      vertex 39 0 14
      vertex -9 0 14
    endloop
  endfacet
  facet normal 0 -1 -0
    outer loop
      vertex 39 0 14
      vertex -9 0 0
      vertex 39 0 0
    endloop
  endfacet
  facet normal 0 -1 0
    outer loop
      vertex 49 0 0
      vertex 64.3 0 14
      vertex 49 0 14
    endloop
  endfacet
  facet normal 0 -1 -0
    outer loop
      vertex 64.3 0 14
      vertex 49 0 0
      vertex 64.3 0 0
    endloop
  endfacet
  facet normal 0 1 -0
    outer loop
      vertex 64.3 35 0
      vertex 59.8 35 14
      vertex 64.3 35 14
    endloop
  endfacet
  facet normal 0 1 0
    outer loop
      vertex 59.8 35 14
      vertex 64.3 35 0
      vertex 59.8 35 0
    endloop
  endfacet
  facet normal 0 1 -0
    outer loop
      vertex 4.5 35 0
      vertex 0 35 14
      vertex 4.5 35 14
    endloop
  endfacet
  facet normal 0 1 0
    outer loop
      vertex 0 35 14
      vertex 4.5 35 0
      vertex 0 35 0
    endloop
  endfacet
  facet normal 1 -0 0
    outer loop
      vertex 4.5 11.5 14
      vertex 4.5 30.5 0
      vertex 4.5 30.5 14
    endloop
  endfacet
  facet normal 1 0 0
    outer loop
      vertex 4.5 30.5 0
      vertex 4.5 11.5 14
      vertex 4.5 11.5 0
    endloop
  endfacet
  facet normal 1 -0 0
    outer loop
      vertex 4.5 34.7426 14
      vertex 4.5 35 0
      vertex 4.5 35 14
    endloop
  endfacet
  facet normal 1 0 0
    outer loop
      vertex 4.5 35 0
      vertex 4.5 34.7426 14
      vertex 4.5 34.7426 0
    endloop
  endfacet
  facet normal -1 0 0
    outer loop
      vertex 59.8 11.5 0
      vertex 59.8 30.5 14
      vertex 59.8 30.5 0
    endloop
  endfacet
  facet normal -1 -0 0
    outer loop
      vertex 59.8 30.5 14
      vertex 59.8 11.5 0
      vertex 59.8 11.5 14
    endloop
  endfacet
  facet normal -1 0 0
    outer loop
      vertex 59.8 34.7426 0
      vertex 59.8 35 14
      vertex 59.8 35 0
    endloop
  endfacet
  facet normal -1 -0 0
    outer loop
      vertex 59.8 35 14
      vertex 59.8 34.7426 0
      vertex 59.8 34.7426 14
    endloop
  endfacet
  facet normal 0 1 -0
    outer loop
      vertex 27.65 4.5 0
      vertex 11.5 4.5 14
      vertex 27.65 4.5 14
    endloop
  endfacet
  facet normal 0 1 0
    outer loop
      vertex 11.5 4.5 14
      vertex 27.65 4.5 0
      vertex 11.5 4.5 0
    endloop
  endfacet
  facet normal 0 1 0
    outer loop
      vertex 42.35 4.5 9.85788
      vertex 49 4.5 14
      vertex 45.65 4.5 9.85788
    endloop
  endfacet
  facet normal 0 1 0
    outer loop
      vertex 49 4.5 14
      vertex 47.3 4.5 7
      vertex 45.65 4.5 9.85788
    endloop
  endfacet
  facet normal 0 1 0
    outer loop
      vertex 45.65 4.5 4.14212
      vertex 49 4.5 0
      vertex 42.35 4.5 4.14212
    endloop
  endfacet
  facet normal 0 1 0
    outer loop
      vertex 47.3 4.5 7
      vertex 49 4.5 0
      vertex 45.65 4.5 4.14212
    endloop
  endfacet
  facet normal 0 1 -0
    outer loop
      vertex 49 4.5 0
      vertex 47.3 4.5 7
      vertex 49 4.5 14
    endloop
  endfacet
  facet normal 0 1 0
    outer loop
      vertex 49 4.5 14
      vertex 42.35 4.5 9.85788
      vertex 36.15 4.5 14
    endloop
  endfacet
  facet normal 0 1 -0
    outer loop
      vertex 40.7 4.5 7
      vertex 36.15 4.5 14
      vertex 42.35 4.5 9.85788
    endloop
  endfacet
  facet normal 0 1 0
    outer loop
      vertex 36.15 4.5 0
      vertex 40.7 4.5 7
      vertex 42.35 4.5 4.14212
    endloop
  endfacet
  facet normal 0 1 0
    outer loop
      vertex 40.7 4.5 7
      vertex 36.15 4.5 0
      vertex 36.15 4.5 14
    endloop
  endfacet
  facet normal 0 1 0
    outer loop
      vertex 36.15 4.5 0
      vertex 42.35 4.5 4.14212
      vertex 49 4.5 0
    endloop
  endfacet
  facet normal 0 1 0
    outer loop
      vertex -7 4.5 14
      vertex -11.35 4.5 9.85788
      vertex -19 4.5 14
    endloop
  endfacet
  facet normal 0 1 0
    outer loop
      vertex -7 4.5 14
      vertex -9.7 4.5 7
      vertex -11.35 4.5 9.85788
    endloop
  endfacet
  facet normal 0 1 0
    outer loop
      vertex -11.35 4.5 4.14212
      vertex -7 4.5 0
      vertex -14.65 4.5 4.14212
    endloop
  endfacet
  facet normal 0 1 0
    outer loop
      vertex -9.7 4.5 7
      vertex -7 4.5 0
      vertex -11.35 4.5 4.14212
    endloop
  endfacet
  facet normal 0 1 -0
    outer loop
      vertex -7 4.5 0
      vertex -9.7 4.5 7
      vertex -7 4.5 14
    endloop
  endfacet
  facet normal 0 1 -0
    outer loop
      vertex -14.65 4.5 9.85788
      vertex -19 4.5 14
      vertex -11.35 4.5 9.85788
    endloop
  endfacet
  facet normal 0 1 -0
    outer loop
      vertex -16.3 4.5 7
      vertex -19 4.5 14
      vertex -14.65 4.5 9.85788
    endloop
  endfacet
  facet normal 0 1 0
    outer loop
      vertex -16.3 4.5 7
      vertex -19 4.5 0
      vertex -19 4.5 14
    endloop
  endfacet
  facet normal 0 1 0
    outer loop
      vertex -14.65 4.5 4.14212
      vertex -19 4.5 0
      vertex -16.3 4.5 7
    endloop
  endfacet
  facet normal 0 1 0
    outer loop
      vertex -19 4.5 0
      vertex -14.65 4.5 4.14212
      vertex -7 4.5 0
    endloop
  endfacet
  facet normal 0 1 -0
    outer loop
      vertex 52.8 4.5 0
      vertex 49 4.5 14
      vertex 52.8 4.5 14
    endloop
  endfacet
  facet normal 0 1 0
    outer loop
      vertex 49 4.5 14
      vertex 52.8 4.5 0
      vertex 49 4.5 0
    endloop
  endfacet
  facet normal -1 0 0
    outer loop
      vertex -19 -1.5 0
      vertex -19 4.5 14
      vertex -19 4.5 0
    endloop
  endfacet
  facet normal -1 -0 0
    outer loop
      vertex -19 4.5 14
      vertex -19 -1.5 0
      vertex -19 -1.5 14
    endloop
  endfacet
  facet normal 1 -0 0
    outer loop
      vertex 49 -1.5 14
      vertex 49 0 0
      vertex 49 0 14
    endloop
  endfacet
  facet normal 1 0 0
    outer loop
      vertex 49 0 0
      vertex 49 -1.5 14
      vertex 49 -1.5 0
    endloop
  endfacet
  facet normal 1 -0 0
    outer loop
      vertex -9 -1.5 14
      vertex -9 0 0
      vertex -9 0 14
    endloop
  endfacet
  facet normal 1 0 0
    outer loop
      vertex -9 0 0
      vertex -9 -1.5 14
      vertex -9 -1.5 0
    endloop
  endfacet
  facet normal 0 -1 0
    outer loop
      vertex -19 -1.5 14
      vertex -13 -1.5 8.75
      vertex -9 -1.5 14
    endloop
  endfacet
  facet normal 0 -1 0
    outer loop
      vertex -19 -1.5 14
      vertex -13.5408 -1.5 8.66435
      vertex -13 -1.5 8.75
    endloop
  endfacet
  facet normal 0 -1 0
    outer loop
      vertex -19 -1.5 14
      vertex -14.0286 -1.5 8.41578
      vertex -13.5408 -1.5 8.66435
    endloop
  endfacet
  facet normal 0 -1 0
    outer loop
      vertex -19 -1.5 14
      vertex -14.4158 -1.5 8.02862
      vertex -14.0286 -1.5 8.41578
    endloop
  endfacet
  facet normal 0 -1 0
    outer loop
      vertex -19 -1.5 14
      vertex -14.6643 -1.5 7.54078
      vertex -14.4158 -1.5 8.02862
    endloop
  endfacet
  facet normal 0 -1 0
    outer loop
      vertex -19 -1.5 14
      vertex -14.75 -1.5 7
      vertex -14.6643 -1.5 7.54078
    endloop
  endfacet
  facet normal 0 -1 0
    outer loop
      vertex -19 -1.5 0
      vertex -14.75 -1.5 7
      vertex -19 -1.5 14
    endloop
  endfacet
  facet normal 0 -1 -0
    outer loop
      vertex -14.75 -1.5 7
      vertex -19 -1.5 0
      vertex -14.6643 -1.5 6.45922
    endloop
  endfacet
  facet normal 0 -1 -0
    outer loop
      vertex -13.5408 -1.5 5.33565
      vertex -19 -1.5 0
      vertex -13 -1.5 5.25
    endloop
  endfacet
  facet normal 0 -1 -0
    outer loop
      vertex -14.0286 -1.5 5.58422
      vertex -19 -1.5 0
      vertex -13.5408 -1.5 5.33565
    endloop
  endfacet
  facet normal 0 -1 -0
    outer loop
      vertex -14.4158 -1.5 5.97138
      vertex -19 -1.5 0
      vertex -14.0286 -1.5 5.58422
    endloop
  endfacet
  facet normal 0 -1 -0
    outer loop
      vertex -14.6643 -1.5 6.45922
      vertex -19 -1.5 0
      vertex -14.4158 -1.5 5.97138
    endloop
  endfacet
  facet normal 0 -1 0
    outer loop
      vertex -12.4592 -1.5 8.66435
      vertex -9 -1.5 14
      vertex -13 -1.5 8.75
    endloop
  endfacet
  facet normal 0 -1 0
    outer loop
      vertex -11.9714 -1.5 8.41578
      vertex -9 -1.5 14
      vertex -12.4592 -1.5 8.66435
    endloop
  endfacet
  facet normal 0 -1 0
    outer loop
      vertex -11.5842 -1.5 8.02862
      vertex -9 -1.5 14
      vertex -11.9714 -1.5 8.41578
    endloop
  endfacet
  facet normal 0 -1 0
    outer loop
      vertex -11.3357 -1.5 7.54078
      vertex -9 -1.5 14
      vertex -11.5842 -1.5 8.02862
    endloop
  endfacet
  facet normal 0 -1 0
    outer loop
      vertex -11.25 -1.5 7
      vertex -9 -1.5 14
      vertex -11.3357 -1.5 7.54078
    endloop
  endfacet
  facet normal 0 -1 0
    outer loop
      vertex -9 -1.5 0
      vertex -11.25 -1.5 7
      vertex -11.3357 -1.5 6.45922
    endloop
  endfacet
  facet normal 0 -1 0
    outer loop
      vertex -9 -1.5 0
      vertex -13 -1.5 5.25
      vertex -19 -1.5 0
    endloop
  endfacet
  facet normal 0 -1 0
    outer loop
      vertex -13 -1.5 5.25
      vertex -9 -1.5 0
      vertex -12.4592 -1.5 5.33565
    endloop
  endfacet
  facet normal 0 -1 0
    outer loop
      vertex -11.25 -1.5 7
      vertex -9 -1.5 0
      vertex -9 -1.5 14
    endloop
  endfacet
  facet normal 0 -1 0
    outer loop
      vertex -11.5842 -1.5 5.97138
      vertex -9 -1.5 0
      vertex -11.3357 -1.5 6.45922
    endloop
  endfacet
  facet normal 0 -1 0
    outer loop
      vertex -11.9714 -1.5 5.58422
      vertex -9 -1.5 0
      vertex -11.5842 -1.5 5.97138
    endloop
  endfacet
  facet normal 0 -1 0
    outer loop
      vertex -12.4592 -1.5 5.33565
      vertex -9 -1.5 0
      vertex -11.9714 -1.5 5.58422
    endloop
  endfacet
  facet normal -1 0 0
    outer loop
      vertex 39 -1.5 0
      vertex 39 0 14
      vertex 39 0 0
    endloop
  endfacet
  facet normal -1 -0 0
    outer loop
      vertex 39 0 14
      vertex 39 -1.5 0
      vertex 39 -1.5 14
    endloop
  endfacet
  facet normal 0 -1 0
    outer loop
      vertex 39 -1.5 14
      vertex 44 -1.5 8.75
      vertex 49 -1.5 14
    endloop
  endfacet
  facet normal 0 -1 0
    outer loop
      vertex 39 -1.5 14
      vertex 43.4592 -1.5 8.66435
      vertex 44 -1.5 8.75
    endloop
  endfacet
  facet normal 0 -1 0
    outer loop
      vertex 39 -1.5 14
      vertex 42.9714 -1.5 8.41578
      vertex 43.4592 -1.5 8.66435
    endloop
  endfacet
  facet normal 0 -1 0
    outer loop
      vertex 39 -1.5 14
      vertex 42.5842 -1.5 8.02862
      vertex 42.9714 -1.5 8.41578
    endloop
  endfacet
  facet normal 0 -1 0
    outer loop
      vertex 39 -1.5 14
      vertex 42.3357 -1.5 7.54078
      vertex 42.5842 -1.5 8.02862
    endloop
  endfacet
  facet normal 0 -1 0
    outer loop
      vertex 39 -1.5 14
      vertex 42.25 -1.5 7
      vertex 42.3357 -1.5 7.54078
    endloop
  endfacet
  facet normal 0 -1 0
    outer loop
      vertex 39 -1.5 0
      vertex 42.25 -1.5 7
      vertex 39 -1.5 14
    endloop
  endfacet
  facet normal 0 -1 -0
    outer loop
      vertex 43.4592 -1.5 5.33565
      vertex 39 -1.5 0
      vertex 44 -1.5 5.25
    endloop
  endfacet
  facet normal 0 -1 -0
    outer loop
      vertex 42.9714 -1.5 5.58422
      vertex 39 -1.5 0
      vertex 43.4592 -1.5 5.33565
    endloop
  endfacet
  facet normal 0 -1 -0
    outer loop
      vertex 42.5842 -1.5 5.97138
      vertex 39 -1.5 0
      vertex 42.9714 -1.5 5.58422
    endloop
  endfacet
  facet normal 0 -1 -0
    outer loop
      vertex 42.3357 -1.5 6.45922
      vertex 39 -1.5 0
      vertex 42.5842 -1.5 5.97138
    endloop
  endfacet
  facet normal 0 -1 -0
    outer loop
      vertex 42.25 -1.5 7
      vertex 39 -1.5 0
      vertex 42.3357 -1.5 6.45922
    endloop
  endfacet
  facet normal 0 -1 0
    outer loop
      vertex 44.5408 -1.5 8.66435
      vertex 49 -1.5 14
      vertex 44 -1.5 8.75
    endloop
  endfacet
  facet normal 0 -1 0
    outer loop
      vertex 45.0286 -1.5 8.41578
      vertex 49 -1.5 14
      vertex 44.5408 -1.5 8.66435
    endloop
  endfacet
  facet normal 0 -1 0
    outer loop
      vertex 45.4158 -1.5 8.02862
      vertex 49 -1.5 14
      vertex 45.0286 -1.5 8.41578
    endloop
  endfacet
  facet normal 0 -1 0
    outer loop
      vertex 45.6643 -1.5 7.54078
      vertex 49 -1.5 14
      vertex 45.4158 -1.5 8.02862
    endloop
  endfacet
  facet normal 0 -1 0
    outer loop
      vertex 45.75 -1.5 7
      vertex 49 -1.5 14
      vertex 45.6643 -1.5 7.54078
    endloop
  endfacet
  facet normal 0 -1 0
    outer loop
      vertex 49 -1.5 0
      vertex 45.75 -1.5 7
      vertex 45.6643 -1.5 6.45922
    endloop
  endfacet
  facet normal 0 -1 0
    outer loop
      vertex 49 -1.5 0
      vertex 44 -1.5 5.25
      vertex 39 -1.5 0
    endloop
  endfacet
  facet normal 0 -1 0
    outer loop
      vertex 44 -1.5 5.25
      vertex 49 -1.5 0
      vertex 44.5408 -1.5 5.33565
    endloop
  endfacet
  facet normal 0 -1 0
    outer loop
      vertex 45.75 -1.5 7
      vertex 49 -1.5 0
      vertex 49 -1.5 14
    endloop
  endfacet
  facet normal 0 -1 0
    outer loop
      vertex 45.4158 -1.5 5.97138
      vertex 49 -1.5 0
      vertex 45.6643 -1.5 6.45922
    endloop
  endfacet
  facet normal 0 -1 0
    outer loop
      vertex 45.0286 -1.5 5.58422
      vertex 49 -1.5 0
      vertex 45.4158 -1.5 5.97138
    endloop
  endfacet
  facet normal 0 -1 0
    outer loop
      vertex 44.5408 -1.5 5.33565
      vertex 49 -1.5 0
      vertex 45.0286 -1.5 5.58422
    endloop
  endfacet
  facet normal -0.987688 0 -0.156435
    outer loop
      vertex 45.75 -1.5 7
      vertex 45.6643 1.7 7.54078
      vertex 45.75 1.7 7
    endloop
  endfacet
  facet normal -0.987688 -0 -0.156435
    outer loop
      vertex 45.6643 1.7 7.54078
      vertex 45.75 -1.5 7
      vertex 45.6643 -1.5 7.54078
    endloop
  endfacet
  facet normal 0.987688 0 -0.156435
    outer loop
      vertex 42.3357 -1.5 7.54078
      vertex 42.25 1.7 7
      vertex 42.3357 1.7 7.54078
    endloop
  endfacet
  facet normal 0.987688 0 -0.156435
    outer loop
      vertex 42.25 1.7 7
      vertex 42.3357 -1.5 7.54078
      vertex 42.25 -1.5 7
    endloop
  endfacet
  facet normal -0.156435 0 -0.987688
    outer loop
      vertex 44 -1.5 8.75
      vertex 44.5408 1.7 8.66435
      vertex 44.5408 -1.5 8.66435
    endloop
  endfacet
  facet normal -0.156435 0 -0.987688
    outer loop
      vertex 44.5408 1.7 8.66435
      vertex 44 -1.5 8.75
      vertex 44 1.7 8.75
    endloop
  endfacet
  facet normal 0.156435 0 0.987688
    outer loop
      vertex 43.4592 1.7 5.33565
      vertex 44 -1.5 5.25
      vertex 44 1.7 5.25
    endloop
  endfacet
  facet normal 0.156435 0 0.987688
    outer loop
      vertex 44 -1.5 5.25
      vertex 43.4592 1.7 5.33565
      vertex 43.4592 -1.5 5.33565
    endloop
  endfacet
  facet normal -0.707109 0 -0.707105
    outer loop
      vertex 45.4158 -1.5 8.02862
      vertex 45.0286 1.7 8.41578
      vertex 45.4158 1.7 8.02862
    endloop
  endfacet
  facet normal -0.707109 -0 -0.707105
    outer loop
      vertex 45.0286 1.7 8.41578
      vertex 45.4158 -1.5 8.02862
      vertex 45.0286 -1.5 8.41578
    endloop
  endfacet
  facet normal -0.891006 0 -0.453991
    outer loop
      vertex 45.6643 -1.5 7.54078
      vertex 45.4158 1.7 8.02862
      vertex 45.6643 1.7 7.54078
    endloop
  endfacet
  facet normal -0.891006 -0 -0.453991
    outer loop
      vertex 45.4158 1.7 8.02862
      vertex 45.6643 -1.5 7.54078
      vertex 45.4158 -1.5 8.02862
    endloop
  endfacet
  facet normal -0.45399 0 -0.891007
    outer loop
      vertex 44.5408 -1.5 8.66435
      vertex 45.0286 1.7 8.41578
      vertex 45.0286 -1.5 8.41578
    endloop
  endfacet
  facet normal -0.45399 0 -0.891007
    outer loop
      vertex 45.0286 1.7 8.41578
      vertex 44.5408 -1.5 8.66435
      vertex 44.5408 1.7 8.66435
    endloop
  endfacet
  facet normal 0.45399 0 -0.891007
    outer loop
      vertex 42.9714 -1.5 8.41578
      vertex 43.4592 1.7 8.66435
      vertex 43.4592 -1.5 8.66435
    endloop
  endfacet
  facet normal 0.45399 0 -0.891007
    outer loop
      vertex 43.4592 1.7 8.66435
      vertex 42.9714 -1.5 8.41578
      vertex 42.9714 1.7 8.41578
    endloop
  endfacet
  facet normal 0.707109 0 -0.707105
    outer loop
      vertex 42.9714 -1.5 8.41578
      vertex 42.5842 1.7 8.02862
      vertex 42.9714 1.7 8.41578
    endloop
  endfacet
  facet normal 0.707109 0 -0.707105
    outer loop
      vertex 42.5842 1.7 8.02862
      vertex 42.9714 -1.5 8.41578
      vertex 42.5842 -1.5 8.02862
    endloop
  endfacet
  facet normal 0.156435 0 -0.987688
    outer loop
      vertex 43.4592 -1.5 8.66435
      vertex 44 1.7 8.75
      vertex 44 -1.5 8.75
    endloop
  endfacet
  facet normal 0.156435 0 -0.987688
    outer loop
      vertex 44 1.7 8.75
      vertex 43.4592 -1.5 8.66435
      vertex 43.4592 1.7 8.66435
    endloop
  endfacet
  facet normal -0.891006 0 0.453991
    outer loop
      vertex 45.4158 -1.5 5.97138
      vertex 45.6643 1.7 6.45922
      vertex 45.4158 1.7 5.97138
    endloop
  endfacet
  facet normal -0.891006 0 0.453991
    outer loop
      vertex 45.6643 1.7 6.45922
      vertex 45.4158 -1.5 5.97138
      vertex 45.6643 -1.5 6.45922
    endloop
  endfacet
  facet normal 0.707109 -0 0.707105
    outer loop
      vertex 42.5842 -1.5 5.97138
      vertex 42.9714 1.7 5.58422
      vertex 42.5842 1.7 5.97138
    endloop
  endfacet
  facet normal 0.707109 0 0.707105
    outer loop
      vertex 42.9714 1.7 5.58422
      vertex 42.5842 -1.5 5.97138
      vertex 42.9714 -1.5 5.58422
    endloop
  endfacet
  facet normal 0.987688 -0 0.156435
    outer loop
      vertex 42.25 -1.5 7
      vertex 42.3357 1.7 6.45922
      vertex 42.25 1.7 7
    endloop
  endfacet
  facet normal 0.987688 0 0.156435
    outer loop
      vertex 42.3357 1.7 6.45922
      vertex 42.25 -1.5 7
      vertex 42.3357 -1.5 6.45922
    endloop
  endfacet
  facet normal 0.891006 0 -0.453991
    outer loop
      vertex 42.5842 -1.5 8.02862
      vertex 42.3357 1.7 7.54078
      vertex 42.5842 1.7 8.02862
    endloop
  endfacet
  facet normal 0.891006 0 -0.453991
    outer loop
      vertex 42.3357 1.7 7.54078
      vertex 42.5842 -1.5 8.02862
      vertex 42.3357 -1.5 7.54078
    endloop
  endfacet
  facet normal -0.987688 0 0.156435
    outer loop
      vertex 45.6643 -1.5 6.45922
      vertex 45.75 1.7 7
      vertex 45.6643 1.7 6.45922
    endloop
  endfacet
  facet normal -0.987688 0 0.156435
    outer loop
      vertex 45.75 1.7 7
      vertex 45.6643 -1.5 6.45922
      vertex 45.75 -1.5 7
    endloop
  endfacet
  facet normal -0.156435 0 0.987688
    outer loop
      vertex 44 1.7 5.25
      vertex 44.5408 -1.5 5.33565
      vertex 44.5408 1.7 5.33565
    endloop
  endfacet
  facet normal -0.156435 0 0.987688
    outer loop
      vertex 44.5408 -1.5 5.33565
      vertex 44 1.7 5.25
      vertex 44 -1.5 5.25
    endloop
  endfacet
  facet normal -0.707109 0 0.707105
    outer loop
      vertex 45.0286 -1.5 5.58422
      vertex 45.4158 1.7 5.97138
      vertex 45.0286 1.7 5.58422
    endloop
  endfacet
  facet normal -0.707109 0 0.707105
    outer loop
      vertex 45.4158 1.7 5.97138
      vertex 45.0286 -1.5 5.58422
      vertex 45.4158 -1.5 5.97138
    endloop
  endfacet
  facet normal 0.45399 0 0.891007
    outer loop
      vertex 42.9714 1.7 5.58422
      vertex 43.4592 -1.5 5.33565
      vertex 43.4592 1.7 5.33565
    endloop
  endfacet
  facet normal 0.45399 0 0.891007
    outer loop
      vertex 43.4592 -1.5 5.33565
      vertex 42.9714 1.7 5.58422
      vertex 42.9714 -1.5 5.58422
    endloop
  endfacet
  facet normal 0.891006 -0 0.453991
    outer loop
      vertex 42.3357 -1.5 6.45922
      vertex 42.5842 1.7 5.97138
      vertex 42.3357 1.7 6.45922
    endloop
  endfacet
  facet normal 0.891006 0 0.453991
    outer loop
      vertex 42.5842 1.7 5.97138
      vertex 42.3357 -1.5 6.45922
      vertex 42.5842 -1.5 5.97138
    endloop
  endfacet
  facet normal -0.45399 0 0.891007
    outer loop
      vertex 44.5408 1.7 5.33565
      vertex 45.0286 -1.5 5.58422
      vertex 45.0286 1.7 5.58422
    endloop
  endfacet
  facet normal -0.45399 0 0.891007
    outer loop
      vertex 45.0286 -1.5 5.58422
      vertex 44.5408 1.7 5.33565
      vertex 44.5408 -1.5 5.33565
    endloop
  endfacet
  facet normal -0.866026 0 -0.5
    outer loop
      vertex 47.3 1.7 7
      vertex 45.65 4.5 9.85788
      vertex 47.3 4.5 7
    endloop
  endfacet
  facet normal -0.866026 -0 -0.5
    outer loop
      vertex 45.65 4.5 9.85788
      vertex 47.3 1.7 7
      vertex 45.65 1.7 9.85788
    endloop
  endfacet
  facet normal 0.866026 0 -0.5
    outer loop
      vertex 42.35 1.7 9.85788
      vertex 40.7 4.5 7
      vertex 42.35 4.5 9.85788
    endloop
  endfacet
  facet normal 0.866026 0 -0.5
    outer loop
      vertex 40.7 4.5 7
      vertex 42.35 1.7 9.85788
      vertex 40.7 1.7 7
    endloop
  endfacet
  facet normal 0 0 -1
    outer loop
      vertex 42.35 1.7 9.85788
      vertex 45.65 4.5 9.85788
      vertex 45.65 1.7 9.85788
    endloop
  endfacet
  facet normal -0 0 -1
    outer loop
      vertex 45.65 4.5 9.85788
      vertex 42.35 1.7 9.85788
      vertex 42.35 4.5 9.85788
    endloop
  endfacet
  facet normal 0.866026 -0 0.5
    outer loop
      vertex 40.7 1.7 7
      vertex 42.35 4.5 4.14212
      vertex 40.7 4.5 7
    endloop
  endfacet
  facet normal 0.866026 0 0.5
    outer loop
      vertex 42.35 4.5 4.14212
      vertex 40.7 1.7 7
      vertex 42.35 1.7 4.14212
    endloop
  endfacet
  facet normal 0 1 0
    outer loop
      vertex 45.65 1.7 9.85788
      vertex 44 1.7 8.75
      vertex 42.35 1.7 9.85788
    endloop
  endfacet
  facet normal 0 1 0
    outer loop
      vertex 45.65 1.7 9.85788
      vertex 44.5408 1.7 8.66435
      vertex 44 1.7 8.75
    endloop
  endfacet
  facet normal 0 1 0
    outer loop
      vertex 45.65 1.7 9.85788
      vertex 45.0286 1.7 8.41578
      vertex 44.5408 1.7 8.66435
    endloop
  endfacet
  facet normal 0 1 0
    outer loop
      vertex 45.65 1.7 9.85788
      vertex 45.4158 1.7 8.02862
      vertex 45.0286 1.7 8.41578
    endloop
  endfacet
  facet normal 0 1 0
    outer loop
      vertex 47.3 1.7 7
      vertex 45.4158 1.7 8.02862
      vertex 45.65 1.7 9.85788
    endloop
  endfacet
  facet normal 0 1 0
    outer loop
      vertex 45.4158 1.7 8.02862
      vertex 47.3 1.7 7
      vertex 45.6643 1.7 7.54078
    endloop
  endfacet
  facet normal 0 1 0
    outer loop
      vertex 47.3 1.7 7
      vertex 45.75 1.7 7
      vertex 45.6643 1.7 7.54078
    endloop
  endfacet
  facet normal 0 1 0
    outer loop
      vertex 47.3 1.7 7
      vertex 45.6643 1.7 6.45922
      vertex 45.75 1.7 7
    endloop
  endfacet
  facet normal 0 1 0
    outer loop
      vertex 47.3 1.7 7
      vertex 45.4158 1.7 5.97138
      vertex 45.6643 1.7 6.45922
    endloop
  endfacet
  facet normal 0 1 -0
    outer loop
      vertex 45.65 1.7 4.14212
      vertex 45.4158 1.7 5.97138
      vertex 47.3 1.7 7
    endloop
  endfacet
  facet normal 0 1 0
    outer loop
      vertex 44.5408 1.7 5.33565
      vertex 45.65 1.7 4.14212
      vertex 44 1.7 5.25
    endloop
  endfacet
  facet normal 0 1 0
    outer loop
      vertex 45.0286 1.7 5.58422
      vertex 45.65 1.7 4.14212
      vertex 44.5408 1.7 5.33565
    endloop
  endfacet
  facet normal 0 1 0
    outer loop
      vertex 45.4158 1.7 5.97138
      vertex 45.65 1.7 4.14212
      vertex 45.0286 1.7 5.58422
    endloop
  endfacet
  facet normal 0 1 -0
    outer loop
      vertex 43.4592 1.7 8.66435
      vertex 42.35 1.7 9.85788
      vertex 44 1.7 8.75
    endloop
  endfacet
  facet normal 0 1 -0
    outer loop
      vertex 42.9714 1.7 8.41578
      vertex 42.35 1.7 9.85788
      vertex 43.4592 1.7 8.66435
    endloop
  endfacet
  facet normal 0 1 -0
    outer loop
      vertex 42.5842 1.7 8.02862
      vertex 42.35 1.7 9.85788
      vertex 42.9714 1.7 8.41578
    endloop
  endfacet
  facet normal 0 1 0
    outer loop
      vertex 40.7 1.7 7
      vertex 42.5842 1.7 8.02862
      vertex 42.3357 1.7 7.54078
    endloop
  endfacet
  facet normal 0 1 0
    outer loop
      vertex 40.7 1.7 7
      vertex 42.3357 1.7 7.54078
      vertex 42.25 1.7 7
    endloop
  endfacet
  facet normal 0 1 0
    outer loop
      vertex 42.5842 1.7 8.02862
      vertex 40.7 1.7 7
      vertex 42.35 1.7 9.85788
    endloop
  endfacet
  facet normal 0 1 0
    outer loop
      vertex 42.3357 1.7 6.45922
      vertex 40.7 1.7 7
      vertex 42.25 1.7 7
    endloop
  endfacet
  facet normal 0 1 0
    outer loop
      vertex 42.5842 1.7 5.97138
      vertex 40.7 1.7 7
      vertex 42.3357 1.7 6.45922
    endloop
  endfacet
  facet normal 0 1 0
    outer loop
      vertex 42.35 1.7 4.14212
      vertex 42.5842 1.7 5.97138
      vertex 42.9714 1.7 5.58422
    endloop
  endfacet
  facet normal 0 1 0
    outer loop
      vertex 42.35 1.7 4.14212
      vertex 44 1.7 5.25
      vertex 45.65 1.7 4.14212
    endloop
  endfacet
  facet normal 0 1 0
    outer loop
      vertex 44 1.7 5.25
      vertex 42.35 1.7 4.14212
      vertex 43.4592 1.7 5.33565
    endloop
  endfacet
  facet normal 0 1 0
    outer loop
      vertex 42.5842 1.7 5.97138
      vertex 42.35 1.7 4.14212
      vertex 40.7 1.7 7
    endloop
  endfacet
  facet normal 0 1 0
    outer loop
      vertex 43.4592 1.7 5.33565
      vertex 42.35 1.7 4.14212
      vertex 42.9714 1.7 5.58422
    endloop
  endfacet
  facet normal -0.866026 0 0.5
    outer loop
      vertex 45.65 1.7 4.14212
      vertex 47.3 4.5 7
      vertex 45.65 4.5 4.14212
    endloop
  endfacet
  facet normal -0.866026 0 0.5
    outer loop
      vertex 47.3 4.5 7
      vertex 45.65 1.7 4.14212
      vertex 47.3 1.7 7
    endloop
  endfacet
  facet normal -0 0 1
    outer loop
      vertex 42.35 4.5 4.14212
      vertex 45.65 1.7 4.14212
      vertex 45.65 4.5 4.14212
    endloop
  endfacet
  facet normal 0 0 1
    outer loop
      vertex 45.65 1.7 4.14212
      vertex 42.35 4.5 4.14212
      vertex 42.35 1.7 4.14212
    endloop
  endfacet
  facet normal -0.987688 0 -0.156435
    outer loop
      vertex -11.25 -1.5 7
      vertex -11.3357 1.7 7.54078
      vertex -11.25 1.7 7
    endloop
  endfacet
  facet normal -0.987688 -0 -0.156435
    outer loop
      vertex -11.3357 1.7 7.54078
      vertex -11.25 -1.5 7
      vertex -11.3357 -1.5 7.54078
    endloop
  endfacet
  facet normal -0.453991 0 -0.891006
    outer loop
      vertex -12.4592 -1.5 8.66435
      vertex -11.9714 1.7 8.41578
      vertex -11.9714 -1.5 8.41578
    endloop
  endfacet
  facet normal -0.453991 0 -0.891006
    outer loop
      vertex -11.9714 1.7 8.41578
      vertex -12.4592 -1.5 8.66435
      vertex -12.4592 1.7 8.66435
    endloop
  endfacet
  facet normal 0.453991 0 0.891006
    outer loop
      vertex -14.0286 1.7 5.58422
      vertex -13.5408 -1.5 5.33565
      vertex -13.5408 1.7 5.33565
    endloop
  endfacet
  facet normal 0.453991 0 0.891006
    outer loop
      vertex -13.5408 -1.5 5.33565
      vertex -14.0286 1.7 5.58422
      vertex -14.0286 -1.5 5.58422
    endloop
  endfacet
  facet normal -0.707107 0 -0.707107
    outer loop
      vertex -11.5842 -1.5 8.02862
      vertex -11.9714 1.7 8.41578
      vertex -11.5842 1.7 8.02862
    endloop
  endfacet
  facet normal -0.707107 -0 -0.707107
    outer loop
      vertex -11.9714 1.7 8.41578
      vertex -11.5842 -1.5 8.02862
      vertex -11.9714 -1.5 8.41578
    endloop
  endfacet
  facet normal -0.891006 0 -0.453991
    outer loop
      vertex -11.3357 -1.5 7.54078
      vertex -11.5842 1.7 8.02862
      vertex -11.3357 1.7 7.54078
    endloop
  endfacet
  facet normal -0.891006 -0 -0.453991
    outer loop
      vertex -11.5842 1.7 8.02862
      vertex -11.3357 -1.5 7.54078
      vertex -11.5842 -1.5 8.02862
    endloop
  endfacet
  facet normal -0.156435 0 -0.987688
    outer loop
      vertex -13 -1.5 8.75
      vertex -12.4592 1.7 8.66435
      vertex -12.4592 -1.5 8.66435
    endloop
  endfacet
  facet normal -0.156435 0 -0.987688
    outer loop
      vertex -12.4592 1.7 8.66435
      vertex -13 -1.5 8.75
      vertex -13 1.7 8.75
    endloop
  endfacet
  facet normal 0.156435 0 -0.987688
    outer loop
      vertex -13.5408 -1.5 8.66435
      vertex -13 1.7 8.75
      vertex -13 -1.5 8.75
    endloop
  endfacet
  facet normal 0.156435 0 -0.987688
    outer loop
      vertex -13 1.7 8.75
      vertex -13.5408 -1.5 8.66435
      vertex -13.5408 1.7 8.66435
    endloop
  endfacet
  facet normal 0.453991 0 -0.891006
    outer loop
      vertex -14.0286 -1.5 8.41578
      vertex -13.5408 1.7 8.66435
      vertex -13.5408 -1.5 8.66435
    endloop
  endfacet
  facet normal 0.453991 0 -0.891006
    outer loop
      vertex -13.5408 1.7 8.66435
      vertex -14.0286 -1.5 8.41578
      vertex -14.0286 1.7 8.41578
    endloop
  endfacet
  facet normal -0.707107 0 0.707107
    outer loop
      vertex -11.9714 -1.5 5.58422
      vertex -11.5842 1.7 5.97138
      vertex -11.9714 1.7 5.58422
    endloop
  endfacet
  facet normal -0.707107 0 0.707107
    outer loop
      vertex -11.5842 1.7 5.97138
      vertex -11.9714 -1.5 5.58422
      vertex -11.5842 -1.5 5.97138
    endloop
  endfacet
  facet normal 0.987688 -0 0.156435
    outer loop
      vertex -14.75 -1.5 7
      vertex -14.6643 1.7 6.45922
      vertex -14.75 1.7 7
    endloop
  endfacet
  facet normal 0.987688 0 0.156435
    outer loop
      vertex -14.6643 1.7 6.45922
      vertex -14.75 -1.5 7
      vertex -14.6643 -1.5 6.45922
    endloop
  endfacet
  facet normal 0.707107 -0 0.707107
    outer loop
      vertex -14.4158 -1.5 5.97138
      vertex -14.0286 1.7 5.58422
      vertex -14.4158 1.7 5.97138
    endloop
  endfacet
  facet normal 0.707107 0 0.707107
    outer loop
      vertex -14.0286 1.7 5.58422
      vertex -14.4158 -1.5 5.97138
      vertex -14.0286 -1.5 5.58422
    endloop
  endfacet
  facet normal 0.891006 -0 0.453991
    outer loop
      vertex -14.6643 -1.5 6.45922
      vertex -14.4158 1.7 5.97138
      vertex -14.6643 1.7 6.45922
    endloop
  endfacet
  facet normal 0.891006 0 0.453991
    outer loop
      vertex -14.4158 1.7 5.97138
      vertex -14.6643 -1.5 6.45922
      vertex -14.4158 -1.5 5.97138
    endloop
  endfacet
  facet normal 0.987688 0 -0.156435
    outer loop
      vertex -14.6643 -1.5 7.54078
      vertex -14.75 1.7 7
      vertex -14.6643 1.7 7.54078
    endloop
  endfacet
  facet normal 0.987688 0 -0.156435
    outer loop
      vertex -14.75 1.7 7
      vertex -14.6643 -1.5 7.54078
      vertex -14.75 -1.5 7
    endloop
  endfacet
  facet normal 0.707107 0 -0.707107
    outer loop
      vertex -14.0286 -1.5 8.41578
      vertex -14.4158 1.7 8.02862
      vertex -14.0286 1.7 8.41578
    endloop
  endfacet
  facet normal 0.707107 0 -0.707107
    outer loop
      vertex -14.4158 1.7 8.02862
      vertex -14.0286 -1.5 8.41578
      vertex -14.4158 -1.5 8.02862
    endloop
  endfacet
  facet normal -0.891006 0 0.453991
    outer loop
      vertex -11.5842 -1.5 5.97138
      vertex -11.3357 1.7 6.45922
      vertex -11.5842 1.7 5.97138
    endloop
  endfacet
  facet normal -0.891006 0 0.453991
    outer loop
      vertex -11.3357 1.7 6.45922
      vertex -11.5842 -1.5 5.97138
      vertex -11.3357 -1.5 6.45922
    endloop
  endfacet
  facet normal -0.156435 0 0.987688
    outer loop
      vertex -13 1.7 5.25
      vertex -12.4592 -1.5 5.33565
      vertex -12.4592 1.7 5.33565
    endloop
  endfacet
  facet normal -0.156435 0 0.987688
    outer loop
      vertex -12.4592 -1.5 5.33565
      vertex -13 1.7 5.25
      vertex -13 -1.5 5.25
    endloop
  endfacet
  facet normal -0.453991 0 0.891006
    outer loop
      vertex -12.4592 1.7 5.33565
      vertex -11.9714 -1.5 5.58422
      vertex -11.9714 1.7 5.58422
    endloop
  endfacet
  facet normal -0.453991 0 0.891006
    outer loop
      vertex -11.9714 -1.5 5.58422
      vertex -12.4592 1.7 5.33565
      vertex -12.4592 -1.5 5.33565
    endloop
  endfacet
  facet normal 0.156435 0 0.987688
    outer loop
      vertex -13.5408 1.7 5.33565
      vertex -13 -1.5 5.25
      vertex -13 1.7 5.25
    endloop
  endfacet
  facet normal 0.156435 0 0.987688
    outer loop
      vertex -13 -1.5 5.25
      vertex -13.5408 1.7 5.33565
      vertex -13.5408 -1.5 5.33565
    endloop
  endfacet
  facet normal 0.891006 0 -0.453991
    outer loop
      vertex -14.4158 -1.5 8.02862
      vertex -14.6643 1.7 7.54078
      vertex -14.4158 1.7 8.02862
    endloop
  endfacet
  facet normal 0.891006 0 -0.453991
    outer loop
      vertex -14.6643 1.7 7.54078
      vertex -14.4158 -1.5 8.02862
      vertex -14.6643 -1.5 7.54078
    endloop
  endfacet
  facet normal -0.987688 0 0.156435
    outer loop
      vertex -11.3357 -1.5 6.45922
      vertex -11.25 1.7 7
      vertex -11.3357 1.7 6.45922
    endloop
  endfacet
  facet normal -0.987688 0 0.156435
    outer loop
      vertex -11.25 1.7 7
      vertex -11.3357 -1.5 6.45922
      vertex -11.25 -1.5 7
    endloop
  endfacet
  facet normal -0.866025 0 -0.5
    outer loop
      vertex -9.7 1.7 7
      vertex -11.35 4.5 9.85788
      vertex -9.7 4.5 7
    endloop
  endfacet
  facet normal -0.866025 -0 -0.5
    outer loop
      vertex -11.35 4.5 9.85788
      vertex -9.7 1.7 7
      vertex -11.35 1.7 9.85788
    endloop
  endfacet
  facet normal 0.866025 0 -0.5
    outer loop
      vertex -14.65 1.7 9.85788
      vertex -16.3 4.5 7
      vertex -14.65 4.5 9.85788
    endloop
  endfacet
  facet normal 0.866025 0 -0.5
    outer loop
      vertex -16.3 4.5 7
      vertex -14.65 1.7 9.85788
      vertex -16.3 1.7 7
    endloop
  endfacet
  facet normal 0 0 -1
    outer loop
      vertex -14.65 1.7 9.85788
      vertex -11.35 4.5 9.85788
      vertex -11.35 1.7 9.85788
    endloop
  endfacet
  facet normal -0 0 -1
    outer loop
      vertex -11.35 4.5 9.85788
      vertex -14.65 1.7 9.85788
      vertex -14.65 4.5 9.85788
    endloop
  endfacet
  facet normal 0 1 0
    outer loop
      vertex -11.35 1.7 9.85788
      vertex -13 1.7 8.75
      vertex -14.65 1.7 9.85788
    endloop
  endfacet
  facet normal 0 1 0
    outer loop
      vertex -11.35 1.7 9.85788
      vertex -12.4592 1.7 8.66435
      vertex -13 1.7 8.75
    endloop
  endfacet
  facet normal 0 1 0
    outer loop
      vertex -11.35 1.7 9.85788
      vertex -11.9714 1.7 8.41578
      vertex -12.4592 1.7 8.66435
    endloop
  endfacet
  facet normal 0 1 0
    outer loop
      vertex -11.35 1.7 9.85788
      vertex -11.5842 1.7 8.02862
      vertex -11.9714 1.7 8.41578
    endloop
  endfacet
  facet normal 0 1 0
    outer loop
      vertex -9.7 1.7 7
      vertex -11.5842 1.7 8.02862
      vertex -11.35 1.7 9.85788
    endloop
  endfacet
  facet normal 0 1 0
    outer loop
      vertex -11.5842 1.7 8.02862
      vertex -9.7 1.7 7
      vertex -11.3357 1.7 7.54078
    endloop
  endfacet
  facet normal 0 1 0
    outer loop
      vertex -9.7 1.7 7
      vertex -11.25 1.7 7
      vertex -11.3357 1.7 7.54078
    endloop
  endfacet
  facet normal 0 1 0
    outer loop
      vertex -9.7 1.7 7
      vertex -11.3357 1.7 6.45922
      vertex -11.25 1.7 7
    endloop
  endfacet
  facet normal 0 1 0
    outer loop
      vertex -9.7 1.7 7
      vertex -11.5842 1.7 5.97138
      vertex -11.3357 1.7 6.45922
    endloop
  endfacet
  facet normal 0 1 -0
    outer loop
      vertex -11.35 1.7 4.14212
      vertex -11.5842 1.7 5.97138
      vertex -9.7 1.7 7
    endloop
  endfacet
  facet normal 0 1 0
    outer loop
      vertex -12.4592 1.7 5.33565
      vertex -11.35 1.7 4.14212
      vertex -13 1.7 5.25
    endloop
  endfacet
  facet normal 0 1 0
    outer loop
      vertex -11.9714 1.7 5.58422
      vertex -11.35 1.7 4.14212
      vertex -12.4592 1.7 5.33565
    endloop
  endfacet
  facet normal 0 1 0
    outer loop
      vertex -11.5842 1.7 5.97138
      vertex -11.35 1.7 4.14212
      vertex -11.9714 1.7 5.58422
    endloop
  endfacet
  facet normal 0 1 -0
    outer loop
      vertex -13.5408 1.7 8.66435
      vertex -14.65 1.7 9.85788
      vertex -13 1.7 8.75
    endloop
  endfacet
  facet normal 0 1 -0
    outer loop
      vertex -14.0286 1.7 8.41578
      vertex -14.65 1.7 9.85788
      vertex -13.5408 1.7 8.66435
    endloop
  endfacet
  facet normal 0 1 -0
    outer loop
      vertex -14.4158 1.7 8.02862
      vertex -14.65 1.7 9.85788
      vertex -14.0286 1.7 8.41578
    endloop
  endfacet
  facet normal 0 1 0
    outer loop
      vertex -16.3 1.7 7
      vertex -14.4158 1.7 8.02862
      vertex -14.6643 1.7 7.54078
    endloop
  endfacet
  facet normal 0 1 0
    outer loop
      vertex -16.3 1.7 7
      vertex -14.6643 1.7 7.54078
      vertex -14.75 1.7 7
    endloop
  endfacet
  facet normal 0 1 0
    outer loop
      vertex -14.4158 1.7 8.02862
      vertex -16.3 1.7 7
      vertex -14.65 1.7 9.85788
    endloop
  endfacet
  facet normal 0 1 0
    outer loop
      vertex -14.6643 1.7 6.45922
      vertex -16.3 1.7 7
      vertex -14.75 1.7 7
    endloop
  endfacet
  facet normal 0 1 0
    outer loop
      vertex -14.4158 1.7 5.97138
      vertex -16.3 1.7 7
      vertex -14.6643 1.7 6.45922
    endloop
  endfacet
  facet normal 0 1 0
    outer loop
      vertex -14.65 1.7 4.14212
      vertex -14.4158 1.7 5.97138
      vertex -14.0286 1.7 5.58422
    endloop
  endfacet
  facet normal 0 1 0
    outer loop
      vertex -14.65 1.7 4.14212
      vertex -13 1.7 5.25
      vertex -11.35 1.7 4.14212
    endloop
  endfacet
  facet normal 0 1 0
    outer loop
      vertex -13 1.7 5.25
      vertex -14.65 1.7 4.14212
      vertex -13.5408 1.7 5.33565
    endloop
  endfacet
  facet normal 0 1 0
    outer loop
      vertex -14.4158 1.7 5.97138
      vertex -14.65 1.7 4.14212
      vertex -16.3 1.7 7
    endloop
  endfacet
  facet normal 0 1 0
    outer loop
      vertex -13.5408 1.7 5.33565
      vertex -14.65 1.7 4.14212
      vertex -14.0286 1.7 5.58422
    endloop
  endfacet
  facet normal -0 0 1
    outer loop
      vertex -14.65 4.5 4.14212
      vertex -11.35 1.7 4.14212
      vertex -11.35 4.5 4.14212
    endloop
  endfacet
  facet normal 0 0 1
    outer loop
      vertex -11.35 1.7 4.14212
      vertex -14.65 4.5 4.14212
      vertex -14.65 1.7 4.14212
    endloop
  endfacet
  facet normal 0.866025 -0 0.5
    outer loop
      vertex -16.3 1.7 7
      vertex -14.65 4.5 4.14212
      vertex -16.3 4.5 7
    endloop
  endfacet
  facet normal 0.866025 0 0.5
    outer loop
      vertex -14.65 4.5 4.14212
      vertex -16.3 1.7 7
      vertex -14.65 1.7 4.14212
    endloop
  endfacet
  facet normal -0.866025 0 0.5
    outer loop
      vertex -11.35 1.7 4.14212
      vertex -9.7 4.5 7
      vertex -11.35 4.5 4.14212
    endloop
  endfacet
  facet normal -0.866025 0 0.5
    outer loop
      vertex -9.7 4.5 7
      vertex -11.35 1.7 4.14212
      vertex -9.7 1.7 7
    endloop
  endfacet
  facet normal 1 -0 0
    outer loop
      vertex 11.5 4.5 14
      vertex 11.5 4.57125 0
      vertex 11.5 4.57125 14
    endloop
  endfacet
  facet normal 1 0 0
    outer loop
      vertex 11.5 4.57125 0
      vertex 11.5 4.5 14
      vertex 11.5 4.5 0
    endloop
  endfacet
  facet normal 0.989822 0.142314 0
    outer loop
      vertex 4.78355 9.52787 14
      vertex 4.5 11.5 0
      vertex 4.5 11.5 14
    endloop
  endfacet
  facet normal 0.989822 0.142314 0
    outer loop
      vertex 4.5 11.5 0
      vertex 4.78355 9.52787 14
      vertex 4.78355 9.52787 0
    endloop
  endfacet
  facet normal 0.909632 0.415415 0
    outer loop
      vertex 5.61123 7.71551 14
      vertex 4.78355 9.52787 0
      vertex 4.78355 9.52787 14
    endloop
  endfacet
  facet normal 0.909632 0.415415 0
    outer loop
      vertex 4.78355 9.52787 0
      vertex 5.61123 7.71551 14
      vertex 5.61123 7.71551 0
    endloop
  endfacet
  facet normal 0.540641 0.841254 -0
    outer loop
      vertex 8.59209 5.13258 0
      vertex 6.91597 6.20975 14
      vertex 8.59209 5.13258 14
    endloop
  endfacet
  facet normal 0.540641 0.841254 0
    outer loop
      vertex 6.91597 6.20975 14
      vertex 8.59209 5.13258 0
      vertex 6.91597 6.20975 0
    endloop
  endfacet
  facet normal 0 1 -0
    outer loop
      vertex 11.5 4.57125 0
      vertex 10.5038 4.57125 14
      vertex 11.5 4.57125 14
    endloop
  endfacet
  facet normal 0 1 0
    outer loop
      vertex 10.5038 4.57125 14
      vertex 11.5 4.57125 0
      vertex 10.5038 4.57125 0
    endloop
  endfacet
  facet normal 0.75575 0.654861 0
    outer loop
      vertex 6.91597 6.20975 14
      vertex 5.61123 7.71551 0
      vertex 5.61123 7.71551 14
    endloop
  endfacet
  facet normal 0.75575 0.654861 0
    outer loop
      vertex 5.61123 7.71551 0
      vertex 6.91597 6.20975 14
      vertex 6.91597 6.20975 0
    endloop
  endfacet
  facet normal 0.281733 0.959493 -0
    outer loop
      vertex 10.5038 4.57125 0
      vertex 8.59209 5.13258 14
      vertex 10.5038 4.57125 14
    endloop
  endfacet
  facet normal 0.281733 0.959493 0
    outer loop
      vertex 8.59209 5.13258 14
      vertex 10.5038 4.57125 0
      vertex 8.59209 5.13258 0
    endloop
  endfacet
  facet normal -1 0 0
    outer loop
      vertex 52.8 4.5 0
      vertex 52.8 4.57125 14
      vertex 52.8 4.57125 0
    endloop
  endfacet
  facet normal -1 -0 0
    outer loop
      vertex 52.8 4.57125 14
      vertex 52.8 4.5 0
      vertex 52.8 4.5 14
    endloop
  endfacet
  facet normal -0.909632 0.415414 0
    outer loop
      vertex 58.6888 7.71551 0
      vertex 59.5164 9.52787 14
      vertex 59.5164 9.52787 0
    endloop
  endfacet
  facet normal -0.909632 0.415414 0
    outer loop
      vertex 59.5164 9.52787 14
      vertex 58.6888 7.71551 0
      vertex 58.6888 7.71551 14
    endloop
  endfacet
  facet normal -0.989821 0.142316 0
    outer loop
      vertex 59.5164 9.52787 0
      vertex 59.8 11.5 14
      vertex 59.8 11.5 0
    endloop
  endfacet
  facet normal -0.989821 0.142316 0
    outer loop
      vertex 59.8 11.5 14
      vertex 59.5164 9.52787 0
      vertex 59.5164 9.52787 14
    endloop
  endfacet
  facet normal -0.281733 0.959493 0
    outer loop
      vertex 55.7079 5.13258 0
      vertex 53.7962 4.57125 14
      vertex 55.7079 5.13258 14
    endloop
  endfacet
  facet normal -0.281733 0.959493 0
    outer loop
      vertex 53.7962 4.57125 14
      vertex 55.7079 5.13258 0
      vertex 53.7962 4.57125 0
    endloop
  endfacet
  facet normal 0 1 -0
    outer loop
      vertex 53.7962 4.57125 0
      vertex 52.8 4.57125 14
      vertex 53.7962 4.57125 14
    endloop
  endfacet
  facet normal 0 1 0
    outer loop
      vertex 52.8 4.57125 14
      vertex 53.7962 4.57125 0
      vertex 52.8 4.57125 0
    endloop
  endfacet
  facet normal -0.75575 0.65486 0
    outer loop
      vertex 57.384 6.20975 0
      vertex 58.6888 7.71551 14
      vertex 58.6888 7.71551 0
    endloop
  endfacet
  facet normal -0.75575 0.65486 0
    outer loop
      vertex 58.6888 7.71551 14
      vertex 57.384 6.20975 0
      vertex 57.384 6.20975 14
    endloop
  endfacet
  facet normal -0.54064 0.841254 0
    outer loop
      vertex 57.384 6.20975 0
      vertex 55.7079 5.13258 14
      vertex 57.384 6.20975 14
    endloop
  endfacet
  facet normal -0.54064 0.841254 0
    outer loop
      vertex 55.7079 5.13258 14
      vertex 57.384 6.20975 0
      vertex 55.7079 5.13258 0
    endloop
  endfacet
  facet normal -1 0 0
    outer loop
      vertex -7 4.5 0
      vertex -7 4.57125 14
      vertex -7 4.57125 0
    endloop
  endfacet
  facet normal -1 -0 0
    outer loop
      vertex -7 4.57125 14
      vertex -7 4.5 0
      vertex -7 4.5 14
    endloop
  endfacet
  facet normal -0.909632 0.415415 0
    outer loop
      vertex -1.11123 7.71551 0
      vertex -0.283549 9.52787 14
      vertex -0.283549 9.52787 0
    endloop
  endfacet
  facet normal -0.909632 0.415415 0
    outer loop
      vertex -0.283549 9.52787 14
      vertex -1.11123 7.71551 0
      vertex -1.11123 7.71551 14
    endloop
  endfacet
  facet normal -0.989821 0.142315 0
    outer loop
      vertex -0.283549 9.52787 0
      vertex 0 11.5 14
      vertex 0 11.5 0
    endloop
  endfacet
  facet normal -0.989821 0.142315 0
    outer loop
      vertex 0 11.5 14
      vertex -0.283549 9.52787 0
      vertex -0.283549 9.52787 14
    endloop
  endfacet
  facet normal -0.281733 0.959493 0
    outer loop
      vertex -4.0921 5.13258 0
      vertex -6.0038 4.57125 14
      vertex -4.0921 5.13258 14
    endloop
  endfacet
  facet normal -0.281733 0.959493 0
    outer loop
      vertex -6.0038 4.57125 14
      vertex -4.0921 5.13258 0
      vertex -6.0038 4.57125 0
    endloop
  endfacet
  facet normal 0 1 -0
    outer loop
      vertex -6.0038 4.57125 0
      vertex -7 4.57125 14
      vertex -6.0038 4.57125 14
    endloop
  endfacet
  facet normal 0 1 0
    outer loop
      vertex -7 4.57125 14
      vertex -6.0038 4.57125 0
      vertex -7 4.57125 0
    endloop
  endfacet
  facet normal -0.75575 0.654861 0
    outer loop
      vertex -2.41598 6.20975 0
      vertex -1.11123 7.71551 14
      vertex -1.11123 7.71551 0
    endloop
  endfacet
  facet normal -0.75575 0.654861 0
    outer loop
      vertex -1.11123 7.71551 14
      vertex -2.41598 6.20975 0
      vertex -2.41598 6.20975 14
    endloop
  endfacet
  facet normal -0.540641 0.841254 0
    outer loop
      vertex -2.41598 6.20975 0
      vertex -4.0921 5.13258 14
      vertex -2.41598 6.20975 14
    endloop
  endfacet
  facet normal -0.540641 0.841254 0
    outer loop
      vertex -4.0921 5.13258 14
      vertex -2.41598 6.20975 0
      vertex -4.0921 5.13258 0
    endloop
  endfacet
  facet normal 0.707107 0.707106 0
    outer loop
      vertex 6.62132 32.6213 14
      vertex 4.5 34.7426 0
      vertex 4.5 34.7426 14
    endloop
  endfacet
  facet normal 0.707107 0.707106 0
    outer loop
      vertex 4.5 34.7426 0
      vertex 6.62132 32.6213 14
      vertex 6.62132 32.6213 0
    endloop
  endfacet
  facet normal 0.707107 -0.707107 0
    outer loop
      vertex 4.5 30.5 0
      vertex 6.62132 32.6213 14
      vertex 4.5 30.5 14
    endloop
  endfacet
  facet normal 0.707107 -0.707107 0
    outer loop
      vertex 6.62132 32.6213 14
      vertex 4.5 30.5 0
      vertex 6.62132 32.6213 0
    endloop
  endfacet
  facet normal -0.707107 0.707106 0
    outer loop
      vertex 57.6787 32.6213 0
      vertex 59.8 34.7426 14
      vertex 59.8 34.7426 0
    endloop
  endfacet
  facet normal -0.707107 0.707106 0
    outer loop
      vertex 59.8 34.7426 14
      vertex 57.6787 32.6213 0
      vertex 57.6787 32.6213 14
    endloop
  endfacet
  facet normal -0.707107 -0.707107 0
    outer loop
      vertex 59.8 30.5 0
      vertex 57.6787 32.6213 14
      vertex 57.6787 32.6213 0
    endloop
  endfacet
  facet normal -0.707107 -0.707107 0
    outer loop
      vertex 57.6787 32.6213 14
      vertex 59.8 30.5 0
      vertex 59.8 30.5 14
    endloop
  endfacet
  facet normal -1 0 0
    outer loop
      vertex 27.65 4.5 0
      vertex 27.65 24.8 14
      vertex 27.65 24.8 0
    endloop
  endfacet
  facet normal -1 -0 0
    outer loop
      vertex 27.65 24.8 14
      vertex 27.65 4.5 0
      vertex 27.65 4.5 14
    endloop
  endfacet
  facet normal 1 -0 0
    outer loop
      vertex 36.15 4.5 14
      vertex 36.15 24.8 0
      vertex 36.15 24.8 14
    endloop
  endfacet
  facet normal 1 0 0
    outer loop
      vertex 36.15 24.8 0
      vertex 36.15 4.5 14
      vertex 36.15 4.5 0
    endloop
  endfacet
  facet normal 0 1 -0
    outer loop
      vertex 36.15 24.8 0
      vertex 27.65 24.8 14
      vertex 36.15 24.8 14
    endloop
  endfacet
  facet normal 0 1 0
    outer loop
      vertex 27.65 24.8 14
      vertex 36.15 24.8 0
      vertex 27.65 24.8 0
    endloop
  endfacet
endsolid OpenSCAD_Model
