<?xml version="1.0" encoding="UTF-8" standalone="no"?>
<!-- Created with Inkscape (http://www.inkscape.org/) -->

<svg
   xmlns:dc="http://purl.org/dc/elements/1.1/"
   xmlns:cc="http://creativecommons.org/ns#"
   xmlns:rdf="http://www.w3.org/1999/02/22-rdf-syntax-ns#"
   xmlns:svg="http://www.w3.org/2000/svg"
   xmlns="http://www.w3.org/2000/svg"
   xmlns:sodipodi="http://sodipodi.sourceforge.net/DTD/sodipodi-0.dtd"
   xmlns:inkscape="http://www.inkscape.org/namespaces/inkscape"
   width="210mm"
   height="297mm"
   viewBox="0 0 744.09448819 1052.3622047"
   id="svg2"
   version="1.1"
   inkscape:version="0.91 r13725"
   sodipodi:docname="drawing.svg">
  <defs
     id="defs4" />
  <sodipodi:namedview
     id="base"
     pagecolor="#ffffff"
     bordercolor="#666666"
     borderopacity="1.0"
     inkscape:pageopacity="0.0"
     inkscape:pageshadow="2"
     inkscape:zoom="11.58"
     inkscape:cx="50.550354"
     inkscape:cy="1026.6058"
     inkscape:document-units="px"
     inkscape:current-layer="text3336"
     showgrid="false"
     inkscape:window-width="1440"
     inkscape:window-height="775"
     inkscape:window-x="0"
     inkscape:window-y="1"
     inkscape:window-maximized="1" />
  <metadata
     id="metadata7">
    <rdf:RDF>
      <cc:Work
         rdf:about="">
        <dc:format>image/svg+xml</dc:format>
        <dc:type
           rdf:resource="http://purl.org/dc/dcmitype/StillImage" />
        <dc:title />
      </cc:Work>
    </rdf:RDF>
  </metadata>
  <g
     inkscape:label="Layer 1"
     inkscape:groupmode="layer"
     id="layer1">
    <g
       style="font-style:normal;font-weight:normal;font-size:59.35945511px;line-height:125%;font-family:sans-serif;letter-spacing:0px;word-spacing:0px;fill:#000000;fill-opacity:1;stroke:none;stroke-width:1px;stroke-linecap:butt;stroke-linejoin:miter;stroke-opacity:1"
       id="text3336">
      <path
         d="m 7.5767988,38.58353 20.4337962,0 0,4.927298 -27.47693414,0 0,-4.927298 q 3.33317194,-3.449109 9.07202594,-9.245931 5.7678362,-5.825806 7.2460262,-7.506884 2.811459,-3.159268 3.912855,-5.333076 1.13038,-2.202793 1.13038,-4.318632 0,-3.4491099 -2.434665,-5.6229181 -2.405681,-2.1738082 -6.289552,-2.1738082 -2.75349,0 -5.8258052,0.9564756 -3.043331,0.9564756 -6.52142394,2.8984109 l 0,-5.9127582 Q 4.3595628,0.9041877 7.4318788,0.17958493 q 3.0723142,-0.72460272 5.6229162,-0.72460272 6.724313,0 10.72412,3.36215659 3.999807,3.3621567 3.999807,8.9850742 0,2.666538 -1.014444,5.072219 -0.985459,2.376697 -3.623013,5.622917 -0.724603,0.840539 -4.608474,4.869331 -3.88387,3.999807 -10.9559922,11.21685 z"
         id="path3360"
         inkscape:connector-curvature="0" />
      <path
         d="m 44.490529,4.1444696 q -4.521521,0 -6.811266,4.4635528 -2.26076,4.4345686 -2.26076,13.3616736 0,8.898122 2.26076,13.361674 2.289745,4.434569 6.811266,4.434569 4.550505,0 6.811266,-4.434569 2.289744,-4.463552 2.289744,-13.361674 0,-8.927105 -2.289744,-13.3616736 -2.260761,-4.4635528 -6.811266,-4.4635528 z m 0,-4.63745744 q 7.275011,0 11.100914,5.76783774 3.854886,5.7388531 3.854886,16.6948461 0,10.927009 -3.854886,16.694847 -3.825903,5.738853 -11.100914,5.738853 -7.275011,0 -11.129898,-5.738853 -3.825902,-5.767838 -3.825902,-16.694847 0,-10.955993 3.825902,-16.6948461 3.854887,-5.76783774 11.129898,-5.76783774 z"
         id="path3362"
         inkscape:connector-curvature="0" />
      <path
         d="m 61.687842,38.690902 9.564756,0 0,-33.0128999 -10.405295,2.0868558 0,-5.333076 10.347327,-2.08685593 5.85479,0 0,38.34597603 9.56476,0 0,4.927298 -24.926338,0 0,-4.927298 z"
         id="path3364"
         inkscape:connector-curvature="0" />
      <path
         d="m 84.639799,0.31439507 27.824741,0 0,2.49263333 -15.709381,40.7806406 -6.11565,0 14.781901,-38.3459754 -20.781611,0 0,-4.92729853 z"
         id="path3366"
         inkscape:connector-curvature="0" />
    </g>
  </g>
</svg>
