<?xml version="1.0" encoding="UTF-8" standalone="no"?>
<svg
   xmlns:dc="http://purl.org/dc/elements/1.1/"
   xmlns:cc="http://creativecommons.org/ns#"
   xmlns:rdf="http://www.w3.org/1999/02/22-rdf-syntax-ns#"
   xmlns:svg="http://www.w3.org/2000/svg"
   xmlns="http://www.w3.org/2000/svg"
   version="1.1"
   id="svg2"
   viewBox="0 0 212.59842 106.29921"
   height="30mm"
   width="60mm">
  <defs
     id="defs4" />
  <metadata
     id="metadata7">
    <rdf:RDF>
      <cc:Work
         rdf:about="">
        <dc:format>image/svg+xml</dc:format>
        <dc:type
           rdf:resource="http://purl.org/dc/dcmitype/StillImage" />
        <dc:title></dc:title>
      </cc:Work>
    </rdf:RDF>
  </metadata>
  <g
     transform="translate(0,-946.06299)"
     id="layer1">
    <g
       id="text3336"
       style="font-style:normal;font-weight:normal;font-size:33.07897949px;line-height:125%;font-family:sans-serif;letter-spacing:0px;word-spacing:0px;fill:#000000;fill-opacity:1;stroke:none;stroke-width:1px;stroke-linecap:butt;stroke-linejoin:miter;stroke-opacity:1"
       transform="scale(0.89363414,1.1190262)">
      <path
         id="path3341"
         style="font-style:normal;font-variant:normal;font-weight:normal;font-stretch:normal;font-family:Amarillo;-inkscape-font-specification:Amarillo"
         d="m 54.546559,29.560271 c 0.198473,-0.562342 0.330789,-1.157764 0.396947,-1.786265 0.264632,-3.671766 -1.951659,-7.740481 -5.8219,-7.740481 -7.508928,0 -13.860092,11.908433 -14.687067,18.557308 -0.03308,0.297711 -0.03308,0.694658 -0.03308,0.95929 0,3.010187 1.124685,5.623427 4.597978,5.623427 3.704846,0 7.111981,-3.90332 9.493667,-7.839718 -0.03308,0.29771 -0.03308,0.231552 -0.03308,0.330789 -0.330789,2.216292 -0.06616,7.376613 3.076345,7.376613 1.190844,0 2.514003,-0.562343 3.407135,-1.29008 3.109424,-2.547082 6.979665,-10.419879 8.799009,-14.091646 l 0.33079,-0.727737 C 63.90791,28.567902 63.676357,28.30327 63.279409,28.30327 c -0.165395,0 -0.33079,0.03308 -0.496185,0.09924 -0.363868,0.595422 -0.893132,1.62087 -1.389317,2.679397 -1.720107,3.274819 -4.465662,8.236666 -6.615796,10.3868 -1.653949,1.488554 -0.793895,-3.704846 -0.6285,-4.597978 0.231553,-1.422396 0.826974,-3.142503 0.694658,-4.564899 -0.132316,-1.389318 -0.992369,-2.447845 -3.605608,-2.679398 -0.66158,0.03308 -1.356239,0.198474 -1.290081,0.793896 0.06616,0.793895 -0.330789,1.455475 -0.463105,1.95166 -1.653949,3.24174 -5.160321,9.559825 -7.938955,9.559825 -1.554712,0 -1.687028,-1.720107 -1.587791,-2.977108 0.330789,-3.870241 5.458031,-15.877911 10.122167,-15.877911 2.414766,0 3.307898,2.811714 3.208661,5.061084 -0.06616,0.463106 -0.132316,0.893133 -0.29771,1.356238 0.198473,0.264632 0.463105,0.396948 0.694658,0.396948 0.165395,0 0.727738,-0.165395 0.826975,-0.297711 l 0.03308,-0.03308 z" />
      <path
         id="path3343"
         style="font-style:normal;font-variant:normal;font-weight:normal;font-stretch:normal;font-family:Amarillo;-inkscape-font-specification:Amarillo"
         d="m 68.521393,61.018381 c 0.66158,0 1.422396,-0.06616 2.083976,-0.165395 5.391874,-1.223922 8.236666,-4.730294 8.236666,-7.740481 0,-2.877871 -2.017818,-5.424953 -5.1934,-5.424953 -0.760817,0 -1.587791,0.165395 -2.414765,0.463106 -1.984739,0.727737 -3.473293,2.58016 -3.473293,5.358794 -0.793896,-0.893132 -1.554712,-1.521633 -2.580161,-2.282449 0.860054,-4.399504 2.811714,-9.857536 4.498741,-14.653988 0.132316,-0.396948 0.396948,-0.926211 0.562343,-1.323159 0.893133,-2.150134 2.447845,-5.85498 2.447845,-7.972034 0,-0.893133 -0.231553,-1.455475 -0.826975,-1.720107 -0.529264,-0.198474 -1.190843,-0.264632 -1.984739,-0.264632 -0.29771,0 -0.661579,0.03308 -1.025448,0.03308 -0.396948,0 -0.760817,0.03308 -1.124685,0.03308 -0.595422,0 -1.290081,-0.03308 -1.786265,-0.132316 0.06616,-0.165395 0.06616,-0.231553 0.132316,-0.363869 0.463105,-1.257001 1.488554,-4.068714 1.720107,-6.285006 0.132316,-2.183213 -0.727738,-3.407135 -2.580161,-3.407135 -3.307898,0 -5.524189,3.340977 -5.788821,6.351164 -0.231553,2.745556 0.893132,5.424953 4.134872,5.590348 -0.727737,1.521633 -1.521633,2.977108 -2.282449,4.498741 0.264632,0.132316 0.496184,0.165395 1.422396,0.363869 l 2.24937,-4.664136 c 0.33079,0.03308 0.926212,0.06616 1.257002,0.06616 0.29771,0.03308 0.6285,0.03308 1.025448,0.03308 -0.396948,0.926211 -0.694659,1.819344 -1.058527,2.745555 -1.885502,4.697215 -4.300268,10.68451 -5.722664,18.78886 -4.664136,-2.150133 -10.35372,-3.010187 -16.407174,-3.010187 -1.984738,0 -4.20103,0.06616 -6.285006,0.264632 -7.938955,0.760817 -16.473332,2.778634 -21.567494,6.549638 -2.94403,2.414765 -5.52419,6.020374 -5.52419,9.659062 0,0.760816 0.09924,1.521633 0.33079,2.249371 0.363869,1.223922 0.95929,2.381686 1.819344,2.414765 0.793895,-0.06616 1.124685,-1.058527 1.356238,-1.653949 0.03308,-0.132316 0.132316,-0.297711 0.165395,-0.396948 3.671767,-7.972034 13.827013,-12.239222 24.31305,-13.793934 3.771003,-0.562343 7.376612,-0.860054 10.651431,-0.860054 3.936399,0 7.542007,0.463106 10.68451,1.389318 0.132316,6.251927 3.90332,9.262114 8.534377,9.262114 z m -0.231553,-3.90332 c 0.132316,0.363869 0.363869,0.628501 0.793896,0.463106 0.430027,-0.264632 0.6285,-0.430027 0.363869,-0.926211 l 0.03308,0.03308 c -0.297711,-0.727738 -0.430027,-1.389318 -0.430027,-2.050897 0,-2.150134 1.323159,-3.936399 2.844792,-4.399504 0.396948,-0.132316 0.793896,-0.165395 1.058527,-0.165395 1.521634,0 2.216292,1.190843 2.216292,2.679397 0,2.447844 -1.918581,5.623426 -5.689584,6.086532 -2.977109,0.396948 -4.23411,-2.58016 -4.465663,-5.1934 2.083976,1.223923 2.977109,2.514003 3.274819,3.440214 l 0,0.03308 z M 63.327993,23.341423 c 0.165395,-1.885502 1.984739,-4.597978 2.679398,-4.597978 0.09924,0 0.165395,0.231553 0.132316,0.694659 -0.165395,1.687028 -1.455475,4.730294 -1.819344,5.524189 -0.826975,-0.198474 -1.091607,-0.793895 -0.99237,-1.62087 z" />
      <path
         id="path3345"
         style="font-style:normal;font-variant:normal;font-weight:normal;font-stretch:normal;font-family:Amarillo;-inkscape-font-specification:Amarillo"
         d="m 96.058609,28.832534 c -1.852422,3.704845 -4.53182,8.699771 -6.979664,10.68451 1.29008,-6.615796 1.852423,-10.982221 2.216291,-15.480962 -0.231552,-1.819344 -1.323159,-3.24174 -4.234109,-3.24174 -0.694659,0.03308 -1.223922,0.198474 -1.29008,0.793895 0,0.132316 0,0.33079 0.06616,0.595422 0.06616,0.463106 0.198474,1.025448 0.132316,1.786265 -0.03308,0.760816 -0.396948,3.208661 -1.058528,6.582717 l 0.03308,-0.03308 c -0.132316,0.264632 -0.330789,0.529263 -0.496184,0.793895 l 0,-0.03308 c -2.150134,3.704846 -6.384243,10.849906 -8.005113,10.849906 -0.396948,0 -0.463106,-0.826975 -0.430027,-1.786265 0.297711,-2.61324 1.786265,-7.575087 2.613239,-10.122168 l 0.198474,-0.628501 c 0.430027,-1.29008 0.959291,-2.977108 1.091606,-4.697215 0.132316,-1.687028 -0.29771,-3.374056 -1.554712,-4.234109 -0.396947,-0.231553 -1.455475,-0.562343 -2.315528,-0.562343 -0.595422,0 -1.157764,0.198474 -1.190843,0.793896 0,0.198474 0.03308,0.297711 0.06616,0.463105 0.06616,0.33079 0.198473,0.793896 0.132315,1.488554 -0.132315,1.455476 -0.826974,4.002557 -1.554712,6.648875 -0.893132,3.274819 -2.017817,7.277376 -2.282449,10.188326 -0.03308,0.463106 -0.06616,0.926211 -0.06616,1.356238 0,2.480924 0.826974,4.167952 3.109424,4.167952 3.374056,0 6.450401,-4.366426 9.262114,-8.832088 l 0.430027,-0.628501 c -0.694659,3.473293 -1.257001,6.119612 -1.720107,8.43514 -6.020374,5.226479 -11.610722,10.783748 -13.793934,18.888098 -0.198474,0.793895 -0.297711,1.554712 -0.297711,2.315528 0,3.109424 1.62087,5.458032 4.068714,5.755743 8.567456,1.025448 13.363908,-14.455514 16.341016,-28.944108 3.010187,-1.951659 6.748112,-8.501297 9.030561,-13.198512 -0.496184,-0.463106 -0.893132,-0.363869 -1.190843,-0.297711 -0.09924,0.03308 -0.165395,0.03308 -0.198474,0.03308 l -0.132316,0.09924 z M 69.959295,65.285569 c 0,-2.778634 2.381686,-7.608165 3.340977,-9.195956 2.282449,-3.473293 5.226478,-6.648875 8.302823,-9.06364 l -0.330789,1.29008 0,-0.03308 c -0.231553,0.661579 -0.396948,1.455475 -0.66158,2.24937 -1.455475,4.697215 -3.539451,11.279932 -6.119611,14.687067 -0.860054,1.157765 -1.852423,1.95166 -2.877871,2.083976 -1.190844,0 -1.653949,-0.860054 -1.653949,-2.017818 z" />
      <path
         id="path3347"
         style="font-style:normal;font-variant:normal;font-weight:normal;font-stretch:normal;font-family:Amarillo;-inkscape-font-specification:Amarillo"
         d="m 112.24095,29.560271 c 0.19847,-0.562342 0.33079,-1.157764 0.39695,-1.786265 0.26463,-3.671766 -1.95166,-7.740481 -5.8219,-7.740481 -7.508933,0 -13.860097,11.908433 -14.687072,18.557308 -0.03308,0.297711 -0.03308,0.694658 -0.03308,0.95929 0,3.010187 1.124686,5.623427 4.597979,5.623427 3.704842,0 7.111982,-3.90332 9.493662,-7.839718 -0.0331,0.29771 -0.0331,0.231552 -0.0331,0.330789 -0.33079,2.216292 -0.0662,7.376613 3.07634,7.376613 1.19084,0 2.514,-0.562343 3.40714,-1.29008 3.10942,-2.547082 6.97966,-10.419879 8.799,-14.091646 l 0.33079,-0.727737 c -0.16539,-0.363869 -0.39694,-0.628501 -0.79389,-0.628501 -0.1654,0 -0.33079,0.03308 -0.49619,0.09924 -0.36386,0.595422 -0.89313,1.62087 -1.38931,2.679397 -1.72011,3.274819 -4.46567,8.236666 -6.6158,10.3868 -1.65395,1.488554 -0.79389,-3.704846 -0.6285,-4.597978 0.23155,-1.422396 0.82697,-3.142503 0.69466,-4.564899 -0.13232,-1.389318 -0.99237,-2.447845 -3.60561,-2.679398 -0.66158,0.03308 -1.35624,0.198474 -1.29008,0.793896 0.0662,0.793895 -0.33079,1.455475 -0.46311,1.95166 -1.65394,3.24174 -5.16032,9.559825 -7.938951,9.559825 -1.554712,0 -1.687028,-1.720107 -1.587791,-2.977108 0.33079,-3.870241 5.458032,-15.877911 10.122172,-15.877911 2.41476,0 3.30789,2.811714 3.20866,5.061084 -0.0662,0.463106 -0.13232,0.893133 -0.29771,1.356238 0.19847,0.264632 0.4631,0.396948 0.69465,0.396948 0.1654,0 0.72774,-0.165395 0.82698,-0.297711 l 0.0331,-0.03308 z" />
      <path
         id="path3349"
         style="font-style:normal;font-variant:normal;font-weight:normal;font-stretch:normal;font-family:Amarillo;-inkscape-font-specification:Amarillo"
         d="m 153.24131,28.931771 c -1.09161,2.24937 -3.1425,4.300267 -5.35879,4.86261 -0.33079,0.06616 -0.66158,0.132316 -0.92622,0.132316 -0.72773,0 -1.52163,-0.33079 -2.18321,-0.893133 l 0.92621,-1.885502 0.92621,-1.951659 0.26464,-0.529264 -0.0331,0.03308 0.36387,-0.694659 c 1.52163,-3.374056 3.1425,-7.542007 3.1425,-10.386799 0,-1.885502 -0.72774,-3.208661 -2.61324,-3.340977 -4.20103,-0.297711 -6.94659,6.615796 -6.94659,12.570012 0,2.646318 0.52927,5.127242 1.75319,6.681954 l -0.6285,1.257001 c -1.29008,2.646318 -3.1425,6.285006 -5.45803,6.781191 -0.86006,0.198474 -1.55471,-0.463106 -1.4224,-2.381687 0.0992,-2.745555 1.12469,-7.11198 1.8855,-10.486036 0.46311,-1.95166 0.82698,-3.57253 0.89314,-4.333346 0.16539,-2.083976 -0.33079,-3.804083 -2.51401,-3.804083 -1.48855,0 -2.05089,0.297711 -2.11705,1.157764 0,0 0.0331,0.264632 0.0662,0.496185 0.0662,0.33079 0.13231,0.760816 0.0992,1.091606 -0.19847,2.679398 -0.86005,4.498741 -1.75318,7.178139 l 0.0331,-0.03308 c -1.8855,3.175582 -6.81427,11.511485 -8.56746,11.511485 -0.39695,0 -0.4631,-0.826975 -0.43003,-1.786265 0.29772,-2.646319 1.75319,-7.608166 2.54709,-10.122168 0.4631,-1.356238 1.15776,-3.374056 1.32316,-5.292637 0.13231,-1.720107 -0.29772,-3.407135 -1.55472,-4.267188 -0.36387,-0.231553 -1.45547,-0.562343 -2.28245,-0.562343 -0.66158,0 -1.15776,0.198474 -1.22392,0.760817 0,0.198474 0,0.363869 0.0662,0.529263 l 0,-0.03308 c 0.0662,0.330789 0.19847,0.793895 0.13232,1.488554 -0.13232,1.455475 -0.7939,3.87024 -1.55472,6.615795 -0.92621,3.407135 -1.98474,7.178139 -2.21629,10.221405 -0.0331,0.463106 -0.0662,0.926212 -0.0662,1.356238 0,2.480924 0.76082,4.167952 3.04327,4.167952 3.60561,0 6.11961,-3.90332 8.46822,-7.47585 l 0.39695,-0.6285 c 0.0331,0.529263 0,0.529263 0,1.091606 -0.0331,3.374056 -0.0331,7.277376 4.23411,7.277376 4.49874,0 6.74811,-4.531821 8.60053,-8.236666 0.39695,-0.860054 0.72774,-1.554712 1.22392,-2.381687 1.15777,0.66158 2.54708,0.893133 3.70485,0.727738 3.17558,-0.529264 5.88806,-3.24174 7.17814,-6.285006 -0.52927,-0.529264 -0.86006,-0.628501 -1.38932,-0.264632 l -0.0331,0.06616 z m -5.49111,-12.96696 c 0.76082,0.165395 1.05853,0.826974 1.05853,1.885502 0,2.679397 -2.31553,8.005113 -3.9364,11.279932 -0.36387,0.694658 -0.7939,1.422396 -1.15777,2.117054 l -0.19847,0.396948 c -0.19847,-0.529264 -0.33079,-1.455475 -0.33079,-2.58016 0,-4.961847 1.91858,-13.793935 4.5649,-13.099276 z" />
      <path
         id="path3351"
         style="font-style:normal;font-variant:normal;font-weight:normal;font-stretch:normal;font-family:Amarillo;-inkscape-font-specification:Amarillo"
         d="m 154.7645,23.275265 -0.46311,1.521633 c -1.35624,4.167952 -2.64632,8.335903 -3.01019,12.63617 -0.0331,0.529264 -0.0661,1.091607 -0.0661,1.62087 0,3.307898 0.99236,5.954217 4.06871,5.954217 3.83716,0 8.99748,-9.989852 11.57764,-15.348647 l 0.36387,-0.694658 c -0.23155,-0.396948 -0.49618,-0.66158 -0.82697,-0.66158 -0.13232,0 -0.29771,0.06616 -0.49619,0.165395 -0.33079,0.529264 -0.76081,1.356238 -1.32316,2.414766 -2.15013,4.101793 -5.98729,11.379168 -7.83972,11.379168 -0.72773,-0.03308 -1.02544,-1.058527 -1.02544,-2.613239 0,-0.363869 0.0331,-0.926211 0.0661,-1.356238 0.43003,-3.671767 1.85243,-9.262114 2.74556,-12.106907 0.26463,-0.893132 0.43003,-1.62087 0.43003,-2.24937 0,-1.257001 -0.82698,-1.984739 -2.64632,-2.646319 -0.6285,-0.165394 -1.22392,-0.09924 -1.38932,0.463106 -0.0331,0.132316 -0.0662,0.33079 -0.0662,0.628501 0,0.231553 -0.0331,0.562342 -0.0992,0.926211 l 0,-0.03308 z m 5.98729,-8.468219 c -0.52926,-0.793895 -1.15776,-1.124685 -1.72011,-1.124685 -1.257,0 -2.18321,1.587791 -2.31552,3.010187 -0.0662,1.819344 0.86005,2.679398 1.91858,2.679398 1.22392,0 2.61324,-0.860054 2.74555,-2.348608 0.0331,-0.628501 -0.13231,-1.356238 -0.6285,-2.216292 z" />
      <path
         id="path3353"
         style="font-style:normal;font-variant:normal;font-weight:normal;font-stretch:normal;font-family:Amarillo;-inkscape-font-specification:Amarillo"
         d="m 176.92896,8.6212773 c -7.74048,0 -12.40461,20.8397567 -12.93388,27.1247627 l 0,-0.03308 c -0.0661,0.562342 -0.0661,1.190843 -0.0661,1.786264 0,3.771004 1.12468,7.80664 5.42495,7.80664 4.86261,0 8.79901,-8.170508 11.57764,-14.091646 l -0.0331,0 1.12469,-2.282449 c -0.1654,-0.363869 -0.39695,-0.628501 -0.7939,-0.628501 -0.13231,0 -0.36387,0.03308 -0.52926,0.165395 -0.26463,0.33079 -0.72774,1.29008 -1.257,2.480923 -1.98474,4.101794 -5.62343,11.544564 -9.22904,11.544564 -1.45547,0 -1.95166,-1.653949 -1.95166,-3.771003 0,-0.496185 0,-0.99237 0.0662,-1.554712 0.33079,-3.473293 1.35624,-7.376613 1.38932,-7.376613 4.5649,-4.167951 9.42751,-10.320641 9.95677,-16.2087 0.13232,-1.885502 -0.52926,-4.9618467 -2.74556,-4.9618467 z m 0.46311,2.6132397 c 0.66158,0 0.82697,1.687028 0.69466,2.811713 -0.46311,5.028005 -5.8219,11.313011 -7.64125,12.933881 2.28245,-8.964404 5.52419,-15.745594 6.94659,-15.745594 z" />
      <path
         id="path3355"
         style="font-style:normal;font-variant:normal;font-weight:normal;font-stretch:normal;font-family:Amarillo;-inkscape-font-specification:Amarillo"
         d="m 196.28275,45.405103 c 2.61324,-0.165395 4.43259,-2.117055 5.92114,-4.002557 2.01782,-2.679397 3.83716,-6.450401 5.39187,-9.625983 0.46311,-0.926211 0.89314,-1.95166 1.32316,-2.745555 -0.16539,-0.363869 -0.39695,-0.628501 -0.76081,-0.628501 -0.13232,0 -0.36387,0.03308 -0.52927,0.165395 -0.26463,0.363869 -0.69466,1.29008 -1.29008,2.514002 -1.32316,2.679398 -3.3079,6.81427 -5.59035,9.361352 -0.86005,0.992369 -2.38168,2.150133 -3.47329,2.150133 -0.6285,0 -1.05853,-0.396948 -1.19084,-1.356238 -0.0662,-0.297711 -0.0662,-0.661579 -0.0662,-1.058527 0,-2.944029 1.22392,-7.938955 2.18321,-11.67688 0.33079,-1.422396 0.69466,-2.712476 0.86006,-3.605609 1.257,-5.358794 2.44784,-10.419878 2.61324,-12.437696 0.19847,-2.28245 -0.33079,-4.5979782 -3.77101,-4.5979782 -0.6285,0 -1.22392,0.1653949 -1.257,0.7608165 0,0.1653949 0.0331,0.3638688 0.0662,0.5954216 0.0662,0.3969478 0.16539,0.9262111 0.13231,1.6539491 -0.0992,1.356238 -0.95929,4.895689 -1.91858,9.06364 l -0.33079,1.257002 c -0.89313,-0.66158 -1.8855,-1.025449 -3.07634,-1.025449 -7.50893,0 -13.86009,11.908433 -14.68707,18.557308 -0.0331,0.330789 -0.0331,0.727737 -0.0331,1.058527 0,2.944029 1.15777,5.52419 4.63106,5.52419 3.83716,0 7.27738,-4.267189 9.72522,-8.335903 -0.16539,0.860053 -0.0992,0.860053 -0.13232,1.455475 -0.0331,0.496185 -0.0661,0.95929 -0.0661,1.356238 0,3.539451 1.45547,5.623427 5.32571,5.623427 z m -4.13487,-13.363908 c -1.55471,3.043266 -5.25956,10.022931 -8.23667,10.022931 -1.55471,0 -1.68702,-1.720107 -1.55471,-2.977109 0.33079,-3.87024 5.45803,-15.87791 10.12217,-15.87791 0.6285,0 1.15776,0.165395 1.58779,0.496185 -0.0992,0.496185 -0.26463,0.893132 -0.36387,1.356238 -0.56234,2.414766 -1.12468,4.829531 -1.58779,7.012744 l 0.0331,-0.03308 z" />
    </g>
  </g>
</svg>
