<?xml version="1.0" encoding="UTF-8" standalone="no"?>
<!-- Created with Inkscape (http://www.inkscape.org/) -->

<svg
   xmlns:dc="http://purl.org/dc/elements/1.1/"
   xmlns:cc="http://creativecommons.org/ns#"
   xmlns:rdf="http://www.w3.org/1999/02/22-rdf-syntax-ns#"
   xmlns:svg="http://www.w3.org/2000/svg"
   xmlns="http://www.w3.org/2000/svg"
   xmlns:sodipodi="http://sodipodi.sourceforge.net/DTD/sodipodi-0.dtd"
   xmlns:inkscape="http://www.inkscape.org/namespaces/inkscape"
   width="49.999996mm"
   height="20mm"
   viewBox="0 0 177.16534 70.866141"
   id="svg3348"
   version="1.1"
   inkscape:version="0.91 r13725"
   sodipodi:docname="drawing.svg">
  <defs
     id="defs3350" />
  <sodipodi:namedview
     id="base"
     pagecolor="#ffffff"
     bordercolor="#666666"
     borderopacity="1.0"
     inkscape:pageopacity="0.0"
     inkscape:pageshadow="2"
     inkscape:zoom="1.0824912"
     inkscape:cx="412.55019"
     inkscape:cy="-53.500326"
     inkscape:document-units="px"
     inkscape:current-layer="layer1"
     showgrid="false"
     inkscape:window-width="1440"
     inkscape:window-height="808"
     inkscape:window-x="0"
     inkscape:window-y="1"
     inkscape:window-maximized="1"
     fit-margin-top="0"
     fit-margin-left="0"
     fit-margin-right="0"
     fit-margin-bottom="0" />
  <metadata
     id="metadata3353">
    <rdf:RDF>
      <cc:Work
         rdf:about="">
        <dc:format>image/svg+xml</dc:format>
        <dc:type
           rdf:resource="http://purl.org/dc/dcmitype/StillImage" />
        <dc:title></dc:title>
      </cc:Work>
    </rdf:RDF>
  </metadata>
  <g
     inkscape:label="Layer 1"
     inkscape:groupmode="layer"
     id="layer1"
     transform="translate(0.59839044,-1.5259172)">
    <g
       transform="scale(0.89363413,1.1190262)"
       style="font-style:normal;font-weight:normal;font-size:33.07897949px;line-height:125%;font-family:sans-serif;letter-spacing:0px;word-spacing:0px;fill:#000000;fill-opacity:1;stroke:none;stroke-width:1px;stroke-linecap:butt;stroke-linejoin:miter;stroke-opacity:1"
       id="text3356">
      <path
         d="m 43.210686,23.063422 c 0.198474,-0.562342 0.33079,-1.157764 0.396948,-1.786265 0.264632,-3.671766 -1.95166,-7.740481 -5.821901,-7.740481 -7.508928,0 -13.860092,11.908433 -14.687067,18.557308 -0.03308,0.29771 -0.03308,0.694658 -0.03308,0.95929 0,3.010187 1.124686,5.623427 4.597979,5.623427 3.704845,0 7.11198,-3.90332 9.493667,-7.839719 -0.03308,0.297711 -0.03308,0.231553 -0.03308,0.33079 -0.33079,2.216292 -0.06616,7.376613 3.076345,7.376613 1.190843,0 2.514002,-0.562343 3.407135,-1.290081 3.109424,-2.547081 6.979664,-10.419878 8.799008,-14.091645 l 0.33079,-0.727737 c -0.165395,-0.363869 -0.396948,-0.628501 -0.793896,-0.628501 -0.165394,0 -0.330789,0.03308 -0.496184,0.09924 -0.363869,0.595422 -0.893133,1.62087 -1.389317,2.679397 -1.720107,3.274819 -4.465663,8.236666 -6.615796,10.3868 -1.653949,1.488554 -0.793896,-3.704846 -0.628501,-4.597978 0.231553,-1.422396 0.826975,-3.142503 0.694659,-4.564899 -0.132316,-1.389318 -0.99237,-2.447845 -3.605609,-2.679398 -0.66158,0.03308 -1.356238,0.198474 -1.29008,0.793896 0.06616,0.793895 -0.33079,1.455475 -0.463106,1.95166 -1.653949,3.24174 -5.160321,9.559825 -7.938955,9.559825 -1.554712,0 -1.687028,-1.720107 -1.587791,-2.977109 0.33079,-3.87024 5.458032,-15.87791 10.122168,-15.87791 2.414765,0 3.307898,2.811714 3.208661,5.061084 -0.06616,0.463106 -0.132316,0.893133 -0.297711,1.356238 0.198474,0.264632 0.463106,0.396948 0.694658,0.396948 0.165395,0 0.727738,-0.165395 0.826975,-0.297711 l 0.03308,-0.03308 z"
         style="font-style:normal;font-variant:normal;font-weight:normal;font-stretch:normal;font-family:amarillo;-inkscape-font-specification:amarillo"
         id="path3380"
         inkscape:connector-curvature="0" />
      <path
         d="m 57.185521,54.521532 c 0.661579,0 1.422396,-0.06616 2.083975,-0.165395 5.391874,-1.223922 8.236666,-4.730294 8.236666,-7.740481 0,-2.877872 -2.017818,-5.424953 -5.1934,-5.424953 -0.760816,0 -1.587791,0.165395 -2.414765,0.463106 -1.984739,0.727737 -3.473293,2.58016 -3.473293,5.358794 -0.793895,-0.893132 -1.554712,-1.521633 -2.58016,-2.282449 0.860053,-4.399504 2.811713,-9.857536 4.498741,-14.653988 0.132316,-0.396948 0.396948,-0.926212 0.562342,-1.323159 0.893133,-2.150134 2.447845,-5.85498 2.447845,-7.972034 0,-0.893133 -0.231553,-1.455475 -0.826975,-1.720107 -0.529263,-0.198474 -1.190843,-0.264632 -1.984738,-0.264632 -0.297711,0 -0.66158,0.03308 -1.025449,0.03308 -0.396947,0 -0.760816,0.03308 -1.124685,0.03308 -0.595422,0 -1.29008,-0.03308 -1.786265,-0.132316 0.06616,-0.165395 0.06616,-0.231553 0.132316,-0.363869 0.463106,-1.257001 1.488554,-4.068714 1.720107,-6.285006 0.132316,-2.1832126 -0.727738,-3.4071348 -2.58016,-3.4071348 -3.307898,0 -5.52419,3.3409768 -5.788822,6.3511638 -0.231553,2.745556 0.893133,5.424953 4.134873,5.590348 -0.727738,1.521633 -1.521633,2.977108 -2.28245,4.498741 0.264632,0.132316 0.496185,0.165395 1.422396,0.363869 l 2.249371,-4.664136 c 0.33079,0.03308 0.926211,0.06616 1.257001,0.06616 0.297711,0.03308 0.628501,0.03308 1.025448,0.03308 -0.396947,0.926211 -0.694658,1.819343 -1.058527,2.745555 -1.885502,4.697215 -4.300267,10.68451 -5.722663,18.78886 -4.664137,-2.150133 -10.353721,-3.010187 -16.407174,-3.010187 -1.984739,0 -4.201031,0.06616 -6.285006,0.264632 -7.938955,0.760816 -16.4733322,2.778634 -21.567495,6.549638 -2.9440292,2.414765 -5.52418958,6.020374 -5.52418958,9.659062 0,0.760816 0.0992369,1.521633 0.3307898,2.249371 0.36386877,1.223922 0.9592904,2.381686 1.81934388,2.414765 0.7938955,-0.06616 1.1246853,-1.058527 1.3562381,-1.653949 0.033079,-0.132316 0.132316,-0.297711 0.1653949,-0.396948 C 6.6739189,50.552054 16.829166,46.284866 27.315202,44.730154 31.086206,44.167811 34.691814,43.8701 37.966633,43.8701 c 3.936399,0 7.542008,0.463106 10.684511,1.389318 0.132316,6.251927 3.903319,9.262114 8.534377,9.262114 z m -0.231553,-3.90332 c 0.132316,0.363869 0.363868,0.628501 0.793895,0.463106 0.430027,-0.264632 0.628501,-0.430027 0.363869,-0.926212 l 0.03308,0.03308 c -0.297711,-0.727737 -0.430027,-1.389317 -0.430027,-2.050896 0,-2.150134 1.323159,-3.936399 2.844792,-4.399505 0.396948,-0.132315 0.793896,-0.165394 1.058528,-0.165394 1.521633,0 2.216291,1.190843 2.216291,2.679397 0,2.447844 -1.91858,5.623426 -5.689584,6.086532 -2.977108,0.396948 -4.234109,-2.58016 -4.465662,-5.1934 2.083975,1.223923 2.977108,2.514003 3.274819,3.440214 l 0,0.03308 z M 51.992121,16.844574 c 0.165395,-1.885502 1.984739,-4.597978 2.679397,-4.597978 0.09924,0 0.165395,0.231553 0.132316,0.694659 -0.165395,1.687028 -1.455475,4.730294 -1.819344,5.524189 -0.826974,-0.198474 -1.091606,-0.793895 -0.992369,-1.62087 z"
         style="font-style:normal;font-variant:normal;font-weight:normal;font-stretch:normal;font-family:amarillo;-inkscape-font-specification:amarillo"
         id="path3382"
         inkscape:connector-curvature="0" />
      <path
         d="m 84.722737,22.335685 c -1.852423,3.704845 -4.53182,8.699771 -6.979665,10.68451 1.29008,-6.615796 1.852423,-10.982221 2.216292,-15.480962 -0.231553,-1.819344 -1.323159,-3.24174 -4.23411,-3.24174 -0.694658,0.03308 -1.223922,0.198474 -1.29008,0.793895 0,0.132316 0,0.33079 0.06616,0.595422 0.06616,0.463106 0.198474,1.025448 0.132316,1.786265 -0.03308,0.760816 -0.396948,3.208661 -1.058527,6.582717 l 0.03308,-0.03308 c -0.132316,0.264632 -0.33079,0.529263 -0.496185,0.793895 l 0,-0.03308 c -2.150134,3.704846 -6.384243,10.849905 -8.005113,10.849905 -0.396948,0 -0.463106,-0.826974 -0.430027,-1.786264 0.297711,-2.61324 1.786265,-7.575087 2.61324,-10.122168 l 0.198473,-0.628501 c 0.430027,-1.29008 0.959291,-2.977108 1.091607,-4.697215 0.132316,-1.687028 -0.297711,-3.374056 -1.554712,-4.234109 -0.396948,-0.231553 -1.455475,-0.562343 -2.315529,-0.562343 -0.595421,0 -1.157764,0.198474 -1.190843,0.793896 0,0.198474 0.03308,0.29771 0.06616,0.463105 0.06616,0.33079 0.198474,0.793896 0.132316,1.488554 -0.132316,1.455476 -0.826975,4.002557 -1.554712,6.648875 -0.893133,3.274819 -2.017818,7.277376 -2.28245,10.188326 -0.03308,0.463106 -0.06616,0.926211 -0.06616,1.356238 0,2.480924 0.826975,4.167952 3.109424,4.167952 3.374056,0 6.450401,-4.366426 9.262115,-8.832088 l 0.430026,-0.628501 c -0.694658,3.473293 -1.257001,6.119612 -1.720107,8.43514 -6.020374,5.226479 -11.610721,10.783748 -13.793934,18.888097 -0.198474,0.793896 -0.297711,1.554713 -0.297711,2.315529 0,3.109424 1.62087,5.458032 4.068715,5.755742 8.567455,1.025449 13.363907,-14.455514 16.341015,-28.944107 3.010188,-1.951659 6.748112,-8.501297 9.030562,-13.198512 -0.496185,-0.463106 -0.893133,-0.363869 -1.190843,-0.297711 -0.09924,0.03308 -0.165395,0.03308 -0.198474,0.03308 l -0.132316,0.09924 z M 58.623422,58.78872 c 0,-2.778634 2.381686,-7.608165 3.340977,-9.195956 2.282449,-3.473293 5.226479,-6.648875 8.302824,-9.063641 l -0.33079,1.290081 0,-0.03308 c -0.231553,0.661579 -0.396948,1.455475 -0.66158,2.24937 -1.455475,4.697215 -3.53945,11.279932 -6.119611,14.687067 -0.860053,1.157764 -1.852423,1.95166 -2.877871,2.083976 -1.190843,0 -1.653949,-0.860054 -1.653949,-2.017818 z"
         style="font-style:normal;font-variant:normal;font-weight:normal;font-stretch:normal;font-family:amarillo;-inkscape-font-specification:amarillo"
         id="path3384"
         inkscape:connector-curvature="0" />
      <path
         d="m 100.90508,23.063422 c 0.19847,-0.562342 0.33079,-1.157764 0.39694,-1.786265 0.26463,-3.671766 -1.951657,-7.740481 -5.821897,-7.740481 -7.508929,0 -13.860093,11.908433 -14.687067,18.557308 -0.03308,0.29771 -0.03308,0.694658 -0.03308,0.95929 0,3.010187 1.124685,5.623427 4.597978,5.623427 3.704846,0 7.11198,-3.90332 9.493667,-7.839719 -0.03308,0.297711 -0.03308,0.231553 -0.03308,0.33079 -0.33079,2.216292 -0.06616,7.376613 3.076345,7.376613 1.190843,0 2.514004,-0.562343 3.407134,-1.290081 3.10943,-2.547081 6.97967,-10.419878 8.79901,-14.091645 l 0.33079,-0.727737 c -0.16539,-0.363869 -0.39695,-0.628501 -0.79389,-0.628501 -0.1654,0 -0.33079,0.03308 -0.49619,0.09924 -0.36387,0.595422 -0.89313,1.62087 -1.38932,2.679397 -1.7201,3.274819 -4.46566,8.236666 -6.61579,10.3868 -1.653953,1.488554 -0.7939,-3.704846 -0.6285,-4.597978 0.23155,-1.422396 0.82697,-3.142503 0.69466,-4.564899 -0.13232,-1.389318 -0.99237,-2.447845 -3.605615,-2.679398 -0.661579,0.03308 -1.356238,0.198474 -1.29008,0.793896 0.06616,0.793895 -0.33079,1.455475 -0.463106,1.95166 -1.653949,3.24174 -5.16032,9.559825 -7.938955,9.559825 -1.554712,0 -1.687028,-1.720107 -1.587791,-2.977109 0.33079,-3.87024 5.458032,-15.87791 10.122168,-15.87791 2.414766,0 3.307898,2.811714 3.208661,5.061084 -0.06616,0.463106 -0.132316,0.893133 -0.297711,1.356238 0.198474,0.264632 0.463106,0.396948 0.694659,0.396948 0.1654,0 0.72774,-0.165395 0.82698,-0.297711 l 0.0331,-0.03308 z"
         style="font-style:normal;font-variant:normal;font-weight:normal;font-stretch:normal;font-family:amarillo;-inkscape-font-specification:amarillo"
         id="path3386"
         inkscape:connector-curvature="0" />
      <path
         d="m 141.90544,22.434922 c -1.09161,2.24937 -3.14251,4.300267 -5.3588,4.86261 -0.33079,0.06616 -0.66158,0.132316 -0.92621,0.132316 -0.72774,0 -1.52163,-0.33079 -2.18321,-0.893133 l 0.92621,-1.885502 0.92621,-1.95166 0.26463,-0.529263 -0.0331,0.03308 0.36386,-0.694659 c 1.52164,-3.374056 3.14251,-7.542007 3.14251,-10.386799 0,-1.8855022 -0.72774,-3.2086613 -2.61324,-3.3409773 -4.20103,-0.2977108 -6.94659,6.6157963 -6.94659,12.5700123 0,2.646318 0.52927,5.127242 1.75319,6.681954 l -0.6285,1.257001 c -1.29008,2.646318 -3.14251,6.285006 -5.45803,6.781191 -0.86006,0.198474 -1.55472,-0.463106 -1.4224,-2.381687 0.0992,-2.745555 1.12468,-7.11198 1.8855,-10.486036 0.46311,-1.95166 0.82698,-3.57253 0.89313,-4.333347 0.1654,-2.083975 -0.33079,-3.804082 -2.514,-3.804082 -1.48855,0 -2.0509,0.297711 -2.11705,1.157764 0,0 0.0331,0.264632 0.0662,0.496185 0.0662,0.33079 0.13232,0.760816 0.0992,1.091606 -0.19847,2.679397 -0.86005,4.498741 -1.75318,7.178139 l 0.0331,-0.03308 c -1.8855,3.175582 -6.81427,11.511485 -8.56745,11.511485 -0.39695,0 -0.46311,-0.826975 -0.43003,-1.786265 0.29771,-2.646319 1.75319,-7.608166 2.54708,-10.122168 0.46311,-1.356238 1.15777,-3.374056 1.32316,-5.292637 0.13232,-1.720107 -0.29771,-3.407135 -1.55471,-4.267188 -0.36387,-0.231553 -1.45547,-0.562343 -2.28245,-0.562343 -0.66158,0 -1.15776,0.198474 -1.22392,0.760817 0,0.198474 0,0.363869 0.0662,0.529263 l 0,-0.03308 c 0.0662,0.33079 0.19847,0.793896 0.13231,1.488555 -0.13231,1.455475 -0.79389,3.87024 -1.55471,6.615795 -0.92621,3.407135 -1.98474,7.178139 -2.21629,10.221405 -0.0331,0.463106 -0.0662,0.926212 -0.0662,1.356238 0,2.480924 0.76082,4.167952 3.04327,4.167952 3.60561,0 6.11961,-3.90332 8.46822,-7.47585 l 0.39694,-0.6285 c 0.0331,0.529263 0,0.529263 0,1.091606 -0.0331,3.374056 -0.0331,7.277376 4.23411,7.277376 4.49874,0 6.74811,-4.531821 8.60054,-8.236666 0.39695,-0.860054 0.72774,-1.554712 1.22392,-2.381687 1.15776,0.66158 2.54708,0.893133 3.70485,0.727738 3.17558,-0.529264 5.88805,-3.24174 7.17813,-6.285006 -0.52926,-0.529264 -0.86005,-0.628501 -1.38931,-0.264632 l -0.0331,0.06616 z M 136.41433,9.4679617 c 0.76081,0.1653949 1.05852,0.8269743 1.05852,1.8855023 0,2.679397 -2.31552,8.005113 -3.93639,11.279932 -0.36387,0.694658 -0.7939,1.422396 -1.15777,2.117054 l -0.19847,0.396948 c -0.19848,-0.529264 -0.33079,-1.455475 -0.33079,-2.58016 0,-4.961847 1.91858,-13.7939349 4.5649,-13.0992763 z"
         style="font-style:normal;font-variant:normal;font-weight:normal;font-stretch:normal;font-family:amarillo;-inkscape-font-specification:amarillo"
         id="path3388"
         inkscape:connector-curvature="0" />
      <path
         d="m 143.42862,16.778416 -0.4631,1.521633 c -1.35624,4.167952 -2.64632,8.335903 -3.01019,12.63617 -0.0331,0.529264 -0.0662,1.091607 -0.0662,1.62087 0,3.307898 0.99237,5.954217 4.06872,5.954217 3.83716,0 8.99748,-9.989852 11.57764,-15.348647 l 0.36387,-0.694658 c -0.23155,-0.396948 -0.49619,-0.66158 -0.82698,-0.66158 -0.13231,0 -0.29771,0.06616 -0.49618,0.165395 -0.33079,0.529264 -0.76082,1.356238 -1.32316,2.414765 -2.15013,4.101794 -5.9873,11.379169 -7.83972,11.379169 -0.72774,-0.03308 -1.02545,-1.058527 -1.02545,-2.613239 0,-0.363869 0.0331,-0.926211 0.0662,-1.356238 0.43003,-3.671767 1.85242,-9.262114 2.74556,-12.106907 0.26463,-0.893132 0.43002,-1.62087 0.43002,-2.24937 0,-1.257001 -0.82697,-1.984739 -2.64631,-2.646319 -0.62851,-0.165394 -1.22393,-0.09924 -1.38932,0.463106 -0.0331,0.132316 -0.0662,0.33079 -0.0662,0.628501 0,0.231553 -0.0331,0.562342 -0.0992,0.926211 l 0,-0.03308 z m 5.9873,-8.4682186 c -0.52927,-0.7938955 -1.15777,-1.1246853 -1.72011,-1.1246853 -1.257,0 -2.18321,1.587791 -2.31553,3.0101869 -0.0661,1.819344 0.86006,2.679398 1.91858,2.679398 1.22393,0 2.61324,-0.860054 2.74556,-2.348608 0.0331,-0.6285006 -0.13232,-1.3562381 -0.6285,-2.2162916 z"
         style="font-style:normal;font-variant:normal;font-weight:normal;font-stretch:normal;font-family:amarillo;-inkscape-font-specification:amarillo"
         id="path3390"
         inkscape:connector-curvature="0" />
      <path
         d="m 165.59309,2.1244283 c -7.74048,0 -12.40462,20.8397567 -12.93388,27.1247627 l 0,-0.03308 c -0.0662,0.562343 -0.0662,1.190844 -0.0662,1.786265 0,3.771004 1.12469,7.80664 5.42496,7.80664 4.86261,0 8.799,-8.170508 11.57764,-14.091646 l -0.0331,0 1.12468,-2.282449 c -0.16539,-0.363869 -0.39694,-0.628501 -0.79389,-0.628501 -0.13232,0 -0.36387,0.03308 -0.52926,0.165395 -0.26464,0.33079 -0.72774,1.29008 -1.25701,2.480923 -1.98473,4.101794 -5.62342,11.544564 -9.22903,11.544564 -1.45548,0 -1.95166,-1.653949 -1.95166,-3.771003 0,-0.496185 0,-0.99237 0.0662,-1.554712 0.33079,-3.473293 1.35624,-7.376613 1.38931,-7.376613 4.5649,-4.167951 9.42751,-10.320641 9.95678,-16.2086998 0.13231,-1.8855019 -0.52927,-4.9618469 -2.74556,-4.9618469 z m 0.46311,2.6132393 c 0.66158,0 0.82697,1.687028 0.69466,2.8117133 -0.46311,5.0280051 -5.8219,11.3130111 -7.64125,12.9338811 2.28245,-8.964404 5.52419,-15.7455944 6.94659,-15.7455944 z"
         style="font-style:normal;font-variant:normal;font-weight:normal;font-stretch:normal;font-family:amarillo;-inkscape-font-specification:amarillo"
         id="path3392"
         inkscape:connector-curvature="0" />
      <path
         d="m 184.94688,38.908253 c 2.61324,-0.165394 4.43258,-2.117054 5.92114,-4.002556 2.01781,-2.679397 3.83716,-6.450401 5.39187,-9.625983 0.46311,-0.926212 0.89313,-1.95166 1.32316,-2.745555 -0.1654,-0.363869 -0.39695,-0.628501 -0.76082,-0.628501 -0.13231,0 -0.36387,0.03308 -0.52926,0.165395 -0.26463,0.363869 -0.69466,1.29008 -1.29008,2.514002 -1.32316,2.679398 -3.3079,6.81427 -5.59035,9.361352 -0.86005,0.992369 -2.38168,2.150133 -3.47329,2.150133 -0.6285,0 -1.05853,-0.396948 -1.19084,-1.356238 -0.0662,-0.297711 -0.0662,-0.66158 -0.0662,-1.058527 0,-2.944029 1.22392,-7.938955 2.18321,-11.67688 0.33079,-1.422396 0.69466,-2.712476 0.86005,-3.605609 1.257,-5.358795 2.44785,-10.4198784 2.61324,-12.4376961 0.19848,-2.2824496 -0.33079,-4.5979782 -3.771,-4.5979782 -0.6285,0 -1.22392,0.1653949 -1.257,0.7608166 0,0.1653949 0.0331,0.3638687 0.0662,0.5954216 0.0661,0.3969477 0.16539,0.9262114 0.13231,1.653949 -0.0992,1.3562381 -0.95929,4.8956889 -1.91858,9.0636401 l -0.33079,1.257001 c -0.89313,-0.661579 -1.8855,-1.025448 -3.07634,-1.025448 -7.50893,0 -13.8601,11.908433 -14.68707,18.557308 -0.0331,0.330789 -0.0331,0.727737 -0.0331,1.058527 0,2.944029 1.15776,5.52419 4.63106,5.52419 3.83716,0 7.27737,-4.267189 9.72522,-8.335903 -0.1654,0.860053 -0.0992,0.860053 -0.13232,1.455475 -0.0331,0.496184 -0.0662,0.95929 -0.0662,1.356238 0,3.539451 1.45548,5.623426 5.32572,5.623426 z m -4.13487,-13.363907 c -1.55472,3.043266 -5.25956,10.022931 -8.23667,10.022931 -1.55471,0 -1.68703,-1.720107 -1.55471,-2.977109 0.33079,-3.87024 5.45803,-15.87791 10.12217,-15.87791 0.6285,0 1.15776,0.165395 1.58779,0.496185 -0.0992,0.496185 -0.26463,0.893132 -0.36387,1.356238 -0.56234,2.414766 -1.12469,4.829531 -1.58779,7.012744 l 0.0331,-0.03308 z"
         style="font-style:normal;font-variant:normal;font-weight:normal;font-stretch:normal;font-family:amarillo;-inkscape-font-specification:amarillo"
         id="path3394"
         inkscape:connector-curvature="0" />
    </g>
  </g>
</svg>
