<?xml version="1.0" encoding="UTF-8" standalone="no"?>
<svg
   xmlns:dc="http://purl.org/dc/elements/1.1/"
   xmlns:cc="http://creativecommons.org/ns#"
   xmlns:rdf="http://www.w3.org/1999/02/22-rdf-syntax-ns#"
   xmlns:svg="http://www.w3.org/2000/svg"
   xmlns="http://www.w3.org/2000/svg"
   version="1.1"
   id="svg2"
   viewBox="0 0 744.09448819 1052.3622047"
   height="297mm"
   width="210mm">
  <defs
     id="defs4" />
  <metadata
     id="metadata7">
    <rdf:RDF>
      <cc:Work
         rdf:about="">
        <dc:format>image/svg+xml</dc:format>
        <dc:type
           rdf:resource="http://purl.org/dc/dcmitype/StillImage" />
        <dc:title></dc:title>
      </cc:Work>
    </rdf:RDF>
  </metadata>
  <g
     id="layer1">
    <g
       id="text3336"
       style="font-style:normal;font-variant:normal;font-weight:normal;font-stretch:normal;font-size:338.76266479px;line-height:125%;font-family:'Kitsune Udon';-inkscape-font-specification:'Kitsune Udon';letter-spacing:0px;word-spacing:0px;fill:#000000;fill-opacity:1;stroke:none;stroke-width:1px;stroke-linecap:butt;stroke-linejoin:miter;stroke-opacity:1"
       transform="scale(1.2324368,0.81140064)">
      <path
         id="path3341"
         style=""
         d="m -374.56445,-46.169606 q -7.11402,-1.016288 -7.11402,-6.775253 0.33876,-6.097728 7.45278,-6.775254 l 24.72967,0 0,-38.957706 q -19.64823,0.677525 -30.14987,0.677525 -7.11402,-1.016288 -7.11402,-6.775256 0.33876,-6.09772 7.45278,-6.77525 10.16288,0 29.81111,-0.67753 l 0,-42.68409 q 1.35505,-5.75897 6.43649,-6.09773 5.42021,-0.33876 7.11402,5.75897 l 0,42.34533 q 8.80783,0 20.66452,-0.33876 12.19546,-0.67753 18.63195,-0.67753 -1.01629,-24.39091 -1.01629,-49.45935 1.35505,-5.75896 6.43649,-6.09773 5.4202,-0.33876 7.11402,5.75897 0,18.29318 0.67752,49.45935 5.4202,0.67752 13.88927,0.33876 8.80783,-0.67752 11.85669,-0.33876 6.09773,0.67752 7.79155,6.77525 2.03257,5.75897 -4.06516,6.09773 -10.16288,1.01629 -29.13359,1.01629 0.67753,23.035859 1.35506,35.90884 4.40391,-0.338763 13.5505,-0.338763 9.14659,-0.338762 15.92185,-1.016288 7.11401,-0.677525 7.79154,5.420203 0.67752,6.097728 -6.09773,7.791541 -6.77525,0.677526 -16.26061,1.016288 -9.14659,0.338763 -14.56679,0.677526 1.69381,43.7003834 2.03257,63.009855 -0.67752,7.114016 -6.77525,7.452779 -5.75896,0 -6.77525,-7.114016 0,-2.7101013 -1.69382,-62.33233 -16.2606,0 -41.32904,2.371338 l 0,49.4593494 q -0.67753,7.1140159 -6.77525,7.4527786 -5.75897,0 -6.77526,-7.114016 l 0,-48.443061 -25.06843,0 z m 38.61894,-53.524501 0,38.618944 q 0.67752,0 40.65152,-2.371339 l -1.01629,-36.586368 q -33.87627,0 -39.63523,0.338763 z" />
      <path
         id="path3343"
         style=""
         d="m -137.66879,-98.000294 -14.22804,0 q -4.40391,0 -6.09772,-3.387626 -2.03258,-3.38763 0,-6.77525 2.03257,-3.38763 6.43649,-3.38763 l 14.90555,0 q 0.67753,-25.74596 0.67753,-38.28018 0,-3.72639 3.38763,-5.4202 3.38762,-2.03258 6.77525,-0.33877 3.38763,1.35505 3.38763,5.42021 0,25.4072 -0.33877,37.94141 3.72639,0 7.11402,0 3.38763,-0.33876 6.77525,-0.33876 4.06515,0 5.4202,3.38763 1.69382,3.38762 -0.33876,6.77525 -1.69381,3.387628 -5.4202,3.387628 -3.38763,0 -6.77525,0.338763 -3.38763,0 -7.11402,0 -2.37134,30.827402 -2.37134,68.768821 -2.03257,13.211744 -1.01629,31.8436904 1.01629,18.2931836 8.80783,19.3094716 10.50165,1.355051 20.325763,-16.2606076 10.16288,-17.9544214 17.276896,-38.9577064 1.693813,-5.420203 7.452778,-2.032576 6.436491,3.726389 3.72639,9.824117 -12.872982,32.1824534 -18.97071,42.006571 -15.244317,24.390912 -34.892557,18.631946 -6.43649,-1.693813 -10.16288,-6.097728 -4.06515,-4.403914 -5.08144,-11.856693 -1.35505,-7.4527787 -1.69381,-12.5342186 -0.33876,-5.08144 0.33876,-15.2443204 0.67753,-10.162879 0.67753,-13.550506 0.33876,-10.501643 0.33876,-35.231317 0,-24.729675 0.67753,-37.941419 z" />
      <path
         id="path3345"
         style=""
         d="m -32.35593,-174.56066 q 24.3909115,2.03258 21.68081,37.94142 -2.371338,34.21503 -24.052149,72.495213 -16.599371,29.133589 -33.537504,38.280181 0.338763,4.065152 3.387627,23.0358611 2.032576,-14.5667951 9.824117,-24.7296741 8.469067,-10.840406 22.358336,-11.179168 13.889269,-0.677526 20.664523,13.889269 2.7101009,6.43649 5.0814395,22.3583357 2.7101013,15.9218453 5.7589653,27.4397763 3.048864,11.51793 8.4690667,12.872981 16.5993705,4.065152 26.0847255,-68.430058 1.35505,-6.097728 7.114016,-6.097728 5.758965,-0.338763 6.43649,5.758965 1.016288,12.534218 -5.420202,38.280181 -6.097728,25.745963 -13.550507,34.553792 -6.097728,7.452778 -16.938133,8.130304 -10.50164284,1.016288 -16.9381335,-7.452779 -5.0814395,-8.130304 -8.4690665,-25.4072 -3.387627,-17.27689561 -6.775253,-29.811114 -3.387627,-12.534219 -10.16288,-13.889269 -7.114016,-1.693814 -11.856694,5.08144 -4.742677,6.775253 -6.775253,18.9707087 -1.693813,12.195456 -2.371339,21.0032853 -0.338762,8.469067 -0.338762,17.615659 -0.677526,6.097727 -5.758966,7.114015 -5.081439,1.016288 -7.791541,-5.420202 -13.211744,-36.92513061 -14.566794,-81.30304 -1.693814,-44.716671 5.420202,-87.739525 3.048864,-22.6971 13.211744,-33.87627 10.16288,-11.17917 29.811115,-9.48536 z m -2.710102,12.19546 q -12.534218,-4.06515 -21.003285,11.51793 -8.469066,15.24432 -10.840405,37.60266 -2.032576,22.358332 -3.048864,44.039143 -1.016288,21.342048 1.355051,29.811114 14.228031,-11.179168 25.745962,-36.92513 11.517931,-26.084727 16.599371,-49.459347 7.452778,-31.50493 -8.80783,-36.58637 z" />
      <path
         id="path3347"
         style=""
         d="m 101.74115,-51.251046 q -0.33876,6.775253 -54.540787,27.101013 6.097728,39.973995 32.521216,40.65152 14.905557,0.338763 29.811111,-12.8729813 15.24432,-13.2117439 20.66453,-31.8436907 2.03257,-5.758965 6.43649,-6.43649 3.38762,-0.338763 4.74267,2.710101 1.69382,3.048864 1.01629,6.775253 -5.08144,23.7133867 -23.37462,38.957707 Q 100.72486,28.696943 80.399104,29.374468 58.040768,29.713231 45.50655,12.097572 32.972331,-5.8568489 31.956043,-30.247761 q 0,-16.938133 8.130304,-29.472352 8.130304,-12.872981 25.4072,-14.566794 14.228032,-1.355051 25.4072,5.420202 11.517933,6.436491 10.840403,17.615659 z m -13.889267,-2.710101 q -14.905557,-12.195456 -28.456064,-5.08144 -13.211744,7.114016 -13.550507,23.035861 34.553792,-13.550507 42.006571,-17.954421 z" />
      <path
         id="path3349"
         style=""
         d="m 299.88026,-44.475793 q 9.48535,7.452779 13.21174,17.615659 3.72639,9.824117 5.42021,11.856693 6.77525,8.8078294 17.61565,0.677525 10.84041,-8.130303 15.58309,-18.293183 1.69381,-3.72639 5.4202,-4.065152 3.72639,-0.677526 6.09773,1.693813 2.37134,2.371339 1.35505,6.097728 -5.08144,14.905557 -18.29319,24.7296744 -12.87298,9.4853546 -27.43977,5.08143999 -2.03258,4.40391461 -7.45278,11.51793061 -5.4202,7.114016 -7.45278,11.179168 -2.03257,3.726389 -0.33876,10.501643 1.69381,6.43649 10.16288,13.550506 21.34205,18.970709 22.6971,46.410485 1.69381,27.439773 -22.35834,43.361623 -29.13359,16.93813 -57.58965,13.5505 -28.1173,-3.04886 -44.03915,-25.40719 -14.22803,-19.987 -10.16288,-37.941423 4.06515,-17.954422 17.95442,-31.166166 13.55051,-12.872981 33.53751,-18.970709 20.32576,-5.758965 37.94142,-1.35505 -1.01629,-5.08144 0.33876,-11.179168 -13.55051,3.387626 -27.77854,0 -13.88927,-3.387627 -21.68081,-10.840406 l -0.33876,-0.338762 q -8.80783,-8.1303043 -11.8567,-17.6156589 -3.04886,-9.4853551 -0.33876,-17.6156581 2.37134,-8.469067 8.1303,-15.921846 5.75897,-7.452778 14.22804,-11.51793 8.46906,-4.065152 17.27689,-5.420203 9.14659,-1.355051 18.29319,2.710101 7.11401,-10.501642 19.30947,-11.51793 7.79154,-1.016288 10.50164,5.758965 2.03258,5.758965 -2.37134,6.436491 -1.01629,0.338762 -2.7101,0 -3.38763,-1.016288 -7.11401,0.677525 -3.72639,1.693813 -5.75897,5.758965 z M 224.67495,120.50163 q 17.95442,20.32575 45.05543,19.30947 27.10102,-0.67753 44.37791,-17.61566 14.22803,-14.90556 7.45278,-37.94142 -6.77525,-22.697099 -25.74596,-32.521216 -10.16288,-5.08144 -24.05215,-4.065152 -13.88927,1.355051 -25.74596,7.452779 -11.8567,6.43649 -20.66453,16.260608 -8.80783,10.16288 -9.14659,22.697098 -0.67752,12.872983 8.46907,26.423493 z m 17.95442,-131.439919 q 2.7101,20.32576 22.01957,25.068437 16.93814,4.065152 30.48864,-5.4202023 15.92185,-11.5179306 7.45278,-29.8111147 -3.38763,-6.43649 -9.14659,-12.872981 -11.85669,-9.485355 -23.71339,-7.791541 -11.85669,1.693813 -20.32576,11.179168 -8.1303,9.485354 -6.77525,19.648234 z" />
      <path
         id="path3351"
         style=""
         d="m 423.38043,-51.589809 q -5.75897,14.566795 -21.68081,22.697099 -15.58309,7.791541 -32.18246,7.791541 4.06516,14.9055574 13.88927,24.0521494 10.16288,8.8078296 27.10102,6.7752533 17.27689,-2.3713387 28.45606,-13.211744 11.51793,-11.1791677 15.58308,-28.7948267 1.01629,-3.726389 4.40392,-4.403914 3.38762,-0.677526 5.75896,2.032576 2.7101,2.371338 2.03258,6.097728 Q 462.33813,-7.2118996 448.78763,6.6773697 435.23712,20.227876 418.97651,22.937978 402.7159,25.309316 387.47158,20.566639 372.22726,15.823962 362.40315,0.24087906 352.57903,-15.342204 353.25656,-37.361777 q 1.35505,-40.990282 25.74596,-55.218314 17.27689,-9.824119 33.19874,-0.677525 16.26061,9.485354 14.22803,29.811114 -0.67752,5.758965 -3.04886,11.856693 z m -46.41049,-21.342048 q -12.53422,15.921846 -9.48535,39.635232 19.98699,0 35.23131,-12.195456 15.58309,-12.534218 10.84041,-27.439776 -4.74268,-12.195455 -16.59937,-11.179167 -11.85669,0.677525 -19.987,11.179167 z" />
      <path
         id="path3353"
         style=""
         d="m 521.88623,-51.251046 q -0.33876,6.775253 -54.54079,27.101013 6.09773,39.973995 32.52122,40.65152 14.90556,0.338763 29.81111,-12.8729813 15.24432,-13.2117439 20.66453,-31.8436907 2.03257,-5.758965 6.43649,-6.43649 3.38762,-0.338763 4.74267,2.710101 1.69382,3.048864 1.01629,6.775253 -5.08144,23.7133867 -23.37462,38.957707 -18.29319,14.905557 -38.61895,15.583082 -22.35833,0.338763 -34.89255,-17.276896 -12.53422,-17.9544209 -13.55051,-42.345333 0,-16.938133 8.13031,-29.472352 8.1303,-12.872981 25.4072,-14.566794 14.22803,-1.355051 25.4072,5.420202 11.51793,6.436491 10.8404,17.615659 z m -13.88927,-2.710101 q -14.90555,-12.195456 -28.45606,-5.08144 -13.21174,7.114016 -13.55051,23.035861 34.55379,-13.550507 42.00657,-17.954421 z" />
      <path
         id="path3355"
         style=""
         d="m 655.05704,34.455908 q -9.48536,10.840405 -19.64824,11.179168 -9.82411,0.677525 -17.95442,-6.775253 -7.79154,-7.114016 -14.90555,-18.631947 -7.11402,-11.5179303 -11.51794,-22.3583356 -4.40391,-10.8404054 -6.77525,-19.9869974 -5.4202,5.420203 -14.90556,8.807829 5.75897,32.521216 6.43649,44.37791 -0.67752,7.114016 -6.77525,7.114016 -5.75896,0.338762 -6.77525,-6.775254 -0.33876,-8.469066 -7.11402,-45.055434 -7.11401,-4.403915 -7.79154,-12.195456 -0.67752,-8.130304 4.40392,-12.195456 -10.16288,-65.381198 -16.26061,-120.260748 -0.67753,-5.75896 -1.01629,-10.16288 -0.33876,-4.40391 -0.67753,-12.53422 -0.67752,-8.46906 0,-14.90555 0.33877,-6.77526 1.35505,-14.5668 0.67753,-8.1303 3.04887,-13.55051 2.37134,-5.4202 6.09773,-10.16287 3.38762,-4.74268 9.14659,-6.4365 5.4202,-1.69381 12.87298,0 5.4202,1.01629 9.14659,4.06516 4.06515,3.04886 6.43649,8.46906 2.37134,5.08144 3.72639,10.16288 1.69382,4.74268 2.03258,12.87298 0.33876,8.13031 0.33876,13.55051 0.33876,5.08144 -0.67752,14.5668 -1.01629,9.14659 -1.69382,13.21174 -0.33876,4.06515 -1.69381,12.87298 -1.01629,8.80783 -1.35505,10.16288 -1.01629,7.79154 -14.5668,86.045717 1.69382,-3.726389 4.74268,-9.824117 3.04886,-6.097728 5.08144,-10.16288 2.03258,-4.403915 4.74268,-10.16288 3.04886,-5.758965 5.4202,-9.485354 2.7101,-4.065152 5.75897,-8.130306 3.38762,-4.40391 6.43649,-6.77525 3.38762,-2.37134 6.77525,-3.72639 3.72639,-1.69381 7.79154,-1.35505 4.06515,0.33876 8.1303,2.37134 10.50165,5.4202 11.51794,15.58308 1.01628,9.824117 -6.09773,22.019573 -7.11402,12.195456 -15.24432,22.358336 -8.13031,9.824117 -18.29319,19.986997 4.40392,15.24432 7.79155,24.7296744 3.72638,9.4853546 10.8404,20.6645226 7.11402,11.179168 15.92185,16.938133 11.85669,7.114016 26.42348,-17.615658 14.90556,-24.729675 16.59937,-41.667808 0.33877,-3.726389 3.04887,-5.08144 3.04886,-1.693813 5.4202,0 2.7101,1.693813 2.37134,5.758965 -1.35505,18.9707094 -8.1303,33.1987414 -6.4365,13.8892696 -19.987,29.4723516 z M 559.52597,-226.73011 q -13.21175,0.33877 -13.55051,32.52122 -0.33876,31.84369 5.75897,73.5115 5.75896,41.329043 5.75896,44.377907 1.01629,-6.775253 3.72639,-21.342048 2.7101,-14.566799 4.74268,-27.101009 2.37134,-12.87299 4.74267,-28.45607 2.37134,-15.92184 3.04887,-28.1173 0.67752,-12.19546 0,-23.03586 -0.67753,-10.84041 -4.40392,-16.59937 -3.38762,-6.09773 -9.82411,-5.75897 z m 57.92841,125.00343 q -8.80783,-4.06516 -22.01957,18.970706 -13.21174,22.697099 -16.59937,35.908843 5.4202,1.016288 8.80783,5.08144 16.59937,-15.583083 27.77854,-35.57008 11.17916,-19.986997 2.03257,-24.390909 z m -50.8144,69.785106 q 0,2.371339 0.67753,5.08144 4.74268,-2.032576 10.16288,-6.097728 -2.7101,-3.048864 -10.84041,1.016288 z" />
      <path
         id="path3357"
         style=""
         d="m 802.18056,-47.863419 q 1.01629,21.68081 4.74268,45.0554341 2.03257,-14.5667951 9.82411,-24.7296741 8.46907,-10.840406 22.35834,-11.179168 13.88927,-0.677526 20.66452,13.889269 2.7101,6.43649 5.08144,22.3583357 2.7101,15.9218453 5.75897,27.4397763 3.04886,11.51793 8.46906,12.872981 16.59937,4.065152 26.08473,-68.430058 1.35505,-6.097728 7.11401,-6.097728 5.75897,-0.338763 6.43649,5.758965 1.01629,12.534218 -5.4202,38.280181 -6.09773,25.745963 -13.5505,34.553792 -6.09773,7.452778 -16.93814,8.130304 -10.50164,1.016288 -16.93813,-7.452779 -5.08144,-8.130304 -8.46907,-25.4072 -3.38762,-17.27689561 -6.77525,-29.811114 -3.38763,-12.534219 -10.16288,-13.889269 -7.11402,-1.693814 -11.85669,5.08144 -4.74268,6.775253 -6.77526,18.9707087 -1.69381,12.195456 -2.37134,21.0032853 -0.33876,8.469067 -0.33876,17.615659 -0.67752,6.097727 -5.75896,7.114015 -5.08144,1.016288 -7.79155,-5.420202 -24.05214,-68.091296 -10.50164,-170.058855 1.69382,-13.55051 4.74268,-20.32576 3.38763,-6.77526 9.48535,-5.08144 2.37134,0.67752 3.04887,2.37134 1.01629,1.35505 0.67752,4.40391 -0.33876,3.04886 -1.01628,5.75897 -0.33877,2.37133 -2.03258,7.45277 -1.35505,4.74268 -2.03258,7.79155 -8.46906,35.231313 -5.75896,81.980561 z" />
      <path
         id="path3359"
         style=""
         d="m 914.50688,8.0324203 q -9.14659,-13.2117439 -7.79154,-38.9577063 1.35505,-26.084725 13.55051,-38.280181 13.88926,-14.228032 28.45606,-13.211744 14.56679,0.677525 26.08472,10.16288 11.8567,9.485354 18.29319,23.374624 13.55048,14.905557 38.28018,14.228032 0.6775,0 7.4528,-1.016288 7.114,-1.355051 10.5016,0 3.7264,1.016288 3.7264,5.758965 0,1.693813 -1.0163,3.048864 -0.6775,1.016288 -2.7101,1.693813 -1.6938,0.677526 -3.3876,1.355051 -1.6938,0.338763 -4.4039,0.677525 -2.7101,0.338763 -4.4039,0.677526 -1.6938,0 -4.4039,0 -2.7102,0 -3.3877,0 -18.2932,1.016288 -33.53748,-7.791542 0,33.1987414 -14.22803,45.394197 -15.24432,13.88927 -35.57008,12.534219 -19.987,-1.355051 -31.50493,-19.6482347 z m 15.58308,-67.7525333 q -9.14659,9.146592 -10.50164,29.472352 -1.01629,19.986997 6.09773,30.48864006 7.45278,12.19545594 22.01957,14.22803194 14.5668,1.693813 24.05215,-9.146592 5.08144,-6.09772794 6.77525,-10.5016426 1.69382,-4.7426773 3.04887,-14.5667944 2.37134,-14.228032 -5.08144,-29.133589 -7.45278,-14.905558 -19.64824,-19.309472 -12.19545,-4.403915 -26.76225,8.469066 z" />
      <path
         id="path3361"
         style=""
         d="m 1044.0624,-73.270619 q 1.0163,-4.403915 4.4039,-5.758966 3.7264,-1.35505 6.4365,1.016288 3.0489,2.032576 2.3713,6.436491 -4.7426,35.57008 -1.355,63.3486184 5.7589,45.7329596 27.101,2.032576 12.1954,-25.4071994 19.3095,-51.4919254 0.6775,-3.387626 4.0651,-4.403914 3.3876,-1.355051 6.0977,0.338762 3.0489,1.355051 3.0489,5.08144 0,1.693814 -0.3388,8.130304 0,6.436491 0,11.517931 0.3388,5.08144 0.3388,12.534219 0,7.114015 0.6775,12.872981 0.6776,5.4202024 1.3551,10.84040506 1.0163,5.08143994 2.3713,8.13030394 1.6938,3.048864 3.7264,3.387627 3.0489,0.677525 7.114,-7.1140163 4.4039,-7.7915413 9.4854,-20.6645227 5.0814,-12.872981 7.4528,-17.276896 3.0488,-6.097728 8.469,-2.371338 5.4202,4.065152 2.7101,10.16288 -2.3713,4.742677 -7.114,16.9381328 -4.7427,11.8566932 -9.8241,19.6482342 -4.7427,7.452779 -12.1955,13.550507 -5.7589,3.387627 -11.5179,0.338763 -5.4202,-3.387627 -7.7915,-8.80783 -4.7427,-11.856693 -7.114,-29.133589 -10.1629,25.068437 -21.0033,34.553792 -8.8079,7.791541 -16.2606,7.791541 -7.4528,0 -11.8567,-5.08144 -4.4039,-5.420202 -7.4528,-13.889269 -3.3876,-8.80782928 -4.4039,-16.9381332 -1.3551,-8.1303038 -1.3551,-15.2443198 0,-31.843691 3.0489,-50.475637 z" />
      <path
         id="path3363"
         style=""
         d="m 1147.5704,-27.537659 q -2.7101,-3.387627 -1.0163,-6.436491 1.6938,-3.387627 5.4202,-3.387627 3.3876,-0.338762 6.4365,3.048864 21.0032,26.7622508 28.7948,59.283467 16.5994,-8.130304 26.4235,-22.3583363 9.8241,-14.5667947 11.1791,-32.5212157 1.3551,-5.758965 6.0978,-5.08144 5.0814,0.338763 4.7426,6.775253 -1.0162,23.3746241 -12.5342,41.329045 -11.5179,17.954422 -33.1987,25.068438 1.6938,22.697098 -16.2606,27.101013 -14.5668,3.387626 -26.7623,-6.097728 -12.873,-9.824118 -4.7426,-22.019573 0.6775,-1.355051 2.0325,-2.710102 2.7101,-3.048864 6.7753,-4.403914 4.0651,-1.693814 7.114,-1.693814 3.0489,-0.338762 8.4691,0 5.7589,0 8.1303,0 -5.759,-29.4723516 -27.101,-55.895839 z m 4.0651,73.511498 q -0.3388,4.065152 6.0977,6.775253 6.4365,2.710101 12.5343,0 6.4364,-2.371339 6.0977,-11.179168 -0.3388,0 -3.7264,-0.338763 -3.0489,-0.338762 -6.0977,-0.338762 -3.0489,0 -6.7753,0.338762 -3.3876,0.338763 -5.759,1.355051 -2.3713,1.355051 -2.3713,3.387627 z" />
      <path
         id="path3365"
         style=""
         d="m 1294.7679,-51.589809 q -5.7589,14.566795 -21.6808,22.697099 -15.5831,7.791541 -32.1824,7.791541 4.0651,14.9055574 13.8892,24.0521494 10.1629,8.8078296 27.1011,6.7752533 17.2769,-2.3713387 28.456,-13.211744 11.518,-11.1791677 15.5831,-28.7948267 1.0163,-3.726389 4.4039,-4.403914 3.3876,-0.677526 5.759,2.032576 2.7101,2.371338 2.0326,6.097728 -4.404,21.3420474 -17.9545,35.2313167 -13.5505,13.5505063 -29.8111,16.2606083 -16.2606,2.371338 -31.5049,-2.371339 -15.2443,-4.742677 -25.0684,-20.32575994 -9.8242,-15.58308306 -9.1466,-37.60265606 1.355,-40.990282 25.7459,-55.218314 17.2769,-9.824119 33.1988,-0.677525 16.2606,9.485354 14.228,29.811114 -0.6775,5.758965 -3.0489,11.856693 z m -46.4104,-21.342048 q -12.5343,15.921846 -9.4854,39.635232 19.987,0 35.2313,-12.195456 15.5831,-12.534218 10.8404,-27.439776 -4.7427,-12.195455 -16.5993,-11.179167 -11.8567,0.677525 -19.987,11.179167 z" />
    </g>
  </g>
</svg>
